<svg width="249" height="348" viewBox="0 0 249 348" fill="none" xmlns="http://www.w3.org/2000/svg">
<rect x="2.5" y="2.5" width="244" height="343" rx="21.5" fill="black"/>
<rect x="2.5" y="2.5" width="244" height="343" rx="21.5" stroke="white" stroke-width="5"/>
<path d="M71.1188 131.242C71.0587 124.074 70.9979 116.821 70.9364 109.482C70.875 102.144 70.8142 94.891 70.7541 87.7232C73.3994 87.7011 76.0446 87.6789 78.6899 87.6567C81.3778 87.6342 84.023 87.612 86.6256 87.5902C89.5695 87.5656 92.1552 88.0773 94.3827 89.1253C96.6099 90.1307 98.35 91.5668 99.603 93.4337C100.856 95.2579 101.493 97.4287 101.514 99.9459C101.529 101.738 101.201 103.362 100.53 104.818C99.8599 106.275 98.8461 107.499 97.4891 108.492C99.29 109.544 100.667 110.919 101.62 112.617C102.572 114.274 103.057 116.126 103.074 118.173C103.096 120.733 102.453 122.979 101.147 124.91C99.8829 126.841 98.0821 128.349 95.7445 129.435C93.4495 130.521 90.7447 131.077 87.6302 131.103C84.8996 131.126 82.1477 131.149 79.3745 131.173C76.6012 131.196 73.8493 131.219 71.1188 131.242ZM90.3231 101.128C90.3138 100.018 89.965 99.1253 89.2766 98.4484C88.5879 97.7288 87.6889 97.3737 86.5796 97.383C85.8117 97.3894 85.0223 97.396 84.2117 97.4028C83.4437 97.4092 82.6758 97.4157 81.9078 97.4221C81.9178 98.6167 81.9282 99.854 81.9389 101.134C81.9493 102.371 81.9596 103.609 81.97 104.846C82.738 104.839 83.5059 104.833 84.2739 104.827C85.0845 104.82 85.8739 104.813 86.6418 104.807C87.7511 104.797 88.6444 104.47 89.3217 103.824C89.9986 103.136 90.3324 102.237 90.3231 101.128ZM91.8662 117.243C91.8562 116.049 91.443 115.114 90.6267 114.438C89.8526 113.719 88.7829 113.365 87.4177 113.377C86.5217 113.384 85.6257 113.392 84.7297 113.399C83.8338 113.407 82.9378 113.414 82.0418 113.422C82.0529 114.744 82.064 116.067 82.0751 117.389C82.0862 118.712 82.0972 120.035 82.1083 121.357C83.0043 121.35 83.9003 121.342 84.7962 121.335C85.6922 121.327 86.5882 121.32 87.4841 121.312C88.8494 121.301 89.913 120.929 90.6749 120.197C91.4795 119.465 91.8766 118.481 91.8662 117.243ZM109.562 130.92C109.502 123.752 109.442 116.499 109.38 109.16C109.319 101.822 109.258 94.5689 109.198 87.4011C111.075 87.3854 112.952 87.3697 114.83 87.3539C116.707 87.3382 118.563 87.3227 120.397 87.3073C120.457 94.475 120.518 101.728 120.58 109.067C120.641 116.405 120.702 123.658 120.762 130.826C118.927 130.841 117.071 130.857 115.194 130.872C113.317 130.888 111.44 130.904 109.562 130.92ZM164.545 128.155C160.123 129.984 155.993 131.043 152.155 131.331C148.36 131.661 144.923 131.349 141.843 130.393C138.762 129.395 136.125 127.881 133.932 125.851C131.739 123.822 130.055 121.404 128.879 118.597C127.704 115.791 127.102 112.724 127.074 109.396C127.047 106.111 127.555 103.077 128.598 100.295C129.641 97.4702 131.178 95.0252 133.209 92.9601C135.282 90.8947 137.786 89.2737 140.72 88.097C143.654 86.9204 146.999 86.3377 150.754 86.3489C154.508 86.3175 158.631 86.9656 163.123 88.2934C163.138 90.0853 163.153 91.8986 163.168 93.7332C163.183 95.5251 163.198 97.317 163.213 99.109C159.66 97.7307 156.368 96.9476 153.337 96.7596C150.349 96.5713 147.728 96.9133 145.474 97.7856C143.262 98.6574 141.524 100.037 140.26 101.925C139.038 103.77 138.439 106.079 138.462 108.853C138.482 111.285 138.948 113.435 139.86 115.305C140.815 117.175 142.128 118.636 143.801 119.688C145.474 120.741 147.377 121.258 149.51 121.241C150.236 121.234 150.961 121.207 151.686 121.158C152.41 121.067 153.113 120.933 153.794 120.757C153.785 119.647 153.776 118.517 153.766 117.365C153.756 116.213 153.747 115.082 153.737 113.973C152.543 113.983 151.348 113.993 150.154 114.003C148.959 114.013 147.764 114.023 146.57 114.033C146.556 112.454 146.543 110.876 146.53 109.297C146.516 107.676 146.503 106.076 146.49 104.497C149.434 104.473 152.399 104.448 155.386 104.423C158.415 104.397 161.401 104.372 164.345 104.348C164.378 108.273 164.411 112.241 164.445 116.251C164.479 120.262 164.512 124.23 164.545 128.155Z" fill="#FAFAFF"/>
<path d="M45.3921 212.46C45.332 205.292 45.2712 198.039 45.2098 190.701C45.1483 183.362 45.0875 176.109 45.0274 168.942C47.6727 168.919 50.3179 168.897 52.9632 168.875C55.6511 168.853 58.2963 168.83 60.8989 168.809C63.8428 168.784 66.4285 169.296 68.656 170.344C70.8832 171.349 72.6233 172.785 73.8763 174.652C75.129 176.476 75.7658 178.647 75.7869 181.164C75.8019 182.956 75.4742 184.58 74.8037 186.037C74.1332 187.493 73.1195 188.718 71.7624 189.71C73.5633 190.762 74.9402 192.137 75.8931 193.836C76.8457 195.492 77.3305 197.344 77.3477 199.392C77.3691 201.952 76.7266 204.197 75.4201 206.128C74.1562 208.059 72.3554 209.567 70.0178 210.654C67.7228 211.74 65.018 212.296 61.9035 212.322C59.1729 212.345 56.421 212.368 53.6478 212.391C50.8745 212.414 48.1226 212.437 45.3921 212.46ZM64.5964 182.346C64.5871 181.237 64.2383 180.344 63.55 179.667C62.8612 178.947 61.9622 178.592 60.8529 178.601C60.085 178.608 59.2957 178.614 58.485 178.621C57.717 178.628 56.9491 178.634 56.1811 178.64C56.1911 179.835 56.2015 181.072 56.2122 182.352C56.2226 183.59 56.2329 184.827 56.2433 186.064C57.0113 186.058 57.7792 186.051 58.5472 186.045C59.3579 186.038 60.1472 186.032 60.9151 186.025C62.0244 186.016 62.9177 185.688 63.595 185.043C64.2719 184.354 64.6057 183.455 64.5964 182.346ZM66.1395 198.462C66.1295 197.267 65.7163 196.332 64.9 195.656C64.1259 194.937 63.0562 194.583 61.691 194.595C60.795 194.602 59.899 194.61 59.0031 194.617C58.1071 194.625 57.2111 194.632 56.3151 194.64C56.3262 195.963 56.3373 197.285 56.3484 198.608C56.3595 199.93 56.3706 201.253 56.3816 202.576C57.2776 202.568 58.1736 202.561 59.0695 202.553C59.9655 202.546 60.8615 202.538 61.7574 202.531C63.1227 202.519 64.1863 202.148 64.9482 201.416C65.7528 200.684 66.1499 199.699 66.1395 198.462ZM79.3559 212.176C81.5144 204.989 83.6722 197.718 85.8293 190.361C88.0291 183.003 90.2083 175.731 92.3668 168.545C94.884 168.524 97.4226 168.503 99.9825 168.481C102.585 168.459 105.145 168.438 107.662 168.417C109.941 175.566 112.22 182.8 114.5 190.12C116.823 197.44 119.124 204.674 121.402 211.823C119.568 211.839 117.691 211.854 115.771 211.87C113.893 211.886 112.016 211.902 110.139 211.918C109.701 210.556 109.284 209.194 108.889 207.832C108.493 206.427 108.076 205.044 107.638 203.682C105.206 203.703 102.753 203.723 100.278 203.744C97.8461 203.764 95.4141 203.785 92.9822 203.805C92.567 205.174 92.1733 206.564 91.8011 207.975C91.4286 209.344 91.0347 210.712 90.6195 212.081C88.7849 212.097 86.9076 212.112 84.9877 212.128C83.1104 212.144 81.2331 212.16 79.3559 212.176ZM95.7182 194.246C97.2115 194.233 98.7048 194.221 100.198 194.208C101.734 194.195 103.249 194.183 104.742 194.17C103.996 191.659 103.228 189.127 102.438 186.573C101.649 184.02 100.881 181.487 100.134 178.976C99.4302 181.5 98.6835 184.045 97.8943 186.611C97.1478 189.178 96.4224 191.722 95.7182 194.246ZM125.577 211.788C125.517 204.621 125.456 197.367 125.394 190.029C125.333 182.691 125.272 175.438 125.212 168.27C127.089 168.254 128.967 168.238 130.844 168.223C132.764 168.207 134.641 168.191 136.476 168.175C138.771 172.21 141.088 176.286 143.426 180.406C145.808 184.524 148.146 188.601 150.441 192.635C150.407 188.582 150.373 184.486 150.338 180.348C150.304 176.209 150.269 172.113 150.235 168.06C152.07 168.045 153.904 168.029 155.739 168.014C157.574 167.999 159.408 167.983 161.243 167.968C161.303 175.136 161.364 182.389 161.425 189.727C161.487 197.066 161.547 204.319 161.607 211.486C159.773 211.502 157.896 211.517 155.976 211.534C154.098 211.549 152.221 211.565 150.344 211.581C148.049 207.546 145.71 203.47 143.329 199.351C140.991 195.232 138.674 191.155 136.378 187.121C136.412 191.174 136.447 195.27 136.481 199.408C136.516 203.547 136.55 207.643 136.584 211.696C134.75 211.711 132.915 211.727 131.081 211.742C129.246 211.758 127.411 211.773 125.577 211.788ZM205.066 208.818C200.643 210.647 196.514 211.706 192.676 211.994C188.881 212.325 185.444 212.012 182.364 211.056C179.283 210.058 176.646 208.544 174.453 206.515C172.26 204.485 170.576 202.067 169.4 199.261C168.225 196.454 167.623 193.387 167.595 190.059C167.568 186.774 168.076 183.741 169.119 180.958C170.162 178.134 171.699 175.689 173.73 173.623C175.803 171.558 178.307 169.937 181.241 168.76C184.175 167.584 187.52 167.001 191.275 167.012C195.029 166.981 199.152 167.629 203.644 168.957C203.659 170.749 203.674 172.562 203.689 174.397C203.704 176.188 203.719 177.98 203.734 179.772C200.181 178.394 196.889 177.611 193.858 177.423C190.87 177.235 188.249 177.577 185.995 178.449C183.783 179.321 182.045 180.701 180.781 182.589C179.559 184.434 178.96 186.743 178.983 189.516C179.003 191.948 179.469 194.099 180.381 195.969C181.335 197.838 182.649 199.299 184.322 200.352C185.995 201.404 187.898 201.922 190.031 201.904C190.757 201.898 191.482 201.87 192.207 201.822C192.931 201.73 193.634 201.596 194.315 201.42C194.306 200.311 194.297 199.18 194.287 198.028C194.277 196.876 194.268 195.746 194.258 194.636C193.064 194.646 191.869 194.656 190.675 194.666C189.48 194.676 188.285 194.686 187.091 194.696C187.077 193.118 187.064 191.539 187.051 189.96C187.037 188.339 187.024 186.739 187.011 185.161C189.955 185.136 192.92 185.111 195.907 185.086C198.936 185.061 201.922 185.036 204.866 185.011C204.899 188.936 204.932 192.904 204.966 196.915C205 200.925 205.033 204.893 205.066 208.818Z" fill="#FFDE59"/>
</svg>
