<svg xmlns="http://www.w3.org/2000/svg" xmlns:xlink="http://www.w3.org/1999/xlink" width="1920" zoomAndPan="magnify" viewBox="0 0 1440 809.999993" height="1080" preserveAspectRatio="xMidYMid meet" version="1.0"><defs><clipPath id="8c584c36e6"><path d="M 598.5 283.5 L 841.5 283.5 L 841.5 526.5 L 598.5 526.5 Z M 598.5 283.5 " clip-rule="nonzero"/></clipPath><clipPath id="495d1992b1"><path d="M 720 283.5 C 652.898438 283.5 598.5 337.898438 598.5 405 C 598.5 472.101562 652.898438 526.5 720 526.5 C 787.101562 526.5 841.5 472.101562 841.5 405 C 841.5 337.898438 787.101562 283.5 720 283.5 Z M 720 283.5 " clip-rule="nonzero"/></clipPath><clipPath id="41758f8ec8"><path d="M 0.5 0.5 L 243.5 0.5 L 243.5 243.5 L 0.5 243.5 Z M 0.5 0.5 " clip-rule="nonzero"/></clipPath><clipPath id="14a9caecac"><path d="M 122 0.5 C 54.898438 0.5 0.5 54.898438 0.5 122 C 0.5 189.101562 54.898438 243.5 122 243.5 C 189.101562 243.5 243.5 189.101562 243.5 122 C 243.5 54.898438 189.101562 0.5 122 0.5 Z M 122 0.5 " clip-rule="nonzero"/></clipPath><clipPath id="04af945e2a"><rect x="0" width="244" y="0" height="244"/></clipPath></defs><g clip-path="url(#8c584c36e6)"><g clip-path="url(#495d1992b1)"><g transform="matrix(1, 0, 0, 1, 598, 283)"><g clip-path="url(#04af945e2a)"><g clip-path="url(#41758f8ec8)"><g clip-path="url(#14a9caecac)"><path fill="#ffffff" d="M 0.5 0.5 L 243.5 0.5 L 243.5 243.5 L 0.5 243.5 Z M 0.5 0.5 " fill-opacity="1" fill-rule="nonzero"/></g></g></g></g><path stroke-linecap="butt" transform="matrix(0.75, 0, 0, 0.75, 598.499976, 283.500006)" fill="none" stroke-linejoin="miter" d="M 162.00004 -0.00000765 C 72.531285 -0.00000765 0.00003185 72.531246 0.00003185 162.000001 C 0.00003185 251.468755 72.531285 324.000009 162.00004 324.000009 C 251.468795 324.000009 324.000048 251.468755 324.000048 162.000001 C 324.000048 72.531246 251.468795 -0.00000765 162.00004 -0.00000765 Z M 162.00004 -0.00000765 " stroke="#000000" stroke-width="44" stroke-opacity="1" stroke-miterlimit="4"/></g></g></svg>