<svg xmlns="http://www.w3.org/2000/svg" xmlns:xlink="http://www.w3.org/1999/xlink" width="1920" zoomAndPan="magnify" viewBox="0 0 1440 809.999993" height="1080" preserveAspectRatio="xMidYMid meet" version="1.0"><defs><clipPath id="ca92766e23"><path d="M 694.902344 230.917969 L 937.902344 230.917969 L 937.902344 473.917969 L 694.902344 473.917969 Z M 694.902344 230.917969 " clip-rule="nonzero"/></clipPath><clipPath id="ebedd99d4d"><path d="M 816.402344 230.917969 C 749.300781 230.917969 694.902344 285.316406 694.902344 352.417969 C 694.902344 419.523438 749.300781 473.917969 816.402344 473.917969 C 883.507812 473.917969 937.902344 419.523438 937.902344 352.417969 C 937.902344 285.316406 883.507812 230.917969 816.402344 230.917969 Z M 816.402344 230.917969 " clip-rule="nonzero"/></clipPath><clipPath id="4fc4ec53ab"><path d="M 0.902344 0.917969 L 243.902344 0.917969 L 243.902344 243.917969 L 0.902344 243.917969 Z M 0.902344 0.917969 " clip-rule="nonzero"/></clipPath><clipPath id="1d96cc8e84"><path d="M 122.402344 0.917969 C 55.300781 0.917969 0.902344 55.316406 0.902344 122.417969 C 0.902344 189.523438 55.300781 243.917969 122.402344 243.917969 C 189.507812 243.917969 243.902344 189.523438 243.902344 122.417969 C 243.902344 55.316406 189.507812 0.917969 122.402344 0.917969 Z M 122.402344 0.917969 " clip-rule="nonzero"/></clipPath><clipPath id="d1355232ab"><rect x="0" width="244" y="0" height="244"/></clipPath></defs><g clip-path="url(#ca92766e23)"><g clip-path="url(#ebedd99d4d)"><g transform="matrix(1, 0, 0, 1, 694, 230)"><g clip-path="url(#d1355232ab)"><g clip-path="url(#4fc4ec53ab)"><g clip-path="url(#1d96cc8e84)"><path fill="#600457" d="M 0.902344 0.917969 L 243.902344 0.917969 L 243.902344 243.917969 L 0.902344 243.917969 Z M 0.902344 0.917969 " fill-opacity="1" fill-rule="nonzero"/></g></g></g></g><path stroke-linecap="butt" transform="matrix(0.75, 0, 0, 0.75, 694.903915, 230.918915)" fill="none" stroke-linejoin="miter" d="M 161.997913 -0.00126138 C 72.529158 -0.00126138 -0.00209535 72.529992 -0.00209535 161.998747 C -0.00209535 251.47271 72.529158 323.998755 161.997913 323.998755 C 251.471876 323.998755 323.997921 251.47271 323.997921 161.998747 C 323.997921 72.529992 251.471876 -0.00126138 161.997913 -0.00126138 Z M 161.997913 -0.00126138 " stroke="#000000" stroke-width="44" stroke-opacity="1" stroke-miterlimit="4"/></g></g></svg>