<svg xmlns="http://www.w3.org/2000/svg" xmlns:xlink="http://www.w3.org/1999/xlink" width="1920" zoomAndPan="magnify" viewBox="0 0 1440 809.999993" height="1080" preserveAspectRatio="xMidYMid meet" version="1.0"><defs><clipPath id="2ae257d45c"><path d="M 747.28125 230.917969 L 990.28125 230.917969 L 990.28125 473.917969 L 747.28125 473.917969 Z M 747.28125 230.917969 " clip-rule="nonzero"/></clipPath><clipPath id="eda6380a44"><path d="M 868.78125 230.917969 C 801.679688 230.917969 747.28125 285.316406 747.28125 352.417969 C 747.28125 419.523438 801.679688 473.917969 868.78125 473.917969 C 935.886719 473.917969 990.28125 419.523438 990.28125 352.417969 C 990.28125 285.316406 935.886719 230.917969 868.78125 230.917969 Z M 868.78125 230.917969 " clip-rule="nonzero"/></clipPath><clipPath id="b264056b13"><path d="M 0.28125 0.917969 L 243.28125 0.917969 L 243.28125 243.917969 L 0.28125 243.917969 Z M 0.28125 0.917969 " clip-rule="nonzero"/></clipPath><clipPath id="77ef97a68d"><path d="M 121.78125 0.917969 C 54.679688 0.917969 0.28125 55.316406 0.28125 122.417969 C 0.28125 189.523438 54.679688 243.917969 121.78125 243.917969 C 188.886719 243.917969 243.28125 189.523438 243.28125 122.417969 C 243.28125 55.316406 188.886719 0.917969 121.78125 0.917969 Z M 121.78125 0.917969 " clip-rule="nonzero"/></clipPath><clipPath id="e8555dde37"><rect x="0" width="244" y="0" height="244"/></clipPath></defs><g clip-path="url(#2ae257d45c)"><g clip-path="url(#eda6380a44)"><g transform="matrix(1, 0, 0, 1, 747, 230)"><g clip-path="url(#e8555dde37)"><g clip-path="url(#b264056b13)"><g clip-path="url(#77ef97a68d)"><path fill="#e16c02" d="M 0.28125 0.917969 L 243.28125 0.917969 L 243.28125 243.917969 L 0.28125 243.917969 Z M 0.28125 0.917969 " fill-opacity="1" fill-rule="nonzero"/></g></g></g></g><path stroke-linecap="butt" transform="matrix(0.75, 0, 0, 0.75, 747.282977, 230.918915)" fill="none" stroke-linejoin="miter" d="M 161.997706 -0.00126138 C 72.528951 -0.00126138 -0.00230217 72.529992 -0.00230217 161.998747 C -0.00230217 251.47271 72.528951 323.998755 161.997706 323.998755 C 251.471669 323.998755 323.997714 251.47271 323.997714 161.998747 C 323.997714 72.529992 251.471669 -0.00126138 161.997706 -0.00126138 Z M 161.997706 -0.00126138 " stroke="#000000" stroke-width="44" stroke-opacity="1" stroke-miterlimit="4"/></g></g></svg>