<svg xmlns="http://www.w3.org/2000/svg" xmlns:xlink="http://www.w3.org/1999/xlink" width="1920" zoomAndPan="magnify" viewBox="0 0 1440 809.999993" height="1080" preserveAspectRatio="xMidYMid meet" version="1.0"><defs><clipPath id="ffa2ea352a"><path d="M 610.5 295.5 L 853.5 295.5 L 853.5 538.5 L 610.5 538.5 Z M 610.5 295.5 " clip-rule="nonzero"/></clipPath><clipPath id="c49b2b5984"><path d="M 732 295.5 C 664.898438 295.5 610.5 349.898438 610.5 417 C 610.5 484.101562 664.898438 538.5 732 538.5 C 799.101562 538.5 853.5 484.101562 853.5 417 C 853.5 349.898438 799.101562 295.5 732 295.5 Z M 732 295.5 " clip-rule="nonzero"/></clipPath><clipPath id="a48c774876"><path d="M 0.5 0.5 L 243.5 0.5 L 243.5 243.5 L 0.5 243.5 Z M 0.5 0.5 " clip-rule="nonzero"/></clipPath><clipPath id="f820379791"><path d="M 122 0.5 C 54.898438 0.5 0.5 54.898438 0.5 122 C 0.5 189.101562 54.898438 243.5 122 243.5 C 189.101562 243.5 243.5 189.101562 243.5 122 C 243.5 54.898438 189.101562 0.5 122 0.5 Z M 122 0.5 " clip-rule="nonzero"/></clipPath><clipPath id="09bf89b9c7"><rect x="0" width="244" y="0" height="244"/></clipPath></defs><g clip-path="url(#ffa2ea352a)"><g clip-path="url(#c49b2b5984)"><g transform="matrix(1, 0, 0, 1, 610, 295)"><g clip-path="url(#09bf89b9c7)"><g clip-path="url(#a48c774876)"><g clip-path="url(#f820379791)"><path fill="#124a9d" d="M 0.5 0.5 L 243.5 0.5 L 243.5 243.5 L 0.5 243.5 Z M 0.5 0.5 " fill-opacity="1" fill-rule="nonzero"/></g></g></g></g><path stroke-linecap="butt" transform="matrix(0.75, 0, 0, 0.75, 610.499976, 295.500005)" fill="none" stroke-linejoin="miter" d="M 162.000041 -0.00000684506 C 72.531286 -0.00000684506 0.0000326549 72.531247 0.0000326549 162.000001 C 0.0000326549 251.468756 72.531286 324.000009 162.000041 324.000009 C 251.468795 324.000009 324.000049 251.468756 324.000049 162.000001 C 324.000049 72.531247 251.468795 -0.00000684506 162.000041 -0.00000684506 Z M 162.000041 -0.00000684506 " stroke="#000000" stroke-width="44" stroke-opacity="1" stroke-miterlimit="4"/></g></g></svg>