<svg xmlns="http://www.w3.org/2000/svg" xmlns:xlink="http://www.w3.org/1999/xlink" width="1920" zoomAndPan="magnify" viewBox="0 0 1440 809.999993" height="1080" preserveAspectRatio="xMidYMid meet" version="1.0"><defs><clipPath id="2a087f8009"><path d="M 531.816406 216.816406 L 909.164062 216.816406 L 909.164062 594.164062 L 531.816406 594.164062 Z M 531.816406 216.816406 " clip-rule="nonzero"/></clipPath><clipPath id="fbc2610628"><path d="M 720.492188 216.816406 C 616.289062 216.816406 531.816406 301.289062 531.816406 405.492188 C 531.816406 509.691406 616.289062 594.164062 720.492188 594.164062 C 824.691406 594.164062 909.164062 509.691406 909.164062 405.492188 C 909.164062 301.289062 824.691406 216.816406 720.492188 216.816406 Z M 720.492188 216.816406 " clip-rule="nonzero"/></clipPath><clipPath id="41c489343a"><path d="M 0.816406 0.816406 L 378.164062 0.816406 L 378.164062 378.164062 L 0.816406 378.164062 Z M 0.816406 0.816406 " clip-rule="nonzero"/></clipPath><clipPath id="0b9f485ef7"><path d="M 189.492188 0.816406 C 85.289062 0.816406 0.816406 85.289062 0.816406 189.492188 C 0.816406 293.691406 85.289062 378.164062 189.492188 378.164062 C 293.691406 378.164062 378.164062 293.691406 378.164062 189.492188 C 378.164062 85.289062 293.691406 0.816406 189.492188 0.816406 Z M 189.492188 0.816406 " clip-rule="nonzero"/></clipPath><clipPath id="0b65a7de04"><rect x="0" width="379" y="0" height="379"/></clipPath><clipPath id="086e378038"><path d="M 609 288 L 831.949219 288 L 831.949219 522 L 609 522 Z M 609 288 " clip-rule="nonzero"/></clipPath><clipPath id="e627b45bf8"><path d="M 531.816406 216.328125 L 909.066406 216.328125 L 909.066406 593.578125 L 531.816406 593.578125 Z M 531.816406 216.328125 " clip-rule="nonzero"/></clipPath><clipPath id="330aa87741"><path d="M 720.488281 216.328125 C 616.289062 216.328125 531.816406 300.796875 531.816406 405 C 531.816406 509.199219 616.289062 593.671875 720.488281 593.671875 C 824.6875 593.671875 909.160156 509.199219 909.160156 405 C 909.160156 300.796875 824.6875 216.328125 720.488281 216.328125 Z M 720.488281 216.328125 " clip-rule="nonzero"/></clipPath></defs><g clip-path="url(#2a087f8009)"><g clip-path="url(#fbc2610628)"><g transform="matrix(1, 0, 0, 1, 531, 216)"><g clip-path="url(#0b65a7de04)"><g clip-path="url(#41c489343a)"><g clip-path="url(#0b9f485ef7)"><path fill="#eac836" d="M 0.816406 0.816406 L 378.164062 0.816406 L 378.164062 378.164062 L 0.816406 378.164062 Z M 0.816406 0.816406 " fill-opacity="1" fill-rule="nonzero"/></g></g></g></g></g></g><g clip-path="url(#086e378038)"><path fill="#000000" d="M 702.863281 288.625 C 697.296875 288.625 692.539062 292.5625 691.46875 298.027344 L 687.589844 317.96875 C 678.050781 321.578125 669.234375 326.621094 661.492188 332.980469 L 642.382812 326.394531 C 637.121094 324.582031 631.328125 326.757812 628.539062 331.574219 L 611.019531 361.964844 C 608.242188 366.789062 609.253906 372.914062 613.449219 376.566406 L 628.765625 389.898438 C 627.96875 394.800781 627.449219 399.785156 627.449219 404.910156 C 627.449219 410.035156 627.96875 415.023438 628.765625 419.925781 L 613.449219 433.257812 C 609.253906 436.910156 608.242188 443.035156 611.019531 447.859375 L 628.539062 478.25 C 631.316406 483.078125 637.121094 485.253906 642.382812 483.453125 L 661.492188 476.863281 C 669.230469 483.222656 678.054688 488.246094 687.589844 491.855469 L 691.46875 511.796875 C 692.539062 517.261719 697.296875 521.199219 702.863281 521.199219 L 737.945312 521.199219 C 743.511719 521.199219 748.269531 517.261719 749.339844 511.796875 L 753.21875 491.855469 C 762.753906 488.246094 771.574219 483.203125 779.316406 476.84375 L 798.425781 483.429688 C 803.6875 485.242188 809.480469 483.078125 812.269531 478.25 L 829.789062 447.839844 C 832.5625 443.011719 831.554688 436.910156 827.359375 433.257812 L 812.039062 419.925781 C 812.835938 415.023438 813.355469 410.035156 813.355469 404.910156 C 813.355469 399.785156 812.835938 394.800781 812.039062 389.898438 L 827.359375 376.566406 C 831.554688 372.914062 832.5625 366.789062 829.789062 361.964844 L 812.269531 331.574219 C 809.492188 326.746094 803.6875 324.570312 798.425781 326.371094 L 779.316406 332.960938 C 771.574219 326.601562 762.75 321.578125 753.21875 317.96875 L 749.339844 298.027344 C 748.269531 292.5625 743.511719 288.625 737.945312 288.625 Z M 720.402344 358.398438 C 746.070312 358.398438 766.878906 379.222656 766.878906 404.910156 C 766.878906 430.601562 746.070312 451.425781 720.402344 451.425781 C 694.738281 451.425781 673.925781 430.601562 673.925781 404.910156 C 673.925781 379.222656 694.738281 358.398438 720.402344 358.398438 Z M 720.402344 358.398438 " fill-opacity="1" fill-rule="nonzero"/></g><g clip-path="url(#e627b45bf8)"><g clip-path="url(#330aa87741)"><path stroke-linecap="butt" transform="matrix(0.75, 0, 0, 0.75, 531.816843, 216.326582)" fill="none" stroke-linejoin="miter" d="M 251.56193 0.00205744 C 112.629631 0.00205744 -0.000582956 112.627063 -0.000582956 251.56457 C -0.000582956 390.496869 112.629631 503.127083 251.56193 503.127083 C 390.494228 503.127083 503.124442 390.496869 503.124442 251.56457 C 503.124442 112.627063 390.494228 0.00205744 251.56193 0.00205744 Z M 251.56193 0.00205744 " stroke="#000000" stroke-width="48" stroke-opacity="1" stroke-miterlimit="4"/></g></g></svg>