<svg xmlns="http://www.w3.org/2000/svg" xmlns:xlink="http://www.w3.org/1999/xlink" width="1920" zoomAndPan="magnify" viewBox="0 0 1440 809.999993" height="1080" preserveAspectRatio="xMidYMid meet" version="1.0"><defs><g/><clipPath id="3342334615"><path d="M 592.523438 332.078125 L 789.71875 332.078125 L 789.71875 433.445312 L 592.523438 433.445312 Z M 592.523438 332.078125 " clip-rule="nonzero"/></clipPath><clipPath id="de4fede389"><path d="M 616.523438 332.078125 L 765.703125 332.078125 C 772.066406 332.078125 778.171875 334.605469 782.671875 339.105469 C 787.175781 343.609375 789.703125 349.710938 789.703125 356.078125 L 789.703125 409.445312 C 789.703125 415.8125 787.175781 421.914062 782.671875 426.417969 C 778.171875 430.917969 772.066406 433.445312 765.703125 433.445312 L 616.523438 433.445312 C 610.160156 433.445312 604.054688 430.917969 599.554688 426.417969 C 595.054688 421.914062 592.523438 415.8125 592.523438 409.445312 L 592.523438 356.078125 C 592.523438 349.710938 595.054688 343.609375 599.554688 339.105469 C 604.054688 334.605469 610.160156 332.078125 616.523438 332.078125 Z M 616.523438 332.078125 " clip-rule="nonzero"/></clipPath><clipPath id="7c66f00f6f"><path d="M 0.523438 0.078125 L 197.71875 0.078125 L 197.71875 101.445312 L 0.523438 101.445312 Z M 0.523438 0.078125 " clip-rule="nonzero"/></clipPath><clipPath id="f441d5502d"><path d="M 24.523438 0.078125 L 173.703125 0.078125 C 180.066406 0.078125 186.171875 2.605469 190.671875 7.105469 C 195.175781 11.609375 197.703125 17.710938 197.703125 24.078125 L 197.703125 77.445312 C 197.703125 83.8125 195.175781 89.914062 190.671875 94.417969 C 186.171875 98.917969 180.066406 101.445312 173.703125 101.445312 L 24.523438 101.445312 C 18.160156 101.445312 12.054688 98.917969 7.554688 94.417969 C 3.054688 89.914062 0.523438 83.8125 0.523438 77.445312 L 0.523438 24.078125 C 0.523438 17.710938 3.054688 11.609375 7.554688 7.105469 C 12.054688 2.605469 18.160156 0.078125 24.523438 0.078125 Z M 24.523438 0.078125 " clip-rule="nonzero"/></clipPath><clipPath id="dd6361970a"><rect x="0" width="198" y="0" height="102"/></clipPath><clipPath id="9a04880402"><path d="M 592.523438 332.078125 L 789.773438 332.078125 L 789.773438 433.328125 L 592.523438 433.328125 Z M 592.523438 332.078125 " clip-rule="nonzero"/></clipPath><clipPath id="826ee8cd18"><path d="M 616.523438 332.078125 L 765.695312 332.078125 C 772.058594 332.078125 778.164062 334.605469 782.664062 339.109375 C 787.164062 343.609375 789.691406 349.710938 789.691406 356.078125 L 789.691406 409.445312 C 789.691406 415.808594 787.164062 421.914062 782.664062 426.414062 C 778.164062 430.914062 772.058594 433.441406 765.695312 433.441406 L 616.523438 433.441406 C 610.160156 433.441406 604.054688 430.914062 599.554688 426.414062 C 595.054688 421.914062 592.523438 415.808594 592.523438 409.445312 L 592.523438 356.078125 C 592.523438 349.710938 595.054688 343.609375 599.554688 339.109375 C 604.054688 334.605469 610.160156 332.078125 616.523438 332.078125 Z M 616.523438 332.078125 " clip-rule="nonzero"/></clipPath></defs><g clip-path="url(#3342334615)"><g clip-path="url(#de4fede389)"><g transform="matrix(1, 0, 0, 1, 592, 332)"><g clip-path="url(#dd6361970a)"><g clip-path="url(#7c66f00f6f)"><g clip-path="url(#f441d5502d)"><path fill="#ffffff" d="M 0.523438 0.078125 L 197.71875 0.078125 L 197.71875 101.445312 L 0.523438 101.445312 Z M 0.523438 0.078125 " fill-opacity="1" fill-rule="nonzero"/></g></g></g></g></g></g><g clip-path="url(#9a04880402)"><g clip-path="url(#826ee8cd18)"><path stroke-linecap="butt" transform="matrix(0.75, 0, 0, 0.75, 592.525176, 332.078967)" fill="none" stroke-linejoin="miter" d="M 31.997683 -0.00112306 L 230.893526 -0.00112306 C 239.377902 -0.00112306 247.518527 3.368669 253.518528 9.373877 C 259.518528 15.373878 262.88832 23.509295 262.88832 31.998879 L 262.88832 103.155132 C 262.88832 111.639508 259.518528 119.780133 253.518528 125.780133 C 247.518527 131.780134 239.377902 135.149925 230.893526 135.149925 L 31.997683 135.149925 C 23.513308 135.149925 15.372682 131.780134 9.372682 125.780133 C 3.372682 119.780133 -0.00231855 111.639508 -0.00231855 103.155132 L -0.00231855 31.998879 C -0.00231855 23.509295 3.372682 15.373878 9.372682 9.373877 C 15.372682 3.368669 23.513308 -0.00112306 31.997683 -0.00112306 Z M 31.997683 -0.00112306 " stroke="#000000" stroke-width="16" stroke-opacity="1" stroke-miterlimit="4"/></g></g><g fill="#000000" fill-opacity="1"><g transform="translate(603.892363, 398.077118)"><g><path d="M 9.65625 -15.125 L 11.640625 -15.125 C 13.503906 -15.125 14.894531 -15.488281 15.8125 -16.21875 C 16.738281 -16.957031 17.203125 -18.03125 17.203125 -19.4375 C 17.203125 -20.851562 16.816406 -21.898438 16.046875 -22.578125 C 15.273438 -23.253906 14.0625 -23.59375 12.40625 -23.59375 L 9.65625 -23.59375 Z M 23.328125 -19.65625 C 23.328125 -16.582031 22.363281 -14.226562 20.4375 -12.59375 C 18.519531 -10.96875 15.789062 -10.15625 12.25 -10.15625 L 9.65625 -10.15625 L 9.65625 0 L 3.59375 0 L 3.59375 -28.5625 L 12.71875 -28.5625 C 16.175781 -28.5625 18.804688 -27.8125 20.609375 -26.3125 C 22.421875 -24.820312 23.328125 -22.601562 23.328125 -19.65625 Z M 23.328125 -19.65625 "/></g></g></g><g fill="#000000" fill-opacity="1"><g transform="translate(629.007097, 398.077118)"><g><path d="M 12.171875 -18.015625 C 10.910156 -18.015625 9.921875 -17.613281 9.203125 -16.8125 C 8.484375 -16.007812 8.070312 -14.875 7.96875 -13.40625 L 16.328125 -13.40625 C 16.304688 -14.875 15.921875 -16.007812 15.171875 -16.8125 C 14.429688 -17.613281 13.429688 -18.015625 12.171875 -18.015625 Z M 13.015625 0.390625 C 9.492188 0.390625 6.742188 -0.578125 4.765625 -2.515625 C 2.785156 -4.460938 1.796875 -7.210938 1.796875 -10.765625 C 1.796875 -14.421875 2.707031 -17.25 4.53125 -19.25 C 6.363281 -21.25 8.894531 -22.25 12.125 -22.25 C 15.21875 -22.25 17.625 -21.367188 19.34375 -19.609375 C 21.0625 -17.847656 21.921875 -15.421875 21.921875 -12.328125 L 21.921875 -9.4375 L 7.828125 -9.4375 C 7.898438 -7.738281 8.40625 -6.414062 9.34375 -5.46875 C 10.28125 -4.519531 11.59375 -4.046875 13.28125 -4.046875 C 14.59375 -4.046875 15.832031 -4.179688 17 -4.453125 C 18.175781 -4.722656 19.40625 -5.160156 20.6875 -5.765625 L 20.6875 -1.15625 C 19.644531 -0.632812 18.53125 -0.25 17.34375 0 C 16.15625 0.257812 14.710938 0.390625 13.015625 0.390625 Z M 13.015625 0.390625 "/></g></g></g><g fill="#000000" fill-opacity="1"><g transform="translate(652.6376, 398.077118)"><g><path d="M 12.171875 -4.28125 C 13.679688 -4.28125 14.785156 -4.710938 15.484375 -5.578125 C 16.191406 -6.441406 16.578125 -7.957031 16.640625 -10.125 L 16.640625 -10.84375 C 16.640625 -13.1875 16.273438 -14.863281 15.546875 -15.875 C 14.828125 -16.894531 13.671875 -17.40625 12.078125 -17.40625 C 9.273438 -17.40625 7.875 -15.203125 7.875 -10.796875 C 7.875 -8.609375 8.222656 -6.972656 8.921875 -5.890625 C 9.617188 -4.816406 10.703125 -4.28125 12.171875 -4.28125 Z M 10.046875 0.390625 C 7.460938 0.390625 5.441406 -0.597656 3.984375 -2.578125 C 2.523438 -4.566406 1.796875 -7.332031 1.796875 -10.875 C 1.796875 -14.445312 2.539062 -17.234375 4.03125 -19.234375 C 5.519531 -21.242188 7.5625 -22.25 10.15625 -22.25 C 11.539062 -22.25 12.742188 -21.988281 13.765625 -21.46875 C 14.796875 -20.945312 15.703125 -20.140625 16.484375 -19.046875 L 16.640625 -19.046875 L 17.171875 -21.84375 L 22.203125 -21.84375 L 22.203125 9.609375 L 16.234375 9.609375 L 16.234375 0.453125 C 16.234375 -0.347656 16.316406 -1.441406 16.484375 -2.828125 L 16.234375 -2.828125 C 15.597656 -1.773438 14.75 -0.972656 13.6875 -0.421875 C 12.632812 0.117188 11.421875 0.390625 10.046875 0.390625 Z M 10.046875 0.390625 "/></g></g></g><g fill="#000000" fill-opacity="1"><g transform="translate(677.947627, 398.077118)"><g><path d="M 18.59375 0 L 17.796875 -2.796875 L 17.484375 -2.796875 C 16.847656 -1.773438 15.941406 -0.988281 14.765625 -0.4375 C 13.597656 0.113281 12.265625 0.390625 10.765625 0.390625 C 8.203125 0.390625 6.269531 -0.296875 4.96875 -1.671875 C 3.664062 -3.046875 3.015625 -5.019531 3.015625 -7.59375 L 3.015625 -21.84375 L 8.96875 -21.84375 L 8.96875 -9.078125 C 8.96875 -7.503906 9.242188 -6.320312 9.796875 -5.53125 C 10.359375 -4.75 11.253906 -4.359375 12.484375 -4.359375 C 14.148438 -4.359375 15.351562 -4.914062 16.09375 -6.03125 C 16.832031 -7.144531 17.203125 -8.988281 17.203125 -11.5625 L 17.203125 -21.84375 L 23.171875 -21.84375 L 23.171875 0 Z M 18.59375 0 "/></g></g></g><g fill="#000000" fill-opacity="1"><g transform="translate(704.23412, 398.077118)"><g><path d="M 12.171875 -18.015625 C 10.910156 -18.015625 9.921875 -17.613281 9.203125 -16.8125 C 8.484375 -16.007812 8.070312 -14.875 7.96875 -13.40625 L 16.328125 -13.40625 C 16.304688 -14.875 15.921875 -16.007812 15.171875 -16.8125 C 14.429688 -17.613281 13.429688 -18.015625 12.171875 -18.015625 Z M 13.015625 0.390625 C 9.492188 0.390625 6.742188 -0.578125 4.765625 -2.515625 C 2.785156 -4.460938 1.796875 -7.210938 1.796875 -10.765625 C 1.796875 -14.421875 2.707031 -17.25 4.53125 -19.25 C 6.363281 -21.25 8.894531 -22.25 12.125 -22.25 C 15.21875 -22.25 17.625 -21.367188 19.34375 -19.609375 C 21.0625 -17.847656 21.921875 -15.421875 21.921875 -12.328125 L 21.921875 -9.4375 L 7.828125 -9.4375 C 7.898438 -7.738281 8.40625 -6.414062 9.34375 -5.46875 C 10.28125 -4.519531 11.59375 -4.046875 13.28125 -4.046875 C 14.59375 -4.046875 15.832031 -4.179688 17 -4.453125 C 18.175781 -4.722656 19.40625 -5.160156 20.6875 -5.765625 L 20.6875 -1.15625 C 19.644531 -0.632812 18.53125 -0.25 17.34375 0 C 16.15625 0.257812 14.710938 0.390625 13.015625 0.390625 Z M 13.015625 0.390625 "/></g></g></g><g fill="#000000" fill-opacity="1"><g transform="translate(727.864623, 398.077118)"><g><path d="M 23.28125 0 L 17.328125 0 L 17.328125 -12.75 C 17.328125 -14.332031 17.046875 -15.515625 16.484375 -16.296875 C 15.921875 -17.085938 15.03125 -17.484375 13.8125 -17.484375 C 12.144531 -17.484375 10.9375 -16.925781 10.1875 -15.8125 C 9.445312 -14.695312 9.078125 -12.851562 9.078125 -10.28125 L 9.078125 0 L 3.125 0 L 3.125 -21.84375 L 7.671875 -21.84375 L 8.484375 -19.046875 L 8.8125 -19.046875 C 9.476562 -20.097656 10.390625 -20.894531 11.546875 -21.4375 C 12.710938 -21.976562 14.039062 -22.25 15.53125 -22.25 C 18.070312 -22.25 20 -21.5625 21.3125 -20.1875 C 22.625 -18.8125 23.28125 -16.828125 23.28125 -14.234375 Z M 23.28125 0 "/></g></g></g><g fill="#000000" fill-opacity="1"><g transform="translate(754.151117, 398.077118)"><g><path d="M 17 0 L 15.84375 -2.96875 L 15.6875 -2.96875 C 14.6875 -1.707031 13.65625 -0.832031 12.59375 -0.34375 C 11.53125 0.144531 10.144531 0.390625 8.4375 0.390625 C 6.34375 0.390625 4.691406 -0.207031 3.484375 -1.40625 C 2.285156 -2.601562 1.6875 -4.3125 1.6875 -6.53125 C 1.6875 -8.84375 2.492188 -10.546875 4.109375 -11.640625 C 5.734375 -12.742188 8.179688 -13.359375 11.453125 -13.484375 L 15.234375 -13.59375 L 15.234375 -14.546875 C 15.234375 -16.765625 14.101562 -17.875 11.84375 -17.875 C 10.09375 -17.875 8.039062 -17.347656 5.6875 -16.296875 L 3.71875 -20.3125 C 6.226562 -21.625 9.015625 -22.28125 12.078125 -22.28125 C 15.003906 -22.28125 17.25 -21.640625 18.8125 -20.359375 C 20.375 -19.085938 21.15625 -17.148438 21.15625 -14.546875 L 21.15625 0 Z M 15.234375 -10.125 L 12.9375 -10.046875 C 11.195312 -9.992188 9.90625 -9.679688 9.0625 -9.109375 C 8.21875 -8.535156 7.796875 -7.660156 7.796875 -6.484375 C 7.796875 -4.804688 8.757812 -3.96875 10.6875 -3.96875 C 12.0625 -3.96875 13.160156 -4.363281 13.984375 -5.15625 C 14.816406 -5.945312 15.234375 -7.003906 15.234375 -8.328125 Z M 15.234375 -10.125 "/></g></g></g></svg>