<svg xmlns="http://www.w3.org/2000/svg" xmlns:xlink="http://www.w3.org/1999/xlink" width="1920" zoomAndPan="magnify" viewBox="0 0 1440 809.999993" height="1080" preserveAspectRatio="xMidYMid meet" version="1.0"><defs><g/><clipPath id="37214d1faf"><path d="M 465 362.652344 L 975 362.652344 L 975 447.019531 L 465 447.019531 Z M 465 362.652344 " clip-rule="nonzero"/></clipPath><clipPath id="b03bf002e1"><path d="M 489.050781 362.980469 L 950.949219 362.980469 C 957.316406 362.980469 963.417969 365.511719 967.921875 370.011719 C 972.421875 374.511719 974.949219 380.617188 974.949219 386.980469 L 974.949219 423.019531 C 974.949219 429.382812 972.421875 435.488281 967.921875 439.988281 C 963.417969 444.488281 957.316406 447.019531 950.949219 447.019531 L 489.050781 447.019531 C 482.683594 447.019531 476.582031 444.488281 472.078125 439.988281 C 467.578125 435.488281 465.050781 429.382812 465.050781 423.019531 L 465.050781 386.980469 C 465.050781 380.617188 467.578125 374.511719 472.078125 370.011719 C 476.582031 365.511719 482.683594 362.980469 489.050781 362.980469 Z M 489.050781 362.980469 " clip-rule="nonzero"/></clipPath><clipPath id="bf8f8dfc20"><path d="M 0 0.878906 L 510 0.878906 L 510 85.019531 L 0 85.019531 Z M 0 0.878906 " clip-rule="nonzero"/></clipPath><clipPath id="356c891279"><path d="M 24.050781 0.980469 L 485.949219 0.980469 C 492.316406 0.980469 498.417969 3.511719 502.921875 8.011719 C 507.421875 12.511719 509.949219 18.617188 509.949219 24.980469 L 509.949219 61.019531 C 509.949219 67.382812 507.421875 73.488281 502.921875 77.988281 C 498.417969 82.488281 492.316406 85.019531 485.949219 85.019531 L 24.050781 85.019531 C 17.683594 85.019531 11.582031 82.488281 7.078125 77.988281 C 2.578125 73.488281 0.0507812 67.382812 0.0507812 61.019531 L 0.0507812 24.980469 C 0.0507812 18.617188 2.578125 12.511719 7.078125 8.011719 C 11.582031 3.511719 17.683594 0.980469 24.050781 0.980469 Z M 24.050781 0.980469 " clip-rule="nonzero"/></clipPath><clipPath id="dbdaad6c36"><rect x="0" width="510" y="0" height="86"/></clipPath><clipPath id="68b3d60d31"><path d="M 465.054688 362.980469 L 975 362.980469 L 975 446.980469 L 465.054688 446.980469 Z M 465.054688 362.980469 " clip-rule="nonzero"/></clipPath><clipPath id="25cdba0262"><path d="M 489.054688 362.980469 L 950.941406 362.980469 C 957.308594 362.980469 963.410156 365.511719 967.910156 370.011719 C 972.414062 374.511719 974.941406 380.617188 974.941406 386.980469 L 974.941406 423.015625 C 974.941406 429.382812 972.414062 435.488281 967.910156 439.988281 C 963.410156 444.488281 957.308594 447.015625 950.941406 447.015625 L 489.054688 447.015625 C 482.6875 447.015625 476.582031 444.488281 472.082031 439.988281 C 467.582031 435.488281 465.054688 429.382812 465.054688 423.015625 L 465.054688 386.980469 C 465.054688 380.617188 467.582031 374.511719 472.082031 370.011719 C 476.582031 365.511719 482.6875 362.980469 489.054688 362.980469 Z M 489.054688 362.980469 " clip-rule="nonzero"/></clipPath></defs><g clip-path="url(#37214d1faf)"><g clip-path="url(#b03bf002e1)"><g transform="matrix(1, 0, 0, 1, 465, 362)"><g clip-path="url(#dbdaad6c36)"><g clip-path="url(#bf8f8dfc20)"><g clip-path="url(#356c891279)"><path fill="#ffffff" d="M 0.0507812 0.980469 L 509.855469 0.980469 L 509.855469 85.019531 L 0.0507812 85.019531 Z M 0.0507812 0.980469 " fill-opacity="1" fill-rule="nonzero"/></g></g></g></g></g></g><g clip-path="url(#68b3d60d31)"><g clip-path="url(#25cdba0262)"><path stroke-linecap="butt" transform="matrix(0.75, 0, 0, 0.75, 465.053887, 362.981428)" fill="none" stroke-linejoin="miter" d="M 32.001069 -0.00127919 L 647.850058 -0.00127919 C 656.339642 -0.00127919 664.475059 3.373721 670.47506 9.373721 C 676.480268 15.373722 679.85006 23.514347 679.85006 31.998722 L 679.85006 80.0456 C 679.85006 88.535184 676.480268 96.675809 670.47506 102.675809 C 664.475059 108.67581 656.339642 112.045601 647.850058 112.045601 L 32.001069 112.045601 C 23.511485 112.045601 15.37086 108.67581 9.37086 102.675809 C 3.370859 96.675809 0.00106757 88.535184 0.00106757 80.0456 L 0.00106757 31.998722 C 0.00106757 23.514347 3.370859 15.373722 9.37086 9.373721 C 15.37086 3.373721 23.511485 -0.00127919 32.001069 -0.00127919 Z M 32.001069 -0.00127919 " stroke="#000000" stroke-width="16" stroke-opacity="1" stroke-miterlimit="4"/></g></g><g fill="#000000" fill-opacity="1"><g transform="translate(676.960436, 419.981425)"><g><path d="M 20.453125 -7.9375 C 20.453125 -5.351562 19.523438 -3.316406 17.671875 -1.828125 C 15.816406 -0.347656 13.234375 0.390625 9.921875 0.390625 C 6.878906 0.390625 4.1875 -0.179688 1.84375 -1.328125 L 1.84375 -6.953125 C 3.769531 -6.097656 5.398438 -5.492188 6.734375 -5.140625 C 8.066406 -4.785156 9.285156 -4.609375 10.390625 -4.609375 C 11.722656 -4.609375 12.742188 -4.863281 13.453125 -5.375 C 14.160156 -5.882812 14.515625 -6.640625 14.515625 -7.640625 C 14.515625 -8.203125 14.359375 -8.695312 14.046875 -9.125 C 13.734375 -9.5625 13.273438 -9.984375 12.671875 -10.390625 C 12.066406 -10.796875 10.832031 -11.441406 8.96875 -12.328125 C 7.21875 -13.148438 5.90625 -13.9375 5.03125 -14.6875 C 4.164062 -15.445312 3.472656 -16.328125 2.953125 -17.328125 C 2.429688 -18.328125 2.171875 -19.5 2.171875 -20.84375 C 2.171875 -23.363281 3.023438 -25.347656 4.734375 -26.796875 C 6.453125 -28.242188 8.820312 -28.96875 11.84375 -28.96875 C 13.320312 -28.96875 14.734375 -28.789062 16.078125 -28.4375 C 17.429688 -28.082031 18.84375 -27.585938 20.3125 -26.953125 L 18.359375 -22.25 C 16.835938 -22.875 15.578125 -23.304688 14.578125 -23.546875 C 13.585938 -23.796875 12.609375 -23.921875 11.640625 -23.921875 C 10.492188 -23.921875 9.613281 -23.65625 9 -23.125 C 8.394531 -22.59375 8.09375 -21.894531 8.09375 -21.03125 C 8.09375 -20.5 8.210938 -20.035156 8.453125 -19.640625 C 8.703125 -19.242188 9.097656 -18.859375 9.640625 -18.484375 C 10.179688 -18.117188 11.460938 -17.453125 13.484375 -16.484375 C 16.148438 -15.210938 17.976562 -13.929688 18.96875 -12.640625 C 19.957031 -11.359375 20.453125 -9.789062 20.453125 -7.9375 Z M 20.453125 -7.9375 "/></g></g></g><g fill="#000000" fill-opacity="1"><g transform="translate(698.989533, 419.981425)"><g><path d="M 7.875 -10.953125 C 7.875 -8.796875 8.226562 -7.160156 8.9375 -6.046875 C 9.644531 -4.941406 10.800781 -4.390625 12.40625 -4.390625 C 13.988281 -4.390625 15.128906 -4.941406 15.828125 -6.046875 C 16.523438 -7.148438 16.875 -8.785156 16.875 -10.953125 C 16.875 -13.117188 16.519531 -14.738281 15.8125 -15.8125 C 15.113281 -16.894531 13.960938 -17.4375 12.359375 -17.4375 C 10.773438 -17.4375 9.628906 -16.898438 8.921875 -15.828125 C 8.222656 -14.753906 7.875 -13.128906 7.875 -10.953125 Z M 22.96875 -10.953125 C 22.96875 -7.398438 22.03125 -4.617188 20.15625 -2.609375 C 18.28125 -0.609375 15.671875 0.390625 12.328125 0.390625 C 10.234375 0.390625 8.382812 -0.0664062 6.78125 -0.984375 C 5.175781 -1.898438 3.941406 -3.21875 3.078125 -4.9375 C 2.222656 -6.65625 1.796875 -8.660156 1.796875 -10.953125 C 1.796875 -14.523438 2.726562 -17.300781 4.59375 -19.28125 C 6.457031 -21.257812 9.070312 -22.25 12.4375 -22.25 C 14.539062 -22.25 16.390625 -21.789062 17.984375 -20.875 C 19.585938 -19.96875 20.816406 -18.660156 21.671875 -16.953125 C 22.535156 -15.242188 22.96875 -13.242188 22.96875 -10.953125 Z M 22.96875 -10.953125 "/></g></g></g><g fill="#000000" fill-opacity="1"><g transform="translate(723.752739, 419.981425)"><g><path d="M 22.671875 0 L 16.71875 0 L 16.71875 -12.75 C 16.71875 -14.332031 16.453125 -15.515625 15.921875 -16.296875 C 15.398438 -17.085938 14.570312 -17.484375 13.4375 -17.484375 C 11.914062 -17.484375 10.804688 -16.921875 10.109375 -15.796875 C 9.421875 -14.679688 9.078125 -12.84375 9.078125 -10.28125 L 9.078125 0 L 3.125 0 L 3.125 -21.84375 L 7.671875 -21.84375 L 8.484375 -19.046875 L 8.8125 -19.046875 C 9.394531 -20.046875 10.238281 -20.828125 11.34375 -21.390625 C 12.457031 -21.960938 13.726562 -22.25 15.15625 -22.25 C 18.425781 -22.25 20.640625 -21.179688 21.796875 -19.046875 L 22.328125 -19.046875 C 22.910156 -20.054688 23.769531 -20.84375 24.90625 -21.40625 C 26.050781 -21.96875 27.335938 -22.25 28.765625 -22.25 C 31.242188 -22.25 33.117188 -21.613281 34.390625 -20.34375 C 35.660156 -19.070312 36.296875 -17.035156 36.296875 -14.234375 L 36.296875 0 L 30.3125 0 L 30.3125 -12.75 C 30.3125 -14.332031 30.046875 -15.515625 29.515625 -16.296875 C 28.992188 -17.085938 28.164062 -17.484375 27.03125 -17.484375 C 25.570312 -17.484375 24.476562 -16.960938 23.75 -15.921875 C 23.03125 -14.878906 22.671875 -13.222656 22.671875 -10.953125 Z M 22.671875 0 "/></g></g></g></svg>