<svg xmlns="http://www.w3.org/2000/svg" xmlns:xlink="http://www.w3.org/1999/xlink" width="1920" zoomAndPan="magnify" viewBox="0 0 1440 809.999993" height="1080" preserveAspectRatio="xMidYMid meet" version="1.0"><defs><g/><clipPath id="114c860cc5"><path d="M 465 362.652344 L 975 362.652344 L 975 447.019531 L 465 447.019531 Z M 465 362.652344 " clip-rule="nonzero"/></clipPath><clipPath id="74552ce334"><path d="M 489.050781 362.980469 L 950.949219 362.980469 C 957.316406 362.980469 963.417969 365.511719 967.921875 370.011719 C 972.421875 374.511719 974.949219 380.617188 974.949219 386.980469 L 974.949219 423.019531 C 974.949219 429.382812 972.421875 435.488281 967.921875 439.988281 C 963.417969 444.488281 957.316406 447.019531 950.949219 447.019531 L 489.050781 447.019531 C 482.683594 447.019531 476.582031 444.488281 472.078125 439.988281 C 467.578125 435.488281 465.050781 429.382812 465.050781 423.019531 L 465.050781 386.980469 C 465.050781 380.617188 467.578125 374.511719 472.078125 370.011719 C 476.582031 365.511719 482.683594 362.980469 489.050781 362.980469 Z M 489.050781 362.980469 " clip-rule="nonzero"/></clipPath><clipPath id="6403ffc664"><path d="M 0 0.878906 L 510 0.878906 L 510 85.019531 L 0 85.019531 Z M 0 0.878906 " clip-rule="nonzero"/></clipPath><clipPath id="dd6e0a08fc"><path d="M 24.050781 0.980469 L 485.949219 0.980469 C 492.316406 0.980469 498.417969 3.511719 502.921875 8.011719 C 507.421875 12.511719 509.949219 18.617188 509.949219 24.980469 L 509.949219 61.019531 C 509.949219 67.382812 507.421875 73.488281 502.921875 77.988281 C 498.417969 82.488281 492.316406 85.019531 485.949219 85.019531 L 24.050781 85.019531 C 17.683594 85.019531 11.582031 82.488281 7.078125 77.988281 C 2.578125 73.488281 0.0507812 67.382812 0.0507812 61.019531 L 0.0507812 24.980469 C 0.0507812 18.617188 2.578125 12.511719 7.078125 8.011719 C 11.582031 3.511719 17.683594 0.980469 24.050781 0.980469 Z M 24.050781 0.980469 " clip-rule="nonzero"/></clipPath><clipPath id="d04c7b2bc8"><rect x="0" width="510" y="0" height="86"/></clipPath><clipPath id="ee41114958"><path d="M 465.054688 362.980469 L 975 362.980469 L 975 446.980469 L 465.054688 446.980469 Z M 465.054688 362.980469 " clip-rule="nonzero"/></clipPath><clipPath id="da871d5886"><path d="M 489.054688 362.980469 L 950.941406 362.980469 C 957.308594 362.980469 963.410156 365.511719 967.910156 370.011719 C 972.414062 374.511719 974.941406 380.617188 974.941406 386.980469 L 974.941406 423.015625 C 974.941406 429.382812 972.414062 435.488281 967.910156 439.988281 C 963.410156 444.488281 957.308594 447.015625 950.941406 447.015625 L 489.054688 447.015625 C 482.6875 447.015625 476.582031 444.488281 472.082031 439.988281 C 467.582031 435.488281 465.054688 429.382812 465.054688 423.015625 L 465.054688 386.980469 C 465.054688 380.617188 467.582031 374.511719 472.082031 370.011719 C 476.582031 365.511719 482.6875 362.980469 489.054688 362.980469 Z M 489.054688 362.980469 " clip-rule="nonzero"/></clipPath></defs><g clip-path="url(#114c860cc5)"><g clip-path="url(#74552ce334)"><g transform="matrix(1, 0, 0, 1, 465, 362)"><g clip-path="url(#d04c7b2bc8)"><g clip-path="url(#6403ffc664)"><g clip-path="url(#dd6e0a08fc)"><path fill="#ffffff" d="M 0.0507812 0.980469 L 509.855469 0.980469 L 509.855469 85.019531 L 0.0507812 85.019531 Z M 0.0507812 0.980469 " fill-opacity="1" fill-rule="nonzero"/></g></g></g></g></g></g><g clip-path="url(#ee41114958)"><g clip-path="url(#da871d5886)"><path stroke-linecap="butt" transform="matrix(0.75, 0, 0, 0.75, 465.053887, 362.981368)" fill="none" stroke-linejoin="miter" d="M 32.001069 -0.00119919 L 647.850058 -0.00119919 C 656.339642 -0.00119919 664.475059 3.373801 670.47506 9.373801 C 676.480268 15.373802 679.85006 23.514427 679.85006 31.998802 L 679.85006 80.04568 C 679.85006 88.535264 676.480268 96.675889 670.47506 102.675889 C 664.475059 108.67589 656.339642 112.045681 647.850058 112.045681 L 32.001069 112.045681 C 23.511485 112.045681 15.37086 108.67589 9.37086 102.675889 C 3.370859 96.675889 0.00106757 88.535264 0.00106757 80.04568 L 0.00106757 31.998802 C 0.00106757 23.514427 3.370859 15.373802 9.37086 9.373801 C 15.37086 3.373801 23.511485 -0.00119919 32.001069 -0.00119919 Z M 32.001069 -0.00119919 " stroke="#000000" stroke-width="16" stroke-opacity="1" stroke-miterlimit="4"/></g></g><g fill="#000000" fill-opacity="1"><g transform="translate(662.991687, 419.981365)"><g><path d="M 9.546875 0 L 3.59375 0 L 3.59375 -28.5625 L 19.96875 -28.5625 L 19.96875 -23.59375 L 9.546875 -23.59375 L 9.546875 -16.234375 L 19.234375 -16.234375 L 19.234375 -11.296875 L 9.546875 -11.296875 Z M 9.546875 0 "/></g></g></g><g fill="#000000" fill-opacity="1"><g transform="translate(684.942667, 419.981365)"><g><path d="M 7.875 -10.953125 C 7.875 -8.796875 8.226562 -7.160156 8.9375 -6.046875 C 9.644531 -4.941406 10.800781 -4.390625 12.40625 -4.390625 C 13.988281 -4.390625 15.128906 -4.941406 15.828125 -6.046875 C 16.523438 -7.148438 16.875 -8.785156 16.875 -10.953125 C 16.875 -13.117188 16.519531 -14.738281 15.8125 -15.8125 C 15.113281 -16.894531 13.960938 -17.4375 12.359375 -17.4375 C 10.773438 -17.4375 9.628906 -16.898438 8.921875 -15.828125 C 8.222656 -14.753906 7.875 -13.128906 7.875 -10.953125 Z M 22.96875 -10.953125 C 22.96875 -7.398438 22.03125 -4.617188 20.15625 -2.609375 C 18.28125 -0.609375 15.671875 0.390625 12.328125 0.390625 C 10.234375 0.390625 8.382812 -0.0664062 6.78125 -0.984375 C 5.175781 -1.898438 3.941406 -3.21875 3.078125 -4.9375 C 2.222656 -6.65625 1.796875 -8.660156 1.796875 -10.953125 C 1.796875 -14.523438 2.726562 -17.300781 4.59375 -19.28125 C 6.457031 -21.257812 9.070312 -22.25 12.4375 -22.25 C 14.539062 -22.25 16.390625 -21.789062 17.984375 -20.875 C 19.585938 -19.96875 20.816406 -18.660156 21.671875 -16.953125 C 22.535156 -15.242188 22.96875 -13.242188 22.96875 -10.953125 Z M 22.96875 -10.953125 "/></g></g></g><g fill="#000000" fill-opacity="1"><g transform="translate(709.705873, 419.981365)"><g><path d="M 23.28125 0 L 17.328125 0 L 17.328125 -12.75 C 17.328125 -14.332031 17.046875 -15.515625 16.484375 -16.296875 C 15.921875 -17.085938 15.03125 -17.484375 13.8125 -17.484375 C 12.144531 -17.484375 10.9375 -16.925781 10.1875 -15.8125 C 9.445312 -14.695312 9.078125 -12.851562 9.078125 -10.28125 L 9.078125 0 L 3.125 0 L 3.125 -21.84375 L 7.671875 -21.84375 L 8.484375 -19.046875 L 8.8125 -19.046875 C 9.476562 -20.097656 10.390625 -20.894531 11.546875 -21.4375 C 12.710938 -21.976562 14.039062 -22.25 15.53125 -22.25 C 18.070312 -22.25 20 -21.5625 21.3125 -20.1875 C 22.625 -18.8125 23.28125 -16.828125 23.28125 -14.234375 Z M 23.28125 0 "/></g></g></g><g fill="#000000" fill-opacity="1"><g transform="translate(735.992366, 419.981365)"><g><path d="M 12.328125 -4.359375 C 13.367188 -4.359375 14.617188 -4.585938 16.078125 -5.046875 L 16.078125 -0.609375 C 14.585938 0.0546875 12.765625 0.390625 10.609375 0.390625 C 8.222656 0.390625 6.484375 -0.207031 5.390625 -1.40625 C 4.304688 -2.613281 3.765625 -4.425781 3.765625 -6.84375 L 3.765625 -17.359375 L 0.921875 -17.359375 L 0.921875 -19.890625 L 4.203125 -21.875 L 5.921875 -26.484375 L 9.734375 -26.484375 L 9.734375 -21.84375 L 15.84375 -21.84375 L 15.84375 -17.359375 L 9.734375 -17.359375 L 9.734375 -6.84375 C 9.734375 -5.988281 9.96875 -5.359375 10.4375 -4.953125 C 10.914062 -4.554688 11.546875 -4.359375 12.328125 -4.359375 Z M 12.328125 -4.359375 "/></g></g></g><g fill="#000000" fill-opacity="1"><g transform="translate(753.353956, 419.981365)"><g><path d="M 12.171875 -18.015625 C 10.910156 -18.015625 9.921875 -17.613281 9.203125 -16.8125 C 8.484375 -16.007812 8.070312 -14.875 7.96875 -13.40625 L 16.328125 -13.40625 C 16.304688 -14.875 15.921875 -16.007812 15.171875 -16.8125 C 14.429688 -17.613281 13.429688 -18.015625 12.171875 -18.015625 Z M 13.015625 0.390625 C 9.492188 0.390625 6.742188 -0.578125 4.765625 -2.515625 C 2.785156 -4.460938 1.796875 -7.210938 1.796875 -10.765625 C 1.796875 -14.421875 2.707031 -17.25 4.53125 -19.25 C 6.363281 -21.25 8.894531 -22.25 12.125 -22.25 C 15.21875 -22.25 17.625 -21.367188 19.34375 -19.609375 C 21.0625 -17.847656 21.921875 -15.421875 21.921875 -12.328125 L 21.921875 -9.4375 L 7.828125 -9.4375 C 7.898438 -7.738281 8.40625 -6.414062 9.34375 -5.46875 C 10.28125 -4.519531 11.59375 -4.046875 13.28125 -4.046875 C 14.59375 -4.046875 15.832031 -4.179688 17 -4.453125 C 18.175781 -4.722656 19.40625 -5.160156 20.6875 -5.765625 L 20.6875 -1.15625 C 19.644531 -0.632812 18.53125 -0.25 17.34375 0 C 16.15625 0.257812 14.710938 0.390625 13.015625 0.390625 Z M 13.015625 0.390625 "/></g></g></g></svg>