<svg xmlns="http://www.w3.org/2000/svg" xmlns:xlink="http://www.w3.org/1999/xlink" width="1920" zoomAndPan="magnify" viewBox="0 0 1440 809.999993" height="1080" preserveAspectRatio="xMidYMid meet" version="1.0"><defs><g/><clipPath id="303499c09c"><path d="M 459.519531 362.652344 L 1016 362.652344 L 1016 447.019531 L 459.519531 447.019531 Z M 459.519531 362.652344 " clip-rule="nonzero"/></clipPath><clipPath id="00a89721da"><path d="M 483.847656 362.980469 L 991.992188 362.980469 C 998.355469 362.980469 1004.460938 365.511719 1008.960938 370.011719 C 1013.460938 374.511719 1015.992188 380.617188 1015.992188 386.980469 L 1015.992188 423.019531 C 1015.992188 429.382812 1013.460938 435.488281 1008.960938 439.988281 C 1004.460938 444.488281 998.355469 447.019531 991.992188 447.019531 L 483.847656 447.019531 C 477.480469 447.019531 471.378906 444.488281 466.878906 439.988281 C 462.375 435.488281 459.847656 429.382812 459.847656 423.019531 L 459.847656 386.980469 C 459.847656 380.617188 462.375 374.511719 466.878906 370.011719 C 471.378906 365.511719 477.480469 362.980469 483.847656 362.980469 Z M 483.847656 362.980469 " clip-rule="nonzero"/></clipPath><clipPath id="4c5db013d5"><path d="M 0.839844 0.878906 L 557 0.878906 L 557 85.019531 L 0.839844 85.019531 Z M 0.839844 0.878906 " clip-rule="nonzero"/></clipPath><clipPath id="b74bddbbbb"><path d="M 24.847656 0.980469 L 532.992188 0.980469 C 539.355469 0.980469 545.460938 3.511719 549.960938 8.011719 C 554.460938 12.511719 556.992188 18.617188 556.992188 24.980469 L 556.992188 61.019531 C 556.992188 67.382812 554.460938 73.488281 549.960938 77.988281 C 545.460938 82.488281 539.355469 85.019531 532.992188 85.019531 L 24.847656 85.019531 C 18.480469 85.019531 12.378906 82.488281 7.878906 77.988281 C 3.375 73.488281 0.847656 67.382812 0.847656 61.019531 L 0.847656 24.980469 C 0.847656 18.617188 3.375 12.511719 7.878906 8.011719 C 12.378906 3.511719 18.480469 0.980469 24.847656 0.980469 Z M 24.847656 0.980469 " clip-rule="nonzero"/></clipPath><clipPath id="d0efaa58fb"><rect x="0" width="557" y="0" height="86"/></clipPath><clipPath id="1ce7b5b0fb"><path d="M 459.851562 362.980469 L 1016 362.980469 L 1016 446.980469 L 459.851562 446.980469 Z M 459.851562 362.980469 " clip-rule="nonzero"/></clipPath><clipPath id="94b366f30b"><path d="M 483.851562 362.980469 L 991.980469 362.980469 C 998.347656 362.980469 1004.449219 365.507812 1008.953125 370.011719 C 1013.453125 374.511719 1015.980469 380.617188 1015.980469 386.980469 L 1015.980469 423.015625 C 1015.980469 429.382812 1013.453125 435.488281 1008.953125 439.988281 C 1004.449219 444.488281 998.347656 447.015625 991.980469 447.015625 L 483.851562 447.015625 C 477.484375 447.015625 471.378906 444.488281 466.878906 439.988281 C 462.378906 435.488281 459.851562 429.382812 459.851562 423.015625 L 459.851562 386.980469 C 459.851562 380.617188 462.378906 374.511719 466.878906 370.011719 C 471.378906 365.507812 477.484375 362.980469 483.851562 362.980469 Z M 483.851562 362.980469 " clip-rule="nonzero"/></clipPath></defs><g clip-path="url(#303499c09c)"><g clip-path="url(#00a89721da)"><g transform="matrix(1, 0, 0, 1, 459, 362)"><g clip-path="url(#d0efaa58fb)"><g clip-path="url(#4c5db013d5)"><g clip-path="url(#b74bddbbbb)"><path fill="#ffffff" d="M 0.847656 0.980469 L 556.9375 0.980469 L 556.9375 85.019531 L 0.847656 85.019531 Z M 0.847656 0.980469 " fill-opacity="1" fill-rule="nonzero"/></g></g></g></g></g></g><g clip-path="url(#1ce7b5b0fb)"><g clip-path="url(#94b366f30b)"><path fill="#000000" d="M 525.851562 356.980469 L 561.851562 356.980469 L 561.851562 368.980469 L 525.851562 368.980469 Z M 567.851562 356.980469 L 603.851562 356.980469 L 603.851562 368.980469 L 567.851562 368.980469 Z M 609.851562 356.980469 L 645.851562 356.980469 L 645.851562 368.980469 L 609.851562 368.980469 Z M 651.851562 356.980469 L 687.851562 356.980469 L 687.851562 368.980469 L 651.851562 368.980469 Z M 693.851562 356.980469 L 729.851562 356.980469 L 729.851562 368.980469 L 693.851562 368.980469 Z M 735.851562 356.980469 L 771.851562 356.980469 L 771.851562 368.980469 L 735.851562 368.980469 Z M 777.851562 356.980469 L 813.851562 356.980469 L 813.851562 368.980469 L 777.851562 368.980469 Z M 819.851562 356.980469 L 855.851562 356.980469 L 855.851562 368.980469 L 819.851562 368.980469 Z M 861.851562 356.980469 L 897.851562 356.980469 L 897.851562 368.980469 L 861.851562 368.980469 Z M 903.851562 356.980469 L 939.851562 356.980469 L 939.851562 368.980469 L 903.851562 368.980469 Z M 945.851562 356.980469 L 981.851562 356.980469 L 981.851562 368.980469 L 945.851562 368.980469 Z M 987.851562 356.980469 L 991.980469 356.980469 C 1000.265625 356.980469 1007.335938 359.910156 1013.195312 365.769531 C 1017.144531 369.714844 1019.78125 374.402344 1021.113281 379.824219 L 1009.460938 382.6875 C 1008.664062 379.433594 1007.078125 376.621094 1004.710938 374.253906 C 1001.195312 370.738281 996.953125 368.980469 991.980469 368.980469 L 987.851562 368.980469 Z M 1021.980469 387.210938 L 1021.980469 423.238281 L 1009.980469 423.1875 L 1009.980469 387.210938 Z M 1020.984375 430.6875 C 1019.605469 435.902344 1017.007812 440.417969 1013.195312 444.230469 C 1007.335938 450.085938 1000.265625 453.015625 991.980469 453.015625 L 987.425781 453.015625 L 987.425781 441.015625 L 991.980469 441.015625 C 996.953125 441.015625 1001.195312 439.257812 1004.710938 435.746094 C 1006.996094 433.457031 1008.554688 430.75 1009.382812 427.621094 Z M 981.425781 453.015625 L 945.425781 453.015625 L 945.425781 441.015625 L 981.425781 441.015625 Z M 939.425781 453.015625 L 903.425781 453.015625 L 903.425781 441.015625 L 939.425781 441.015625 Z M 897.425781 453.015625 L 861.425781 453.015625 L 861.425781 441.015625 L 897.425781 441.015625 Z M 855.425781 453.015625 L 819.425781 453.015625 L 819.425781 441.015625 L 855.425781 441.015625 Z M 813.425781 453.015625 L 777.425781 453.015625 L 777.425781 441.015625 L 813.425781 441.015625 Z M 771.425781 453.015625 L 735.425781 453.015625 L 735.425781 441.015625 L 771.425781 441.015625 Z M 729.425781 453.015625 L 693.425781 453.015625 L 693.425781 441.015625 L 729.425781 441.015625 Z M 687.425781 453.015625 L 651.425781 453.015625 L 651.425781 441.015625 L 687.425781 441.015625 Z M 645.425781 453.015625 L 609.425781 453.015625 L 609.425781 441.015625 L 645.425781 441.015625 Z M 603.425781 453.015625 L 567.425781 453.015625 L 567.425781 441.015625 L 603.425781 441.015625 Z M 561.425781 453.015625 L 525.425781 453.015625 L 525.425781 441.015625 L 561.425781 441.015625 Z M 519.425781 453.015625 L 483.851562 453.015625 L 483.367188 453.011719 L 483.476562 441.011719 L 483.851562 441.015625 L 519.425781 441.015625 Z M 475.898438 451.945312 C 470.796875 450.542969 466.378906 447.96875 462.636719 444.230469 C 456.78125 438.371094 453.851562 431.300781 453.851562 423.015625 L 453.851562 418.230469 L 465.851562 418.230469 L 465.851562 423.015625 C 465.851562 427.988281 467.609375 432.230469 471.121094 435.746094 C 473.367188 437.988281 476.019531 439.53125 479.078125 440.371094 Z M 453.851562 412.230469 L 453.851562 386.980469 C 453.851562 382.417969 454.839844 378.082031 456.820312 373.96875 L 467.632812 379.175781 C 466.445312 381.640625 465.851562 384.242188 465.851562 386.980469 L 465.851562 412.230469 Z M 460.878906 367.683594 C 461.4375 367.019531 462.023438 366.382812 462.636719 365.769531 C 468.496094 359.910156 475.566406 356.980469 483.851562 356.980469 L 519.851562 356.980469 L 519.851562 368.980469 L 483.851562 368.980469 C 478.878906 368.980469 474.636719 370.738281 471.121094 374.253906 C 470.753906 374.621094 470.402344 375.003906 470.066406 375.402344 Z M 460.878906 367.683594 " fill-opacity="1" fill-rule="nonzero"/></g></g><g fill="#000000" fill-opacity="1"><g transform="translate(554.980351, 419.98125)"><g><path d="M 14.609375 0 L 8.5625 0 L 8.5625 -23.515625 L 0.796875 -23.515625 L 0.796875 -28.5625 L 22.359375 -28.5625 L 22.359375 -23.515625 L 14.609375 -23.515625 Z M 14.609375 0 "/></g></g></g><g fill="#000000" fill-opacity="1"><g transform="translate(578.14215, 419.98125)"><g><path d="M 17 0 L 15.84375 -2.96875 L 15.6875 -2.96875 C 14.6875 -1.707031 13.65625 -0.832031 12.59375 -0.34375 C 11.53125 0.144531 10.144531 0.390625 8.4375 0.390625 C 6.34375 0.390625 4.691406 -0.207031 3.484375 -1.40625 C 2.285156 -2.601562 1.6875 -4.3125 1.6875 -6.53125 C 1.6875 -8.84375 2.492188 -10.546875 4.109375 -11.640625 C 5.734375 -12.742188 8.179688 -13.359375 11.453125 -13.484375 L 15.234375 -13.59375 L 15.234375 -14.546875 C 15.234375 -16.765625 14.101562 -17.875 11.84375 -17.875 C 10.09375 -17.875 8.039062 -17.347656 5.6875 -16.296875 L 3.71875 -20.3125 C 6.226562 -21.625 9.015625 -22.28125 12.078125 -22.28125 C 15.003906 -22.28125 17.25 -21.640625 18.8125 -20.359375 C 20.375 -19.085938 21.15625 -17.148438 21.15625 -14.546875 L 21.15625 0 Z M 15.234375 -10.125 L 12.9375 -10.046875 C 11.195312 -9.992188 9.90625 -9.679688 9.0625 -9.109375 C 8.21875 -8.535156 7.796875 -7.660156 7.796875 -6.484375 C 7.796875 -4.804688 8.757812 -3.96875 10.6875 -3.96875 C 12.0625 -3.96875 13.160156 -4.363281 13.984375 -5.15625 C 14.816406 -5.945312 15.234375 -7.003906 15.234375 -8.328125 Z M 15.234375 -10.125 "/></g></g></g><g fill="#000000" fill-opacity="1"><g transform="translate(602.299951, 419.98125)"><g><path d="M 22.671875 0 L 16.71875 0 L 16.71875 -12.75 C 16.71875 -14.332031 16.453125 -15.515625 15.921875 -16.296875 C 15.398438 -17.085938 14.570312 -17.484375 13.4375 -17.484375 C 11.914062 -17.484375 10.804688 -16.921875 10.109375 -15.796875 C 9.421875 -14.679688 9.078125 -12.84375 9.078125 -10.28125 L 9.078125 0 L 3.125 0 L 3.125 -21.84375 L 7.671875 -21.84375 L 8.484375 -19.046875 L 8.8125 -19.046875 C 9.394531 -20.046875 10.238281 -20.828125 11.34375 -21.390625 C 12.457031 -21.960938 13.726562 -22.25 15.15625 -22.25 C 18.425781 -22.25 20.640625 -21.179688 21.796875 -19.046875 L 22.328125 -19.046875 C 22.910156 -20.054688 23.769531 -20.84375 24.90625 -21.40625 C 26.050781 -21.96875 27.335938 -22.25 28.765625 -22.25 C 31.242188 -22.25 33.117188 -21.613281 34.390625 -20.34375 C 35.660156 -19.070312 36.296875 -17.035156 36.296875 -14.234375 L 36.296875 0 L 30.3125 0 L 30.3125 -12.75 C 30.3125 -14.332031 30.046875 -15.515625 29.515625 -16.296875 C 28.992188 -17.085938 28.164062 -17.484375 27.03125 -17.484375 C 25.570312 -17.484375 24.476562 -16.960938 23.75 -15.921875 C 23.03125 -14.878906 22.671875 -13.222656 22.671875 -10.953125 Z M 22.671875 0 "/></g></g></g><g fill="#000000" fill-opacity="1"><g transform="translate(641.573463, 419.98125)"><g><path d="M 17 0 L 15.84375 -2.96875 L 15.6875 -2.96875 C 14.6875 -1.707031 13.65625 -0.832031 12.59375 -0.34375 C 11.53125 0.144531 10.144531 0.390625 8.4375 0.390625 C 6.34375 0.390625 4.691406 -0.207031 3.484375 -1.40625 C 2.285156 -2.601562 1.6875 -4.3125 1.6875 -6.53125 C 1.6875 -8.84375 2.492188 -10.546875 4.109375 -11.640625 C 5.734375 -12.742188 8.179688 -13.359375 11.453125 -13.484375 L 15.234375 -13.59375 L 15.234375 -14.546875 C 15.234375 -16.765625 14.101562 -17.875 11.84375 -17.875 C 10.09375 -17.875 8.039062 -17.347656 5.6875 -16.296875 L 3.71875 -20.3125 C 6.226562 -21.625 9.015625 -22.28125 12.078125 -22.28125 C 15.003906 -22.28125 17.25 -21.640625 18.8125 -20.359375 C 20.375 -19.085938 21.15625 -17.148438 21.15625 -14.546875 L 21.15625 0 Z M 15.234375 -10.125 L 12.9375 -10.046875 C 11.195312 -9.992188 9.90625 -9.679688 9.0625 -9.109375 C 8.21875 -8.535156 7.796875 -7.660156 7.796875 -6.484375 C 7.796875 -4.804688 8.757812 -3.96875 10.6875 -3.96875 C 12.0625 -3.96875 13.160156 -4.363281 13.984375 -5.15625 C 14.816406 -5.945312 15.234375 -7.003906 15.234375 -8.328125 Z M 15.234375 -10.125 "/></g></g></g><g fill="#000000" fill-opacity="1"><g transform="translate(665.731264, 419.98125)"><g><path d="M 23.28125 0 L 17.328125 0 L 17.328125 -12.75 C 17.328125 -14.332031 17.046875 -15.515625 16.484375 -16.296875 C 15.921875 -17.085938 15.03125 -17.484375 13.8125 -17.484375 C 12.144531 -17.484375 10.9375 -16.925781 10.1875 -15.8125 C 9.445312 -14.695312 9.078125 -12.851562 9.078125 -10.28125 L 9.078125 0 L 3.125 0 L 3.125 -21.84375 L 7.671875 -21.84375 L 8.484375 -19.046875 L 8.8125 -19.046875 C 9.476562 -20.097656 10.390625 -20.894531 11.546875 -21.4375 C 12.710938 -21.976562 14.039062 -22.25 15.53125 -22.25 C 18.070312 -22.25 20 -21.5625 21.3125 -20.1875 C 22.625 -18.8125 23.28125 -16.828125 23.28125 -14.234375 Z M 23.28125 0 "/></g></g></g><g fill="#000000" fill-opacity="1"><g transform="translate(692.017758, 419.98125)"><g><path d="M 23.28125 0 L 17.328125 0 L 17.328125 -12.75 C 17.328125 -15.90625 16.15625 -17.484375 13.8125 -17.484375 C 12.144531 -17.484375 10.9375 -16.914062 10.1875 -15.78125 C 9.445312 -14.644531 9.078125 -12.8125 9.078125 -10.28125 L 9.078125 0 L 3.125 0 L 3.125 -30.390625 L 9.078125 -30.390625 L 9.078125 -24.203125 C 9.078125 -23.722656 9.035156 -22.585938 8.953125 -20.796875 L 8.8125 -19.046875 L 9.125 -19.046875 C 10.445312 -21.179688 12.554688 -22.25 15.453125 -22.25 C 18.015625 -22.25 19.957031 -21.554688 21.28125 -20.171875 C 22.613281 -18.796875 23.28125 -16.816406 23.28125 -14.234375 Z M 23.28125 0 "/></g></g></g><g fill="#000000" fill-opacity="1"><g transform="translate(718.304252, 419.98125)"><g><path d="M 7.875 -10.953125 C 7.875 -8.796875 8.226562 -7.160156 8.9375 -6.046875 C 9.644531 -4.941406 10.800781 -4.390625 12.40625 -4.390625 C 13.988281 -4.390625 15.128906 -4.941406 15.828125 -6.046875 C 16.523438 -7.148438 16.875 -8.785156 16.875 -10.953125 C 16.875 -13.117188 16.519531 -14.738281 15.8125 -15.8125 C 15.113281 -16.894531 13.960938 -17.4375 12.359375 -17.4375 C 10.773438 -17.4375 9.628906 -16.898438 8.921875 -15.828125 C 8.222656 -14.753906 7.875 -13.128906 7.875 -10.953125 Z M 22.96875 -10.953125 C 22.96875 -7.398438 22.03125 -4.617188 20.15625 -2.609375 C 18.28125 -0.609375 15.671875 0.390625 12.328125 0.390625 C 10.234375 0.390625 8.382812 -0.0664062 6.78125 -0.984375 C 5.175781 -1.898438 3.941406 -3.21875 3.078125 -4.9375 C 2.222656 -6.65625 1.796875 -8.660156 1.796875 -10.953125 C 1.796875 -14.523438 2.726562 -17.300781 4.59375 -19.28125 C 6.457031 -21.257812 9.070312 -22.25 12.4375 -22.25 C 14.539062 -22.25 16.390625 -21.789062 17.984375 -20.875 C 19.585938 -19.96875 20.816406 -18.660156 21.671875 -16.953125 C 22.535156 -15.242188 22.96875 -13.242188 22.96875 -10.953125 Z M 22.96875 -10.953125 "/></g></g></g><g fill="#000000" fill-opacity="1"><g transform="translate(743.067457, 419.98125)"><g/></g></g><g fill="#000000" fill-opacity="1"><g transform="translate(753.457055, 419.98125)"><g><path d="M 10.046875 0.390625 C 7.472656 0.390625 5.453125 -0.601562 3.984375 -2.59375 C 2.523438 -4.59375 1.796875 -7.351562 1.796875 -10.875 C 1.796875 -14.457031 2.539062 -17.25 4.03125 -19.25 C 5.519531 -21.25 7.578125 -22.25 10.203125 -22.25 C 12.941406 -22.25 15.035156 -21.179688 16.484375 -19.046875 L 16.6875 -19.046875 C 16.382812 -20.671875 16.234375 -22.125 16.234375 -23.40625 L 16.234375 -30.390625 L 22.203125 -30.390625 L 22.203125 0 L 17.640625 0 L 16.484375 -2.828125 L 16.234375 -2.828125 C 14.878906 -0.679688 12.816406 0.390625 10.046875 0.390625 Z M 12.125 -4.359375 C 13.65625 -4.359375 14.773438 -4.800781 15.484375 -5.6875 C 16.191406 -6.570312 16.578125 -8.078125 16.640625 -10.203125 L 16.640625 -10.84375 C 16.640625 -13.1875 16.273438 -14.863281 15.546875 -15.875 C 14.828125 -16.894531 13.65625 -17.40625 12.03125 -17.40625 C 10.707031 -17.40625 9.675781 -16.84375 8.9375 -15.71875 C 8.195312 -14.59375 7.828125 -12.953125 7.828125 -10.796875 C 7.828125 -8.648438 8.195312 -7.039062 8.9375 -5.96875 C 9.6875 -4.894531 10.75 -4.359375 12.125 -4.359375 Z M 12.125 -4.359375 "/></g></g></g><g fill="#000000" fill-opacity="1"><g transform="translate(778.767082, 419.98125)"><g><path d="M 17 0 L 15.84375 -2.96875 L 15.6875 -2.96875 C 14.6875 -1.707031 13.65625 -0.832031 12.59375 -0.34375 C 11.53125 0.144531 10.144531 0.390625 8.4375 0.390625 C 6.34375 0.390625 4.691406 -0.207031 3.484375 -1.40625 C 2.285156 -2.601562 1.6875 -4.3125 1.6875 -6.53125 C 1.6875 -8.84375 2.492188 -10.546875 4.109375 -11.640625 C 5.734375 -12.742188 8.179688 -13.359375 11.453125 -13.484375 L 15.234375 -13.59375 L 15.234375 -14.546875 C 15.234375 -16.765625 14.101562 -17.875 11.84375 -17.875 C 10.09375 -17.875 8.039062 -17.347656 5.6875 -16.296875 L 3.71875 -20.3125 C 6.226562 -21.625 9.015625 -22.28125 12.078125 -22.28125 C 15.003906 -22.28125 17.25 -21.640625 18.8125 -20.359375 C 20.375 -19.085938 21.15625 -17.148438 21.15625 -14.546875 L 21.15625 0 Z M 15.234375 -10.125 L 12.9375 -10.046875 C 11.195312 -9.992188 9.90625 -9.679688 9.0625 -9.109375 C 8.21875 -8.535156 7.796875 -7.660156 7.796875 -6.484375 C 7.796875 -4.804688 8.757812 -3.96875 10.6875 -3.96875 C 12.0625 -3.96875 13.160156 -4.363281 13.984375 -5.15625 C 14.816406 -5.945312 15.234375 -7.003906 15.234375 -8.328125 Z M 15.234375 -10.125 "/></g></g></g><g fill="#000000" fill-opacity="1"><g transform="translate(802.924895, 419.98125)"><g/></g></g><g fill="#000000" fill-opacity="1"><g transform="translate(813.314505, 419.98125)"><g><path d="M 15.203125 -17.359375 L 10.046875 -17.359375 L 10.046875 0 L 4.078125 0 L 4.078125 -17.359375 L 0.796875 -17.359375 L 0.796875 -20.234375 L 4.078125 -21.84375 L 4.078125 -23.4375 C 4.078125 -25.925781 4.6875 -27.742188 5.90625 -28.890625 C 7.132812 -30.035156 9.097656 -30.609375 11.796875 -30.609375 C 13.859375 -30.609375 15.6875 -30.300781 17.28125 -29.6875 L 15.765625 -25.3125 C 14.566406 -25.6875 13.457031 -25.875 12.4375 -25.875 C 11.59375 -25.875 10.984375 -25.625 10.609375 -25.125 C 10.234375 -24.625 10.046875 -23.984375 10.046875 -23.203125 L 10.046875 -21.84375 L 15.203125 -21.84375 Z M 15.203125 -17.359375 "/></g></g></g><g fill="#000000" fill-opacity="1"><g transform="translate(828.80129, 419.98125)"><g><path d="M 7.875 -10.953125 C 7.875 -8.796875 8.226562 -7.160156 8.9375 -6.046875 C 9.644531 -4.941406 10.800781 -4.390625 12.40625 -4.390625 C 13.988281 -4.390625 15.128906 -4.941406 15.828125 -6.046875 C 16.523438 -7.148438 16.875 -8.785156 16.875 -10.953125 C 16.875 -13.117188 16.519531 -14.738281 15.8125 -15.8125 C 15.113281 -16.894531 13.960938 -17.4375 12.359375 -17.4375 C 10.773438 -17.4375 9.628906 -16.898438 8.921875 -15.828125 C 8.222656 -14.753906 7.875 -13.128906 7.875 -10.953125 Z M 22.96875 -10.953125 C 22.96875 -7.398438 22.03125 -4.617188 20.15625 -2.609375 C 18.28125 -0.609375 15.671875 0.390625 12.328125 0.390625 C 10.234375 0.390625 8.382812 -0.0664062 6.78125 -0.984375 C 5.175781 -1.898438 3.941406 -3.21875 3.078125 -4.9375 C 2.222656 -6.65625 1.796875 -8.660156 1.796875 -10.953125 C 1.796875 -14.523438 2.726562 -17.300781 4.59375 -19.28125 C 6.457031 -21.257812 9.070312 -22.25 12.4375 -22.25 C 14.539062 -22.25 16.390625 -21.789062 17.984375 -20.875 C 19.585938 -19.96875 20.816406 -18.660156 21.671875 -16.953125 C 22.535156 -15.242188 22.96875 -13.242188 22.96875 -10.953125 Z M 22.96875 -10.953125 "/></g></g></g><g fill="#000000" fill-opacity="1"><g transform="translate(853.564472, 419.98125)"><g><path d="M 23.28125 0 L 17.328125 0 L 17.328125 -12.75 C 17.328125 -14.332031 17.046875 -15.515625 16.484375 -16.296875 C 15.921875 -17.085938 15.03125 -17.484375 13.8125 -17.484375 C 12.144531 -17.484375 10.9375 -16.925781 10.1875 -15.8125 C 9.445312 -14.695312 9.078125 -12.851562 9.078125 -10.28125 L 9.078125 0 L 3.125 0 L 3.125 -21.84375 L 7.671875 -21.84375 L 8.484375 -19.046875 L 8.8125 -19.046875 C 9.476562 -20.097656 10.390625 -20.894531 11.546875 -21.4375 C 12.710938 -21.976562 14.039062 -22.25 15.53125 -22.25 C 18.070312 -22.25 20 -21.5625 21.3125 -20.1875 C 22.625 -18.8125 23.28125 -16.828125 23.28125 -14.234375 Z M 23.28125 0 "/></g></g></g><g fill="#000000" fill-opacity="1"><g transform="translate(879.850978, 419.98125)"><g><path d="M 12.328125 -4.359375 C 13.367188 -4.359375 14.617188 -4.585938 16.078125 -5.046875 L 16.078125 -0.609375 C 14.585938 0.0546875 12.765625 0.390625 10.609375 0.390625 C 8.222656 0.390625 6.484375 -0.207031 5.390625 -1.40625 C 4.304688 -2.613281 3.765625 -4.425781 3.765625 -6.84375 L 3.765625 -17.359375 L 0.921875 -17.359375 L 0.921875 -19.890625 L 4.203125 -21.875 L 5.921875 -26.484375 L 9.734375 -26.484375 L 9.734375 -21.84375 L 15.84375 -21.84375 L 15.84375 -17.359375 L 9.734375 -17.359375 L 9.734375 -6.84375 C 9.734375 -5.988281 9.96875 -5.359375 10.4375 -4.953125 C 10.914062 -4.554688 11.546875 -4.359375 12.328125 -4.359375 Z M 12.328125 -4.359375 "/></g></g></g><g fill="#000000" fill-opacity="1"><g transform="translate(897.212557, 419.98125)"><g><path d="M 12.171875 -18.015625 C 10.910156 -18.015625 9.921875 -17.613281 9.203125 -16.8125 C 8.484375 -16.007812 8.070312 -14.875 7.96875 -13.40625 L 16.328125 -13.40625 C 16.304688 -14.875 15.921875 -16.007812 15.171875 -16.8125 C 14.429688 -17.613281 13.429688 -18.015625 12.171875 -18.015625 Z M 13.015625 0.390625 C 9.492188 0.390625 6.742188 -0.578125 4.765625 -2.515625 C 2.785156 -4.460938 1.796875 -7.210938 1.796875 -10.765625 C 1.796875 -14.421875 2.707031 -17.25 4.53125 -19.25 C 6.363281 -21.25 8.894531 -22.25 12.125 -22.25 C 15.21875 -22.25 17.625 -21.367188 19.34375 -19.609375 C 21.0625 -17.847656 21.921875 -15.421875 21.921875 -12.328125 L 21.921875 -9.4375 L 7.828125 -9.4375 C 7.898438 -7.738281 8.40625 -6.414062 9.34375 -5.46875 C 10.28125 -4.519531 11.59375 -4.046875 13.28125 -4.046875 C 14.59375 -4.046875 15.832031 -4.179688 17 -4.453125 C 18.175781 -4.722656 19.40625 -5.160156 20.6875 -5.765625 L 20.6875 -1.15625 C 19.644531 -0.632812 18.53125 -0.25 17.34375 0 C 16.15625 0.257812 14.710938 0.390625 13.015625 0.390625 Z M 13.015625 0.390625 "/></g></g></g></svg>