<svg xmlns="http://www.w3.org/2000/svg" xmlns:xlink="http://www.w3.org/1999/xlink" width="1920" zoomAndPan="magnify" viewBox="0 0 1440 809.999993" height="1080" preserveAspectRatio="xMidYMid meet" version="1.0"><defs><g/><clipPath id="53f79b3405"><path d="M 604.003906 323.949219 L 782.984375 323.949219 L 782.984375 425.316406 L 604.003906 425.316406 Z M 604.003906 323.949219 " clip-rule="nonzero"/></clipPath><clipPath id="a905e82c28"><path d="M 628.003906 323.949219 L 758.855469 323.949219 C 765.21875 323.949219 771.324219 326.476562 775.824219 330.976562 C 780.324219 335.480469 782.855469 341.582031 782.855469 347.949219 L 782.855469 401.316406 C 782.855469 407.683594 780.324219 413.785156 775.824219 418.289062 C 771.324219 422.789062 765.21875 425.316406 758.855469 425.316406 L 628.003906 425.316406 C 621.640625 425.316406 615.535156 422.789062 611.035156 418.289062 C 606.535156 413.785156 604.003906 407.683594 604.003906 401.316406 L 604.003906 347.949219 C 604.003906 341.582031 606.535156 335.480469 611.035156 330.976562 C 615.535156 326.476562 621.640625 323.949219 628.003906 323.949219 Z M 628.003906 323.949219 " clip-rule="nonzero"/></clipPath><clipPath id="57e1cd7170"><path d="M 0.00390625 0.949219 L 178.878906 0.949219 L 178.878906 102.316406 L 0.00390625 102.316406 Z M 0.00390625 0.949219 " clip-rule="nonzero"/></clipPath><clipPath id="0aed816d0c"><path d="M 24.003906 0.949219 L 154.855469 0.949219 C 161.21875 0.949219 167.324219 3.476562 171.824219 7.976562 C 176.324219 12.480469 178.855469 18.582031 178.855469 24.949219 L 178.855469 78.316406 C 178.855469 84.683594 176.324219 90.785156 171.824219 95.289062 C 167.324219 99.789062 161.21875 102.316406 154.855469 102.316406 L 24.003906 102.316406 C 17.640625 102.316406 11.535156 99.789062 7.035156 95.289062 C 2.535156 90.785156 0.00390625 84.683594 0.00390625 78.316406 L 0.00390625 24.949219 C 0.00390625 18.582031 2.535156 12.480469 7.035156 7.976562 C 11.535156 3.476562 17.640625 0.949219 24.003906 0.949219 Z M 24.003906 0.949219 " clip-rule="nonzero"/></clipPath><clipPath id="1f7e436c5d"><rect x="0" width="179" y="0" height="103"/></clipPath><clipPath id="7b8f0f9cf4"><path d="M 604.003906 323.949219 L 782.503906 323.949219 L 782.503906 425.199219 L 604.003906 425.199219 Z M 604.003906 323.949219 " clip-rule="nonzero"/></clipPath><clipPath id="e73586973b"><path d="M 628.003906 323.949219 L 758.847656 323.949219 C 765.210938 323.949219 771.316406 326.480469 775.816406 330.980469 C 780.316406 335.480469 782.84375 341.585938 782.84375 347.949219 L 782.84375 401.316406 C 782.84375 407.679688 780.316406 413.785156 775.816406 418.285156 C 771.316406 422.785156 765.210938 425.3125 758.847656 425.3125 L 628.003906 425.3125 C 621.640625 425.3125 615.535156 422.785156 611.035156 418.285156 C 606.535156 413.785156 604.003906 407.679688 604.003906 401.316406 L 604.003906 347.949219 C 604.003906 341.585938 606.535156 335.480469 611.035156 330.980469 C 615.535156 326.480469 621.640625 323.949219 628.003906 323.949219 Z M 628.003906 323.949219 " clip-rule="nonzero"/></clipPath></defs><g clip-path="url(#53f79b3405)"><g clip-path="url(#a905e82c28)"><g transform="matrix(1, 0, 0, 1, 604, 323)"><g clip-path="url(#1f7e436c5d)"><g clip-path="url(#57e1cd7170)"><g clip-path="url(#0aed816d0c)"><path fill="#ffde59" d="M 0.00390625 0.949219 L 178.984375 0.949219 L 178.984375 102.316406 L 0.00390625 102.316406 Z M 0.00390625 0.949219 " fill-opacity="1" fill-rule="nonzero"/></g></g></g></g></g></g><g clip-path="url(#7b8f0f9cf4)"><g clip-path="url(#e73586973b)"><path stroke-linecap="butt" transform="matrix(0.75, 0, 0, 0.75, 604.004856, 323.950667)" fill="none" stroke-linejoin="miter" d="M 31.998735 -0.00193087 L 206.457078 -0.00193087 C 214.941453 -0.00193087 223.082078 3.373069 229.082079 9.37307 C 235.082079 15.37307 238.451871 23.513695 238.451871 31.998071 L 238.451871 103.154324 C 238.451871 111.6387 235.082079 119.779325 229.082079 125.779325 C 223.082078 131.779326 214.941453 135.149118 206.457078 135.149118 L 31.998735 135.149118 C 23.51436 135.149118 15.373735 131.779326 9.373734 125.779325 C 3.373734 119.779325 -0.00126611 111.6387 -0.00126611 103.154324 L -0.00126611 31.998071 C -0.00126611 23.513695 3.373734 15.37307 9.373734 9.37307 C 15.373735 3.373069 23.51436 -0.00193087 31.998735 -0.00193087 Z M 31.998735 -0.00193087 " stroke="#000000" stroke-width="16" stroke-opacity="1" stroke-miterlimit="4"/></g></g><g fill="#000000" fill-opacity="1"><g transform="translate(620.165011, 389.948672)"><g><path d="M 14.4375 -16.03125 L 25.765625 -16.03125 L 25.765625 -1.234375 C 23.929688 -0.628906 22.203125 -0.207031 20.578125 0.03125 C 18.953125 0.269531 17.296875 0.390625 15.609375 0.390625 C 11.296875 0.390625 8.003906 -0.875 5.734375 -3.40625 C 3.460938 -5.9375 2.328125 -9.570312 2.328125 -14.3125 C 2.328125 -18.925781 3.644531 -22.519531 6.28125 -25.09375 C 8.914062 -27.675781 12.570312 -28.96875 17.25 -28.96875 C 20.175781 -28.96875 23 -28.378906 25.71875 -27.203125 L 23.71875 -22.359375 C 21.632812 -23.398438 19.460938 -23.921875 17.203125 -23.921875 C 14.585938 -23.921875 12.492188 -23.039062 10.921875 -21.28125 C 9.347656 -19.53125 8.5625 -17.171875 8.5625 -14.203125 C 8.5625 -11.097656 9.191406 -8.726562 10.453125 -7.09375 C 11.722656 -5.46875 13.570312 -4.65625 16 -4.65625 C 17.257812 -4.65625 18.539062 -4.785156 19.84375 -5.046875 L 19.84375 -11 L 14.4375 -11 Z M 14.4375 -16.03125 "/></g></g></g><g fill="#000000" fill-opacity="1"><g transform="translate(649.127031, 389.948672)"><g><path d="M 15.3125 -22.25 C 16.125 -22.25 16.796875 -22.191406 17.328125 -22.078125 L 16.875 -16.484375 C 16.394531 -16.617188 15.8125 -16.6875 15.125 -16.6875 C 13.21875 -16.6875 11.734375 -16.195312 10.671875 -15.21875 C 9.609375 -14.238281 9.078125 -12.867188 9.078125 -11.109375 L 9.078125 0 L 3.125 0 L 3.125 -21.84375 L 7.640625 -21.84375 L 8.515625 -18.171875 L 8.8125 -18.171875 C 9.488281 -19.390625 10.398438 -20.375 11.546875 -21.125 C 12.703125 -21.875 13.957031 -22.25 15.3125 -22.25 Z M 15.3125 -22.25 "/></g></g></g><g fill="#000000" fill-opacity="1"><g transform="translate(667.289319, 389.948672)"><g><path d="M 17 0 L 15.84375 -2.96875 L 15.6875 -2.96875 C 14.6875 -1.707031 13.65625 -0.832031 12.59375 -0.34375 C 11.53125 0.144531 10.144531 0.390625 8.4375 0.390625 C 6.34375 0.390625 4.691406 -0.207031 3.484375 -1.40625 C 2.285156 -2.601562 1.6875 -4.3125 1.6875 -6.53125 C 1.6875 -8.84375 2.492188 -10.546875 4.109375 -11.640625 C 5.734375 -12.742188 8.179688 -13.359375 11.453125 -13.484375 L 15.234375 -13.59375 L 15.234375 -14.546875 C 15.234375 -16.765625 14.101562 -17.875 11.84375 -17.875 C 10.09375 -17.875 8.039062 -17.347656 5.6875 -16.296875 L 3.71875 -20.3125 C 6.226562 -21.625 9.015625 -22.28125 12.078125 -22.28125 C 15.003906 -22.28125 17.25 -21.640625 18.8125 -20.359375 C 20.375 -19.085938 21.15625 -17.148438 21.15625 -14.546875 L 21.15625 0 Z M 15.234375 -10.125 L 12.9375 -10.046875 C 11.195312 -9.992188 9.90625 -9.679688 9.0625 -9.109375 C 8.21875 -8.535156 7.796875 -7.660156 7.796875 -6.484375 C 7.796875 -4.804688 8.757812 -3.96875 10.6875 -3.96875 C 12.0625 -3.96875 13.160156 -4.363281 13.984375 -5.15625 C 14.816406 -5.945312 15.234375 -7.003906 15.234375 -8.328125 Z M 15.234375 -10.125 "/></g></g></g><g fill="#000000" fill-opacity="1"><g transform="translate(691.44712, 389.948672)"><g><path d="M 23.28125 0 L 17.328125 0 L 17.328125 -12.75 C 17.328125 -14.332031 17.046875 -15.515625 16.484375 -16.296875 C 15.921875 -17.085938 15.03125 -17.484375 13.8125 -17.484375 C 12.144531 -17.484375 10.9375 -16.925781 10.1875 -15.8125 C 9.445312 -14.695312 9.078125 -12.851562 9.078125 -10.28125 L 9.078125 0 L 3.125 0 L 3.125 -21.84375 L 7.671875 -21.84375 L 8.484375 -19.046875 L 8.8125 -19.046875 C 9.476562 -20.097656 10.390625 -20.894531 11.546875 -21.4375 C 12.710938 -21.976562 14.039062 -22.25 15.53125 -22.25 C 18.070312 -22.25 20 -21.5625 21.3125 -20.1875 C 22.625 -18.8125 23.28125 -16.828125 23.28125 -14.234375 Z M 23.28125 0 "/></g></g></g><g fill="#000000" fill-opacity="1"><g transform="translate(717.733613, 389.948672)"><g><path d="M 10.046875 0.390625 C 7.472656 0.390625 5.453125 -0.601562 3.984375 -2.59375 C 2.523438 -4.59375 1.796875 -7.351562 1.796875 -10.875 C 1.796875 -14.457031 2.539062 -17.25 4.03125 -19.25 C 5.519531 -21.25 7.578125 -22.25 10.203125 -22.25 C 12.941406 -22.25 15.035156 -21.179688 16.484375 -19.046875 L 16.6875 -19.046875 C 16.382812 -20.671875 16.234375 -22.125 16.234375 -23.40625 L 16.234375 -30.390625 L 22.203125 -30.390625 L 22.203125 0 L 17.640625 0 L 16.484375 -2.828125 L 16.234375 -2.828125 C 14.878906 -0.679688 12.816406 0.390625 10.046875 0.390625 Z M 12.125 -4.359375 C 13.65625 -4.359375 14.773438 -4.800781 15.484375 -5.6875 C 16.191406 -6.570312 16.578125 -8.078125 16.640625 -10.203125 L 16.640625 -10.84375 C 16.640625 -13.1875 16.273438 -14.863281 15.546875 -15.875 C 14.828125 -16.894531 13.65625 -17.40625 12.03125 -17.40625 C 10.707031 -17.40625 9.675781 -16.84375 8.9375 -15.71875 C 8.195312 -14.59375 7.828125 -12.953125 7.828125 -10.796875 C 7.828125 -8.648438 8.195312 -7.039062 8.9375 -5.96875 C 9.6875 -4.894531 10.75 -4.359375 12.125 -4.359375 Z M 12.125 -4.359375 "/></g></g></g><g fill="#000000" fill-opacity="1"><g transform="translate(743.04364, 389.948672)"><g><path d="M 12.171875 -18.015625 C 10.910156 -18.015625 9.921875 -17.613281 9.203125 -16.8125 C 8.484375 -16.007812 8.070312 -14.875 7.96875 -13.40625 L 16.328125 -13.40625 C 16.304688 -14.875 15.921875 -16.007812 15.171875 -16.8125 C 14.429688 -17.613281 13.429688 -18.015625 12.171875 -18.015625 Z M 13.015625 0.390625 C 9.492188 0.390625 6.742188 -0.578125 4.765625 -2.515625 C 2.785156 -4.460938 1.796875 -7.210938 1.796875 -10.765625 C 1.796875 -14.421875 2.707031 -17.25 4.53125 -19.25 C 6.363281 -21.25 8.894531 -22.25 12.125 -22.25 C 15.21875 -22.25 17.625 -21.367188 19.34375 -19.609375 C 21.0625 -17.847656 21.921875 -15.421875 21.921875 -12.328125 L 21.921875 -9.4375 L 7.828125 -9.4375 C 7.898438 -7.738281 8.40625 -6.414062 9.34375 -5.46875 C 10.28125 -4.519531 11.59375 -4.046875 13.28125 -4.046875 C 14.59375 -4.046875 15.832031 -4.179688 17 -4.453125 C 18.175781 -4.722656 19.40625 -5.160156 20.6875 -5.765625 L 20.6875 -1.15625 C 19.644531 -0.632812 18.53125 -0.25 17.34375 0 C 16.15625 0.257812 14.710938 0.390625 13.015625 0.390625 Z M 13.015625 0.390625 "/></g></g></g></svg>