<svg xmlns="http://www.w3.org/2000/svg" xmlns:xlink="http://www.w3.org/1999/xlink" width="1920" zoomAndPan="magnify" viewBox="0 0 1440 809.999993" height="1080" preserveAspectRatio="xMidYMid meet" version="1.0"><defs><g/><clipPath id="c9a2c38c5b"><path d="M 613.785156 309.0625 L 773.363281 309.0625 L 773.363281 410.429688 L 613.785156 410.429688 Z M 613.785156 309.0625 " clip-rule="nonzero"/></clipPath><clipPath id="0261080ef7"><path d="M 637.785156 309.0625 L 749.074219 309.0625 C 755.4375 309.0625 761.542969 311.589844 766.042969 316.089844 C 770.546875 320.589844 773.074219 326.695312 773.074219 333.0625 L 773.074219 386.429688 C 773.074219 392.796875 770.546875 398.898438 766.042969 403.402344 C 761.542969 407.902344 755.4375 410.429688 749.074219 410.429688 L 637.785156 410.429688 C 631.421875 410.429688 625.316406 407.902344 620.816406 403.402344 C 616.3125 398.898438 613.785156 392.796875 613.785156 386.429688 L 613.785156 333.0625 C 613.785156 326.695312 616.3125 320.589844 620.816406 316.089844 C 625.316406 311.589844 631.421875 309.0625 637.785156 309.0625 Z M 637.785156 309.0625 " clip-rule="nonzero"/></clipPath><clipPath id="b2ae15a253"><path d="M 0.785156 0.0625 L 160 0.0625 L 160 101.429688 L 0.785156 101.429688 Z M 0.785156 0.0625 " clip-rule="nonzero"/></clipPath><clipPath id="8a0beefb26"><path d="M 24.785156 0.0625 L 136.074219 0.0625 C 142.4375 0.0625 148.542969 2.589844 153.042969 7.089844 C 157.546875 11.589844 160.074219 17.695312 160.074219 24.0625 L 160.074219 77.429688 C 160.074219 83.796875 157.546875 89.898438 153.042969 94.402344 C 148.542969 98.902344 142.4375 101.429688 136.074219 101.429688 L 24.785156 101.429688 C 18.421875 101.429688 12.316406 98.902344 7.816406 94.402344 C 3.3125 89.898438 0.785156 83.796875 0.785156 77.429688 L 0.785156 24.0625 C 0.785156 17.695312 3.3125 11.589844 7.816406 7.089844 C 12.316406 2.589844 18.421875 0.0625 24.785156 0.0625 Z M 24.785156 0.0625 " clip-rule="nonzero"/></clipPath><clipPath id="d4f9fe9656"><rect x="0" width="161" y="0" height="102"/></clipPath><clipPath id="eed6671650"><path d="M 613.785156 309.0625 L 772.785156 309.0625 L 772.785156 410.3125 L 613.785156 410.3125 Z M 613.785156 309.0625 " clip-rule="nonzero"/></clipPath><clipPath id="0da975d4f2"><path d="M 637.785156 309.0625 L 749.066406 309.0625 C 755.433594 309.0625 761.539062 311.589844 766.039062 316.089844 C 770.539062 320.59375 773.066406 326.695312 773.066406 333.0625 L 773.066406 386.429688 C 773.066406 392.792969 770.539062 398.898438 766.039062 403.398438 C 761.539062 407.898438 755.433594 410.425781 749.066406 410.425781 L 637.785156 410.425781 C 631.417969 410.425781 625.316406 407.898438 620.816406 403.398438 C 616.3125 398.898438 613.785156 392.792969 613.785156 386.429688 L 613.785156 333.0625 C 613.785156 326.695312 616.3125 320.59375 620.816406 316.089844 C 625.316406 311.589844 631.417969 309.0625 637.785156 309.0625 Z M 637.785156 309.0625 " clip-rule="nonzero"/></clipPath></defs><g clip-path="url(#c9a2c38c5b)"><g clip-path="url(#0261080ef7)"><g transform="matrix(1, 0, 0, 1, 613, 309)"><g clip-path="url(#d4f9fe9656)"><g clip-path="url(#b2ae15a253)"><g clip-path="url(#8a0beefb26)"><path fill="#ffffff" d="M 0.785156 0.0625 L 159.964844 0.0625 L 159.964844 101.429688 L 0.785156 101.429688 Z M 0.785156 0.0625 " fill-opacity="1" fill-rule="nonzero"/></g></g></g></g></g></g><g clip-path="url(#eed6671650)"><g clip-path="url(#0da975d4f2)"><path stroke-linecap="butt" transform="matrix(0.75, 0, 0, 0.75, 613.785743, 309.062496)" fill="none" stroke-linejoin="miter" d="M 31.999217 0.00000579802 L 180.374215 0.00000579802 C 188.863798 0.00000579802 197.004423 3.369797 203.004423 9.369797 C 209.004423 15.375006 212.374214 23.510422 212.374214 32.000005 L 212.374214 103.156254 C 212.374214 111.640629 209.004423 119.781254 203.004423 125.781254 C 197.004423 131.781254 188.863798 135.151046 180.374215 135.151046 L 31.999217 135.151046 C 23.509634 135.151046 15.374217 131.781254 9.374217 125.781254 C 3.369009 119.781254 -0.000782791 111.640629 -0.000782791 103.156254 L -0.000782791 32.000005 C -0.000782791 23.510422 3.369009 15.375006 9.374217 9.369797 C 15.374217 3.369797 23.509634 0.00000579802 31.999217 0.00000579802 Z M 31.999217 0.00000579802 " stroke="#000000" stroke-width="16" stroke-opacity="1" stroke-miterlimit="4"/></g></g><g fill="#000000" fill-opacity="1"><g transform="translate(631.914649, 375.061172)"><g><path d="M 15.6875 0 L 8.8125 -22.40625 L 8.640625 -22.40625 C 8.878906 -17.84375 9 -14.800781 9 -13.28125 L 9 0 L 3.59375 0 L 3.59375 -28.5625 L 11.84375 -28.5625 L 18.59375 -6.71875 L 18.71875 -6.71875 L 25.875 -28.5625 L 34.125 -28.5625 L 34.125 0 L 28.484375 0 L 28.484375 -13.515625 C 28.484375 -14.148438 28.488281 -14.882812 28.5 -15.71875 C 28.519531 -16.550781 28.609375 -18.765625 28.765625 -22.359375 L 28.59375 -22.359375 L 21.234375 0 Z M 15.6875 0 "/></g></g></g><g fill="#000000" fill-opacity="1"><g transform="translate(669.625813, 375.061172)"><g><path d="M 12.171875 -18.015625 C 10.910156 -18.015625 9.921875 -17.613281 9.203125 -16.8125 C 8.484375 -16.007812 8.070312 -14.875 7.96875 -13.40625 L 16.328125 -13.40625 C 16.304688 -14.875 15.921875 -16.007812 15.171875 -16.8125 C 14.429688 -17.613281 13.429688 -18.015625 12.171875 -18.015625 Z M 13.015625 0.390625 C 9.492188 0.390625 6.742188 -0.578125 4.765625 -2.515625 C 2.785156 -4.460938 1.796875 -7.210938 1.796875 -10.765625 C 1.796875 -14.421875 2.707031 -17.25 4.53125 -19.25 C 6.363281 -21.25 8.894531 -22.25 12.125 -22.25 C 15.21875 -22.25 17.625 -21.367188 19.34375 -19.609375 C 21.0625 -17.847656 21.921875 -15.421875 21.921875 -12.328125 L 21.921875 -9.4375 L 7.828125 -9.4375 C 7.898438 -7.738281 8.40625 -6.414062 9.34375 -5.46875 C 10.28125 -4.519531 11.59375 -4.046875 13.28125 -4.046875 C 14.59375 -4.046875 15.832031 -4.179688 17 -4.453125 C 18.175781 -4.722656 19.40625 -5.160156 20.6875 -5.765625 L 20.6875 -1.15625 C 19.644531 -0.632812 18.53125 -0.25 17.34375 0 C 16.15625 0.257812 14.710938 0.390625 13.015625 0.390625 Z M 8.734375 -24.234375 L 8.734375 -24.765625 C 10.972656 -27.367188 12.503906 -29.328125 13.328125 -30.640625 L 20 -30.640625 L 20 -30.234375 C 19.320312 -29.554688 18.164062 -28.550781 16.53125 -27.21875 C 14.90625 -25.882812 13.628906 -24.890625 12.703125 -24.234375 Z M 8.734375 -24.234375 "/></g></g></g><g fill="#000000" fill-opacity="1"><g transform="translate(693.256316, 375.061172)"><g><path d="M 10.046875 0.390625 C 7.472656 0.390625 5.453125 -0.601562 3.984375 -2.59375 C 2.523438 -4.59375 1.796875 -7.351562 1.796875 -10.875 C 1.796875 -14.457031 2.539062 -17.25 4.03125 -19.25 C 5.519531 -21.25 7.578125 -22.25 10.203125 -22.25 C 12.941406 -22.25 15.035156 -21.179688 16.484375 -19.046875 L 16.6875 -19.046875 C 16.382812 -20.671875 16.234375 -22.125 16.234375 -23.40625 L 16.234375 -30.390625 L 22.203125 -30.390625 L 22.203125 0 L 17.640625 0 L 16.484375 -2.828125 L 16.234375 -2.828125 C 14.878906 -0.679688 12.816406 0.390625 10.046875 0.390625 Z M 12.125 -4.359375 C 13.65625 -4.359375 14.773438 -4.800781 15.484375 -5.6875 C 16.191406 -6.570312 16.578125 -8.078125 16.640625 -10.203125 L 16.640625 -10.84375 C 16.640625 -13.1875 16.273438 -14.863281 15.546875 -15.875 C 14.828125 -16.894531 13.65625 -17.40625 12.03125 -17.40625 C 10.707031 -17.40625 9.675781 -16.84375 8.9375 -15.71875 C 8.195312 -14.59375 7.828125 -12.953125 7.828125 -10.796875 C 7.828125 -8.648438 8.195312 -7.039062 8.9375 -5.96875 C 9.6875 -4.894531 10.75 -4.359375 12.125 -4.359375 Z M 12.125 -4.359375 "/></g></g></g><g fill="#000000" fill-opacity="1"><g transform="translate(718.566343, 375.061172)"><g><path d="M 2.875 -27.484375 C 2.875 -29.421875 3.953125 -30.390625 6.109375 -30.390625 C 8.273438 -30.390625 9.359375 -29.421875 9.359375 -27.484375 C 9.359375 -26.554688 9.085938 -25.832031 8.546875 -25.3125 C 8.003906 -24.800781 7.191406 -24.546875 6.109375 -24.546875 C 3.953125 -24.546875 2.875 -25.523438 2.875 -27.484375 Z M 9.078125 0 L 3.125 0 L 3.125 -21.84375 L 9.078125 -21.84375 Z M 9.078125 0 "/></g></g></g><g fill="#000000" fill-opacity="1"><g transform="translate(730.772187, 375.061172)"><g><path d="M 17 0 L 15.84375 -2.96875 L 15.6875 -2.96875 C 14.6875 -1.707031 13.65625 -0.832031 12.59375 -0.34375 C 11.53125 0.144531 10.144531 0.390625 8.4375 0.390625 C 6.34375 0.390625 4.691406 -0.207031 3.484375 -1.40625 C 2.285156 -2.601562 1.6875 -4.3125 1.6875 -6.53125 C 1.6875 -8.84375 2.492188 -10.546875 4.109375 -11.640625 C 5.734375 -12.742188 8.179688 -13.359375 11.453125 -13.484375 L 15.234375 -13.59375 L 15.234375 -14.546875 C 15.234375 -16.765625 14.101562 -17.875 11.84375 -17.875 C 10.09375 -17.875 8.039062 -17.347656 5.6875 -16.296875 L 3.71875 -20.3125 C 6.226562 -21.625 9.015625 -22.28125 12.078125 -22.28125 C 15.003906 -22.28125 17.25 -21.640625 18.8125 -20.359375 C 20.375 -19.085938 21.15625 -17.148438 21.15625 -14.546875 L 21.15625 0 Z M 15.234375 -10.125 L 12.9375 -10.046875 C 11.195312 -9.992188 9.90625 -9.679688 9.0625 -9.109375 C 8.21875 -8.535156 7.796875 -7.660156 7.796875 -6.484375 C 7.796875 -4.804688 8.757812 -3.96875 10.6875 -3.96875 C 12.0625 -3.96875 13.160156 -4.363281 13.984375 -5.15625 C 14.816406 -5.945312 15.234375 -7.003906 15.234375 -8.328125 Z M 15.234375 -10.125 "/></g></g></g></svg>