<svg xmlns="http://www.w3.org/2000/svg" xmlns:xlink="http://www.w3.org/1999/xlink" width="1920" zoomAndPan="magnify" viewBox="0 0 1440 809.999993" height="1080" preserveAspectRatio="xMidYMid meet" version="1.0"><defs><clipPath id="28b7eb9063"><path d="M 418.507812 166 L 964 166 L 964 643.59375 L 418.507812 643.59375 Z M 418.507812 166 " clip-rule="nonzero"/></clipPath><clipPath id="40d9ddee61"><path d="M 440.128906 242.597656 C 395.910156 315.445312 427.0625 386.351562 466.210938 423.984375 L 695.113281 643.59375 L 919.179688 424.769531 C 955.59375 384.289062 969.550781 341.34375 961.796875 293.527344 C 951.089844 227.382812 896.582031 176.066406 829.246094 168.738281 C 787.949219 164.289062 748.054688 175.976562 716.921875 201.851562 C 708.539062 208.8125 701.050781 216.59375 694.519531 225.054688 C 686.777344 215.421875 677.695312 206.613281 667.421875 198.804688 C 631.617188 171.59375 586.039062 160.789062 542.261719 169.191406 C 500.796875 177.203125 463.578125 203.949219 440.128906 242.597656 Z M 440.128906 242.597656 " clip-rule="nonzero"/></clipPath><clipPath id="c0f42c6d76"><path d="M 0.507812 0.320312 L 546 0.320312 L 546 477.59375 L 0.507812 477.59375 Z M 0.507812 0.320312 " clip-rule="nonzero"/></clipPath><clipPath id="34fb3da630"><path d="M 22.128906 76.597656 C -22.089844 149.445312 9.0625 220.351562 48.210938 257.984375 L 277.113281 477.59375 L 501.179688 258.769531 C 537.59375 218.289062 551.550781 175.34375 543.796875 127.527344 C 533.089844 61.382812 478.582031 10.066406 411.246094 2.738281 C 369.949219 -1.710938 330.054688 9.976562 298.921875 35.851562 C 290.539062 42.8125 283.050781 50.59375 276.519531 59.054688 C 268.777344 49.421875 259.695312 40.613281 249.421875 32.804688 C 213.617188 5.59375 168.039062 -5.210938 124.261719 3.191406 C 82.796875 11.203125 45.578125 37.949219 22.128906 76.597656 Z M 22.128906 76.597656 " clip-rule="nonzero"/></clipPath><clipPath id="80e5c55c6a"><rect x="0" width="546" y="0" height="478"/></clipPath><clipPath id="d2ad73b2d0"><path d="M 418.507812 166.40625 L 963.757812 166.40625 L 963.757812 643.40625 L 418.507812 643.40625 Z M 418.507812 166.40625 " clip-rule="nonzero"/></clipPath><clipPath id="394a7a8fc0"><path d="M 440.128906 242.597656 C 395.910156 315.445312 427.0625 386.351562 466.210938 423.984375 L 695.109375 643.589844 L 919.175781 424.769531 C 955.585938 384.285156 969.542969 341.34375 961.792969 293.527344 C 951.085938 227.382812 896.578125 176.066406 829.242188 168.738281 C 787.945312 164.292969 748.054688 175.980469 716.917969 201.851562 C 708.539062 208.8125 701.046875 216.597656 694.519531 225.054688 C 686.773438 215.421875 677.691406 206.613281 667.417969 198.804688 C 631.613281 171.59375 586.039062 160.789062 542.261719 169.191406 C 500.796875 177.203125 463.578125 203.949219 440.128906 242.597656 Z M 440.128906 242.597656 " clip-rule="nonzero"/></clipPath></defs><g clip-path="url(#28b7eb9063)"><g clip-path="url(#40d9ddee61)"><g transform="matrix(1, 0, 0, 1, 418, 166)"><g clip-path="url(#80e5c55c6a)"><g clip-path="url(#c0f42c6d76)"><g clip-path="url(#34fb3da630)"><path fill="#da0202" d="M 0.507812 0.40625 L 546.667969 0.40625 L 546.667969 477.59375 L 0.507812 477.59375 Z M 0.507812 0.40625 " fill-opacity="1" fill-rule="nonzero"/></g></g></g></g></g></g><g clip-path="url(#d2ad73b2d0)"><g clip-path="url(#394a7a8fc0)"><path stroke-linecap="butt" transform="matrix(0.75, 0, 0, 0.75, 418.508601, 166.404986)" fill="none" stroke-linejoin="miter" d="M 28.827075 101.590232 C -30.131261 198.720445 11.405199 293.262117 63.603118 343.439203 L 368.80105 636.246509 L 667.556274 344.486078 C 716.103151 290.506908 734.712527 233.251697 724.379193 169.496485 C 710.103151 81.303773 637.426064 12.881894 547.644809 3.11106 C 492.582307 -2.816023 439.394804 12.767311 397.879177 47.262104 C 386.707301 56.543355 376.717717 66.923564 368.014592 78.199606 C 357.686466 65.355855 345.577091 53.611063 331.879173 43.199604 C 284.139588 6.918352 223.37396 -7.487898 165.004165 3.715227 C 109.717704 14.397519 60.092701 50.058979 28.827075 101.590232 Z M 28.827075 101.590232 " stroke="#0a0d30" stroke-width="76" stroke-opacity="1" stroke-miterlimit="4"/></g></g></svg>