<svg xmlns="http://www.w3.org/2000/svg" xmlns:xlink="http://www.w3.org/1999/xlink" width="1920" zoomAndPan="magnify" viewBox="0 0 1440 809.999993" height="1080" preserveAspectRatio="xMidYMid meet" version="1.0"><defs><clipPath id="8a2c6309a5"><path d="M 0 489.179688 L 1440 489.179688 L 1440 810 L 0 810 Z M 0 489.179688 " clip-rule="nonzero"/></clipPath><clipPath id="e076f48d48"><path d="M 0 0.179688 L 1440 0.179688 L 1440 321 L 0 321 Z M 0 0.179688 " clip-rule="nonzero"/></clipPath><clipPath id="6db38694b2"><rect x="0" width="1440" y="0" height="321"/></clipPath><clipPath id="c267ccd797"><path d="M 0 0 L 1440 0 L 1440 489.179688 L 0 489.179688 Z M 0 0 " clip-rule="nonzero"/></clipPath><clipPath id="36ad3932c6"><path d="M 0 0 L 1440 0 L 1440 489.179688 L 0 489.179688 Z M 0 0 " clip-rule="nonzero"/></clipPath><clipPath id="a91d18c431"><rect x="0" width="1440" y="0" height="490"/></clipPath></defs><g clip-path="url(#8a2c6309a5)"><g transform="matrix(1, 0, 0, 1, 0, 489)"><g clip-path="url(#6db38694b2)"><g clip-path="url(#e076f48d48)"><path fill="#93d845" d="M -15.925781 0.179688 L 1575.820312 0.179688 L 1575.820312 397.730469 L -15.925781 397.730469 Z M -15.925781 0.179688 " fill-opacity="1" fill-rule="nonzero"/></g></g></g></g><g clip-path="url(#c267ccd797)"><g transform="matrix(1, 0, 0, 1, 0, 0.000000000000039746)"><g clip-path="url(#a91d18c431)"><g clip-path="url(#36ad3932c6)"><path fill="#46abe3" d="M -15.925781 -19.828125 L 1467.355469 -19.828125 L 1467.355469 489.179688 L -15.925781 489.179688 Z M -15.925781 -19.828125 " fill-opacity="1" fill-rule="nonzero"/></g></g></g></g></svg>