<svg width="249" height="348" viewBox="0 0 249 348" fill="none" xmlns="http://www.w3.org/2000/svg">
<g clip-path="url(#clip0_1_1686)">
<rect width="249" height="348" rx="24" fill="black"/>
<path d="M37.7802 142.807C34.6656 142.833 31.7811 142.302 29.1265 141.215C26.4716 140.085 24.1756 138.504 22.2385 136.473C20.3015 134.441 18.788 132.043 17.6981 129.278C16.6079 126.471 16.049 123.425 16.0215 120.14C15.994 116.855 16.5019 113.821 17.5453 111.039C18.5887 108.257 20.0619 105.855 21.9651 103.834C23.8679 101.77 26.1372 100.172 28.7732 99.0405C31.4088 97.8663 34.2838 97.2662 37.3984 97.2401C40.5129 97.214 43.3763 97.7661 45.9886 98.8962C48.6431 99.9834 50.9389 101.543 52.876 103.575C54.8554 105.563 56.39 107.94 57.4799 110.704C58.5698 113.469 59.1285 116.493 59.156 119.779C59.1835 123.064 58.6757 126.119 57.6327 128.944C56.5893 131.726 55.0949 134.149 53.1495 136.214C51.2467 138.278 48.9775 139.897 46.3419 141.071C43.7486 142.202 40.8947 142.78 37.7802 142.807ZM37.6933 132.439C39.7839 132.421 41.5715 131.894 43.0562 130.858C44.5406 129.779 45.6802 128.297 46.4751 126.413C47.3127 124.529 47.7211 122.349 47.7004 119.875C47.6796 117.4 47.2349 115.249 46.3663 113.422C45.5403 111.594 44.3763 110.174 42.8745 109.163C41.3722 108.109 39.5758 107.59 37.4852 107.608C35.4373 107.625 33.6497 108.152 32.1223 109.189C30.6376 110.225 29.4765 111.686 28.6389 113.57C27.8436 115.411 27.4564 117.569 27.4771 120.044C27.4978 122.519 27.9214 124.691 28.7477 126.562C29.6168 128.432 30.8024 129.894 32.3046 130.948C33.8491 131.959 35.6454 132.456 37.6933 132.439ZM64.8636 141.556C64.8179 136.094 64.7718 130.591 64.7253 125.044C64.6785 119.455 64.6322 113.93 64.5864 108.469C66.3357 108.454 68.1063 108.439 69.8982 108.424C71.6902 108.409 73.4394 108.395 75.146 108.38C75.1485 108.679 75.151 108.978 75.1535 109.276C75.156 109.575 75.1586 109.874 75.1611 110.172C76.4758 109.222 77.9632 108.506 79.6232 108.023C81.2832 107.539 83.0954 107.396 85.0598 107.593C85.0741 109.3 85.0886 111.028 85.1032 112.777C85.1179 114.526 85.1324 116.254 85.1467 117.961C81.7722 117.52 79.2788 117.839 77.6664 118.92C76.0537 119.957 75.2572 121.649 75.2769 123.996C75.3008 126.854 75.3251 129.756 75.3498 132.699C75.3745 135.643 75.3989 138.566 75.4233 141.467C73.7166 141.481 71.9674 141.496 70.1754 141.511C68.3835 141.526 66.6129 141.541 64.8636 141.556ZM95.4357 104.434C94.1984 104.445 93.0653 104.155 92.0363 103.567C91.05 102.977 90.2541 102.195 89.6485 101.219C89.043 100.242 88.7352 99.1568 88.7252 97.9621C88.7152 96.7675 89.0049 95.6984 89.5944 94.7547C90.1835 93.7684 90.9662 92.9725 91.9425 92.367C92.9614 91.7611 94.0896 91.453 95.3268 91.4426C96.5215 91.4326 97.6119 91.7221 98.5982 92.3112C99.6272 92.8999 100.444 93.6825 101.05 94.6588C101.655 95.5924 101.963 96.6565 101.973 97.8511C101.983 99.0458 101.693 100.136 101.104 101.123C100.515 102.109 99.711 102.905 98.6921 103.511C97.7158 104.116 96.6303 104.424 95.4357 104.434ZM90.4327 141.341C90.387 135.88 90.3409 130.376 90.2944 124.83C90.2476 119.241 90.2013 113.716 90.1555 108.255C91.9048 108.24 93.6754 108.225 95.4673 108.21C97.2593 108.195 99.0085 108.18 100.715 108.166C100.761 113.627 100.807 119.152 100.854 124.741C100.9 130.288 100.947 135.792 100.992 141.253C99.2858 141.267 97.5365 141.282 95.7445 141.297C93.9526 141.312 92.182 141.327 90.4327 141.341ZM139.42 135.555C139.45 139.181 138.686 142.217 137.128 144.662C135.613 147.107 133.516 148.938 130.838 150.155C128.16 151.415 125.094 152.081 121.638 152.152C118.226 152.224 114.616 151.742 110.81 150.707C110.796 149.043 110.782 147.358 110.768 145.651C110.754 143.987 110.74 142.323 110.726 140.659C114.107 141.954 117.163 142.589 119.894 142.567C122.625 142.586 124.775 142.056 126.345 140.976C127.957 139.854 128.755 138.332 128.739 136.412C128.737 136.199 128.735 136.007 128.734 135.836C128.732 135.623 128.731 135.431 128.729 135.26C127.669 136.08 126.437 136.73 125.033 137.211C123.629 137.692 122.117 137.94 120.495 137.953C117.807 137.976 115.392 137.377 113.248 136.158C111.147 134.896 109.49 133.16 108.276 130.951C107.063 128.7 106.443 126.081 106.418 123.095C106.399 120.791 106.765 118.676 107.517 116.749C108.269 114.823 109.322 113.15 110.675 111.731C112.029 110.311 113.577 109.232 115.32 108.492C117.063 107.709 118.895 107.31 120.815 107.294C122.35 107.281 123.782 107.482 125.108 107.898C126.434 108.313 127.612 108.879 128.642 109.596C128.64 109.297 128.637 109.02 128.635 108.764C128.633 108.508 128.631 108.231 128.628 107.932C130.377 107.918 132.148 107.903 133.94 107.888C135.732 107.873 137.481 107.858 139.188 107.844C139.226 112.409 139.265 117.038 139.304 121.731C139.343 126.382 139.382 130.99 139.42 135.555ZM123.043 128.78C124.835 128.765 126.259 128.198 127.317 127.08C128.416 125.919 128.958 124.442 128.943 122.65C128.928 120.815 128.361 119.327 127.242 118.184C126.166 117.041 124.732 116.477 122.94 116.492C121.062 116.508 119.574 117.096 118.474 118.258C117.374 119.376 116.832 120.874 116.848 122.751C116.863 124.586 117.43 126.053 118.549 127.153C119.667 128.253 121.165 128.795 123.043 128.78ZM174.952 139.097C172.018 140.359 169.102 141.152 166.203 141.475C163.305 141.797 160.551 141.65 157.943 141.032C155.379 140.456 153.087 139.43 151.069 137.953C149.052 136.477 147.457 134.591 146.286 132.297C145.157 130.002 144.58 127.341 144.555 124.311C144.534 121.794 144.92 119.487 145.713 117.389C146.548 115.249 147.727 113.383 149.25 111.792C150.773 110.157 152.575 108.905 154.659 108.034C156.742 107.121 159.021 106.653 161.495 106.633C163.714 106.614 165.722 106.96 167.52 107.67C169.318 108.381 170.884 109.392 172.218 110.703C173.551 111.972 174.631 113.499 175.456 115.284C176.282 117.069 176.81 119.028 177.042 121.159C177.273 123.29 177.164 125.553 176.715 127.946C173.216 127.975 169.696 128.005 166.155 128.034C162.614 128.064 159.094 128.094 155.595 128.123C156.419 129.737 157.773 130.878 159.656 131.545C161.582 132.212 163.845 132.406 166.445 132.128C169.088 131.85 171.898 131.144 174.876 130.009C174.888 131.503 174.901 133.017 174.914 134.553C174.927 136.089 174.939 137.604 174.952 139.097ZM161.319 116.107C160.081 116.117 158.932 116.468 157.871 117.159C156.853 117.851 156.073 118.903 155.53 120.315C157.45 120.299 159.37 120.283 161.29 120.267C163.252 120.251 165.194 120.234 167.113 120.218C166.589 118.772 165.813 117.733 164.783 117.102C163.796 116.427 162.641 116.095 161.319 116.107ZM182.797 140.567C182.751 135.106 182.705 129.603 182.659 124.056C182.612 118.467 182.566 112.942 182.52 107.481C184.269 107.466 186.04 107.451 187.832 107.436C189.624 107.421 191.373 107.406 193.079 107.392C193.082 107.691 193.084 107.968 193.086 108.224C193.089 108.48 193.091 108.757 193.093 109.056C194.196 108.236 195.428 107.607 196.79 107.169C198.151 106.688 199.557 106.442 201.008 106.43C202.586 106.416 204.039 106.682 205.366 107.225C206.693 107.726 207.83 108.485 208.778 109.501C210.135 108.508 211.664 107.727 213.366 107.158C215.111 106.589 216.9 106.297 218.735 106.281C221.338 106.259 223.582 106.774 225.468 107.825C227.397 108.875 228.882 110.378 229.922 112.332C231.005 114.285 231.558 116.649 231.582 119.422C231.61 122.835 231.639 126.291 231.668 129.79C231.698 133.288 231.727 136.744 231.755 140.157C230.049 140.172 228.299 140.186 226.507 140.201C224.716 140.216 222.945 140.231 221.196 140.246C221.169 137.046 221.142 133.803 221.114 130.518C221.087 127.233 221.059 123.99 221.033 120.79C221.02 119.34 220.669 118.169 219.979 117.279C219.331 116.346 218.282 115.885 216.831 115.897C215.424 115.909 214.318 116.367 213.515 117.269C212.754 118.129 212.38 119.327 212.393 120.863C212.42 124.063 212.447 127.305 212.474 130.59C212.502 133.876 212.529 137.118 212.556 140.318C210.849 140.332 209.1 140.347 207.308 140.362C205.516 140.377 203.746 140.392 201.996 140.407C201.969 137.207 201.942 133.964 201.915 130.679C201.887 127.394 201.86 124.151 201.833 120.951C201.821 119.501 201.47 118.33 200.78 117.44C200.132 116.507 199.083 116.046 197.632 116.058C196.224 116.07 195.119 116.527 194.316 117.43C193.555 118.29 193.181 119.488 193.194 121.024C193.22 124.224 193.248 127.466 193.275 130.751C193.303 134.037 193.33 137.279 193.357 140.479C191.65 140.493 189.901 140.508 188.109 140.523C186.317 140.538 184.546 140.553 182.797 140.567Z" fill="#FFDE59"/>
<path d="M34.5296 222.813C34.5267 222.471 34.5241 222.151 34.5216 221.853C34.5187 221.511 34.516 221.191 34.5135 220.893C33.4544 221.798 32.2442 222.49 30.8828 222.971C29.5645 223.494 28.1373 223.762 26.6014 223.775C24.4255 223.793 22.374 223.384 20.4469 222.547C18.5198 221.709 16.8032 220.529 15.297 219.006C13.8332 217.439 12.6657 215.593 11.7945 213.467C10.966 211.34 10.541 208.997 10.5196 206.437C10.4978 203.835 10.8832 201.463 11.676 199.323C12.5114 197.183 13.648 195.339 15.0858 193.79C16.5662 192.242 18.263 191.054 20.1761 190.228C22.0889 189.358 24.1119 188.915 26.2452 188.897C27.7811 188.884 29.2339 189.128 30.6034 189.628C31.9727 190.086 33.1942 190.737 34.2679 191.582C34.2465 189.022 34.2249 186.441 34.203 183.838C34.1812 181.235 34.1596 178.654 34.1382 176.094C35.8874 176.08 37.658 176.065 39.45 176.05C41.2419 176.035 42.9912 176.02 44.6978 176.006C44.7625 183.728 44.8277 191.515 44.8935 199.365C44.9593 207.215 45.0245 215.002 45.0892 222.724C43.3826 222.738 41.6333 222.753 39.8414 222.768C38.0495 222.783 36.2789 222.798 34.5296 222.813ZM27.931 214.42C29.979 214.402 31.6153 213.642 32.8401 212.138C34.0649 210.635 34.6671 208.667 34.6467 206.235C34.6263 203.803 33.9914 201.867 32.742 200.427C31.4922 198.944 29.8433 198.211 27.7954 198.228C25.7048 198.246 24.0469 198.985 22.8218 200.446C21.6393 201.907 21.0585 203.874 21.0792 206.349C21.0999 208.823 21.7139 210.802 22.921 212.285C24.1704 213.726 25.8405 214.437 27.931 214.42ZM74.5282 222.477C74.5253 222.136 74.5227 221.816 74.5202 221.517C74.5173 221.176 74.5146 220.856 74.5121 220.558C73.453 221.462 72.2427 222.155 70.8814 222.636C69.5631 223.159 68.1359 223.427 66.6 223.44C64.4241 223.458 62.3727 223.07 60.446 222.275C58.5189 221.438 56.8023 220.258 55.2962 218.734C53.8323 217.168 52.6648 215.322 51.7936 213.196C50.9651 211.069 50.54 208.705 50.5182 206.102C50.496 203.457 50.8813 201.064 51.6741 198.924C52.5095 196.784 53.6463 194.961 55.0844 193.455C56.5648 191.907 58.2615 190.719 60.1747 189.893C62.0875 189.023 64.1105 188.58 66.2438 188.562C67.7797 188.549 69.2325 188.793 70.602 189.293C71.9713 189.751 73.1927 190.402 74.2665 191.247C74.2637 190.905 74.261 190.585 74.2585 190.287C74.256 189.988 74.2535 189.689 74.251 189.391C76.0002 189.376 77.7709 189.361 79.5628 189.346C81.3547 189.331 83.104 189.316 84.8106 189.302C84.8564 194.763 84.9027 200.288 84.9495 205.878C84.996 211.424 85.0421 216.928 85.0878 222.389C83.3812 222.403 81.6319 222.418 79.84 222.433C78.0481 222.448 76.2775 222.463 74.5282 222.477ZM67.9296 214.084C69.9776 214.067 71.6139 213.307 72.8387 211.803C74.0635 210.3 74.6657 208.332 74.6453 205.9C74.6249 203.468 73.99 201.532 72.7406 200.092C71.4908 198.609 69.8419 197.876 67.794 197.893C65.7034 197.911 64.0455 198.65 62.8204 200.111C61.6379 201.571 61.0571 203.539 61.0778 206.014C61.0985 208.488 61.7125 210.467 62.9196 211.95C64.169 213.391 65.8391 214.102 67.9296 214.084ZM113.079 178.633C114.699 183.484 116.297 188.377 117.874 193.313C119.494 198.249 121.114 203.142 122.734 207.993C124.271 203.116 125.809 198.196 127.346 193.234C128.883 188.272 130.421 183.352 131.959 178.475C133.793 178.459 135.649 178.444 137.526 178.428C139.404 178.412 141.26 178.397 143.094 178.381C140.85 185.568 138.564 192.841 136.237 200.2C133.952 207.558 131.687 214.83 129.443 222.017C127.225 222.036 124.985 222.055 122.724 222.074C120.505 222.092 118.286 222.111 116.068 222.129C113.704 214.981 111.296 207.748 108.846 200.429C106.438 193.11 104.052 185.877 101.688 178.728C103.565 178.713 105.463 178.697 107.383 178.681C109.303 178.665 111.202 178.649 113.079 178.633ZM152.331 184.96C151.094 184.971 149.961 184.681 148.932 184.093C147.945 183.504 147.149 182.721 146.544 181.745C145.938 180.768 145.631 179.683 145.621 178.488C145.611 177.294 145.9 176.225 146.49 175.281C147.079 174.295 147.862 173.499 148.838 172.893C149.857 172.287 150.985 171.979 152.222 171.969C153.417 171.959 154.507 172.248 155.494 172.837C156.523 173.426 157.34 174.209 157.945 175.185C158.551 176.119 158.858 177.183 158.868 178.377C158.878 179.572 158.589 180.662 158 181.649C157.41 182.635 156.606 183.431 155.587 184.037C154.611 184.643 153.526 184.95 152.331 184.96ZM147.328 221.867C147.282 216.406 147.236 210.903 147.19 205.356C147.143 199.767 147.097 194.242 147.051 188.781C148.8 188.766 150.571 188.751 152.363 188.736C154.155 188.721 155.904 188.706 157.611 188.692C157.656 194.153 157.703 199.678 157.749 205.268C157.796 210.814 157.842 216.318 157.888 221.779C156.181 221.793 154.432 221.808 152.64 221.823C150.848 221.838 149.077 221.853 147.328 221.867ZM187.337 221.532C187.334 221.191 187.331 220.871 187.329 220.572C187.326 220.231 187.323 219.911 187.321 219.612C186.262 220.517 185.051 221.21 183.69 221.691C182.372 222.214 180.944 222.482 179.409 222.495C177.233 222.513 175.181 222.103 173.254 221.266C171.327 220.429 169.61 219.249 168.104 217.725C166.64 216.159 165.473 214.313 164.602 212.186C163.773 210.06 163.348 207.717 163.327 205.157C163.305 202.554 163.69 200.183 164.483 198.043C165.319 195.903 166.455 194.058 167.893 192.51C169.373 190.962 171.07 189.774 172.983 188.947C174.896 188.078 176.919 187.634 179.052 187.617C180.588 187.604 182.041 187.847 183.411 188.348C184.78 188.806 186.001 189.457 187.075 190.301C187.054 187.741 187.032 185.16 187.01 182.558C186.988 179.955 186.967 177.374 186.945 174.814C188.695 174.799 190.465 174.784 192.257 174.769C194.049 174.754 195.798 174.74 197.505 174.725C197.57 182.448 197.635 190.234 197.701 198.085C197.766 205.935 197.832 213.721 197.896 221.444C196.19 221.458 194.44 221.473 192.649 221.488C190.857 221.503 189.086 221.518 187.337 221.532ZM180.738 213.139C182.786 213.122 184.422 212.362 185.647 210.858C186.872 209.354 187.474 207.387 187.454 204.955C187.433 202.523 186.799 200.587 185.549 199.146C184.299 197.664 182.65 196.931 180.603 196.948C178.512 196.965 176.854 197.705 175.629 199.166C174.446 200.626 173.866 202.594 173.886 205.068C173.907 207.543 174.521 209.522 175.728 211.005C176.978 212.445 178.648 213.157 180.738 213.139ZM227.335 221.197C227.332 220.856 227.33 220.536 227.327 220.237C227.324 219.896 227.322 219.576 227.319 219.277C226.26 220.182 225.05 220.875 223.689 221.356C222.37 221.879 220.943 222.147 219.407 222.16C217.231 222.178 215.18 221.79 213.253 220.995C211.326 220.158 209.609 218.978 208.103 217.454C206.639 215.888 205.472 214.041 204.601 211.915C203.772 209.789 203.347 207.424 203.325 204.822C203.303 202.177 203.688 199.784 204.481 197.644C205.317 195.503 206.453 193.68 207.891 192.175C209.372 190.627 211.069 189.439 212.982 188.612C214.895 187.743 216.918 187.299 219.051 187.281C220.587 187.269 222.04 187.512 223.409 188.013C224.778 188.471 226 189.122 227.074 189.966C227.071 189.625 227.068 189.305 227.066 189.006C227.063 188.708 227.061 188.409 227.058 188.11C228.807 188.096 230.578 188.081 232.37 188.066C234.162 188.051 235.911 188.036 237.618 188.022C237.663 193.483 237.71 199.008 237.757 204.597C237.803 210.144 237.849 215.648 237.895 221.109C236.188 221.123 234.439 221.138 232.647 221.153C230.855 221.168 229.085 221.183 227.335 221.197ZM220.737 212.804C222.785 212.787 224.421 212.027 225.646 210.523C226.871 209.019 227.473 207.052 227.452 204.62C227.432 202.188 226.797 200.252 225.548 198.811C224.298 197.328 222.649 196.596 220.601 196.613C218.511 196.63 216.853 197.369 215.628 198.83C214.445 200.291 213.864 202.259 213.885 204.733C213.906 207.208 214.52 209.187 215.727 210.67C216.976 212.11 218.646 212.822 220.737 212.804Z" fill="#FAFAFF"/>
</g>
<rect x="2.5" y="2.5" width="244" height="343" rx="21.5" stroke="white" stroke-width="5"/>
<defs>
<clipPath id="clip0_1_1686">
<rect width="249" height="348" rx="24" fill="white"/>
</clipPath>
</defs>
</svg>
