<svg xmlns="http://www.w3.org/2000/svg" xmlns:xlink="http://www.w3.org/1999/xlink" width="1920" zoomAndPan="magnify" viewBox="0 0 1440 809.999993" height="1080" preserveAspectRatio="xMidYMid meet" version="1.0"><defs><clipPath id="8142449323"><path d="M 597.699219 283.742188 L 840.699219 283.742188 L 840.699219 526.742188 L 597.699219 526.742188 Z M 597.699219 283.742188 " clip-rule="nonzero"/></clipPath><clipPath id="ba5e758758"><path d="M 719.199219 283.742188 C 652.097656 283.742188 597.699219 338.140625 597.699219 405.242188 C 597.699219 472.34375 652.097656 526.742188 719.199219 526.742188 C 786.300781 526.742188 840.699219 472.34375 840.699219 405.242188 C 840.699219 338.140625 786.300781 283.742188 719.199219 283.742188 Z M 719.199219 283.742188 " clip-rule="nonzero"/></clipPath><clipPath id="8b5acf13de"><path d="M 0.699219 0.742188 L 243.699219 0.742188 L 243.699219 243.742188 L 0.699219 243.742188 Z M 0.699219 0.742188 " clip-rule="nonzero"/></clipPath><clipPath id="3d4afe0b2e"><path d="M 122.199219 0.742188 C 55.097656 0.742188 0.699219 55.140625 0.699219 122.242188 C 0.699219 189.34375 55.097656 243.742188 122.199219 243.742188 C 189.300781 243.742188 243.699219 189.34375 243.699219 122.242188 C 243.699219 55.140625 189.300781 0.742188 122.199219 0.742188 Z M 122.199219 0.742188 " clip-rule="nonzero"/></clipPath><clipPath id="f01b16ccfd"><rect x="0" width="244" y="0" height="244"/></clipPath><clipPath id="b05d38413f"><path d="M 478.164062 161.945312 L 961.914062 161.945312 L 961.914062 647.945312 L 478.164062 647.945312 Z M 478.164062 161.945312 " clip-rule="nonzero"/></clipPath><clipPath id="4e8b73f93f"><path d="M 719.996094 161.945312 C 586.4375 161.945312 478.164062 270.761719 478.164062 404.996094 C 478.164062 539.230469 586.4375 648.050781 719.996094 648.050781 C 853.558594 648.050781 961.832031 539.230469 961.832031 404.996094 C 961.832031 270.761719 853.558594 161.945312 719.996094 161.945312 Z M 719.996094 161.945312 " clip-rule="nonzero"/></clipPath><clipPath id="40e66e5db7"><path d="M 503.554688 187.171875 L 935.554688 187.171875 L 935.554688 619.171875 L 503.554688 619.171875 Z M 503.554688 187.171875 " clip-rule="nonzero"/></clipPath><clipPath id="6ac4caec4e"><path d="M 503.554688 212.671875 L 503.554688 593.539062 C 503.554688 607.625 514.972656 619.039062 529.054688 619.039062 L 909.925781 619.039062 C 924.007812 619.039062 935.425781 607.625 935.425781 593.539062 L 935.425781 212.671875 C 935.425781 198.585938 924.007812 187.171875 909.925781 187.171875 L 529.054688 187.171875 C 514.972656 187.171875 503.554688 198.585938 503.554688 212.671875 Z M 503.554688 212.671875 " clip-rule="nonzero"/></clipPath><clipPath id="606f93e646"><path d="M 728.257812 305.222656 L 797.9375 305.222656 L 797.9375 503.667969 L 728.257812 503.667969 Z M 728.257812 305.222656 " clip-rule="nonzero"/></clipPath><clipPath id="8f12bf4536"><path d="M 641.53125 305.222656 L 711.28125 305.222656 L 711.28125 503.671875 L 641.53125 503.671875 Z M 641.53125 305.222656 " clip-rule="nonzero"/></clipPath></defs><g clip-path="url(#8142449323)"><g clip-path="url(#ba5e758758)"><g transform="matrix(1, 0, 0, 1, 597, 283)"><g clip-path="url(#f01b16ccfd)"><g clip-path="url(#8b5acf13de)"><g clip-path="url(#3d4afe0b2e)"><path fill="#ffffff" d="M 0.699219 0.742188 L 243.699219 0.742188 L 243.699219 243.742188 L 0.699219 243.742188 Z M 0.699219 0.742188 " fill-opacity="1" fill-rule="nonzero"/></g></g></g></g></g></g><g clip-path="url(#b05d38413f)"><g clip-path="url(#4e8b73f93f)"><path stroke-linecap="butt" transform="matrix(0.75, 0, 0, 0.75, 478.165782, 161.943585)" fill="none" stroke-linejoin="miter" d="M 322.440432 0.00230273 C 144.362298 0.00230273 -0.00229289 145.090852 -0.00229289 324.070027 C -0.00229289 503.049203 144.362298 648.14296 322.440432 648.14296 C 500.523774 648.14296 644.888365 503.049203 644.888365 324.070027 C 644.888365 145.090852 500.523774 0.00230273 322.440432 0.00230273 Z M 322.440432 0.00230273 " stroke="#000000" stroke-width="164" stroke-opacity="1" stroke-miterlimit="4"/></g></g><g clip-path="url(#40e66e5db7)"><g clip-path="url(#6ac4caec4e)"><path fill="#ffde59" d="M 719.484375 187.171875 C 600.183594 187.171875 503.554688 283.800781 503.554688 403.101562 C 503.554688 522.402344 600.183594 619.03125 719.484375 619.03125 C 838.785156 619.03125 935.414062 522.402344 935.414062 403.101562 C 935.414062 283.800781 838.785156 187.171875 719.484375 187.171875 Z M 697.894531 489.472656 L 654.707031 489.472656 L 654.707031 316.726562 L 697.894531 316.726562 Z M 784.265625 489.472656 L 741.078125 489.472656 L 741.078125 316.726562 L 784.265625 316.726562 Z M 784.265625 489.472656 " fill-opacity="1" fill-rule="nonzero"/></g></g><g clip-path="url(#606f93e646)"><path stroke-linecap="butt" transform="matrix(0.75, 0, 0, 0.75, 728.257578, 305.224049)" fill="none" stroke-linejoin="miter" d="M 0.000313221 -0.00185653 L 92.906568 -0.00185653 L 92.906568 264.591907 L 0.000313221 264.591907 Z M 0.000313221 -0.00185653 " stroke="#000000" stroke-width="34" stroke-opacity="1" stroke-miterlimit="4"/></g><g clip-path="url(#8f12bf4536)"><path stroke-linecap="butt" transform="matrix(0.75, 0, 0, 0.75, 641.531974, 305.221205)" fill="none" stroke-linejoin="miter" d="M -0.000965263 0.00193547 L 93.374033 0.00193547 L 93.374033 264.60089 L -0.000965263 264.60089 Z M -0.000965263 0.00193547 " stroke="#000000" stroke-width="34" stroke-opacity="1" stroke-miterlimit="4"/></g></svg>