<svg width="249" height="348" viewBox="0 0 249 348" fill="none" xmlns="http://www.w3.org/2000/svg">
<rect x="2.5" y="2.5" width="244" height="343" rx="21.5" fill="black"/>
<rect x="2.5" y="2.5" width="244" height="343" rx="21.5" stroke="white" stroke-width="5"/>
<path d="M13.9476 167.911C13.8997 162.199 13.8513 156.419 13.8023 150.572C13.7533 144.724 13.7049 138.944 13.657 133.232C15.7649 133.214 17.8729 133.197 19.9808 133.179C22.1227 133.161 24.2307 133.144 26.3046 133.126C28.9225 133.104 31.2047 133.595 33.1512 134.599C35.0973 135.569 36.622 136.95 37.725 138.743C38.8281 140.535 39.3897 142.639 39.41 145.053C39.4299 147.433 38.9034 149.528 37.8306 151.339C36.7917 153.15 35.3414 154.556 33.4798 155.558C31.6521 156.559 29.5653 157.07 27.2194 157.089C26.4714 157.096 25.7234 157.102 24.9755 157.108C24.2615 157.114 23.5305 157.12 22.7825 157.126C22.7973 158.894 22.8123 160.679 22.8274 162.481C22.8425 164.283 22.8575 166.068 22.8723 167.836C21.4103 167.848 19.9314 167.861 18.4354 167.873C16.9395 167.886 15.4435 167.898 13.9476 167.911ZM26.3717 141.133C25.7597 141.138 25.1307 141.143 24.4847 141.149C23.8728 141.154 23.2608 141.159 22.6488 141.164C22.6602 142.524 22.6717 143.901 22.6834 145.295C22.6948 146.655 22.7062 148.015 22.7176 149.375C23.3976 149.369 24.0945 149.363 24.8085 149.357C25.5565 149.351 26.2705 149.345 26.9504 149.339C28.0044 149.33 28.8511 148.932 29.4905 148.145C30.1639 147.357 30.4958 146.385 30.4861 145.23C30.4762 144.04 30.1109 143.057 29.3904 142.281C28.6699 141.505 27.6636 141.122 26.3717 141.133ZM43.668 167.662C43.6315 163.31 43.5948 158.924 43.5577 154.504C43.5204 150.051 43.4835 145.648 43.4471 141.296C44.841 141.284 46.252 141.272 47.6799 141.26C49.1079 141.248 50.5018 141.237 51.8618 141.225C51.8638 141.463 51.8658 141.701 51.8678 141.939C51.8698 142.177 51.8717 142.415 51.8737 142.653C52.9214 141.896 54.1067 141.326 55.4295 140.94C56.7523 140.555 58.1964 140.441 59.7618 140.598C59.7732 141.958 59.7847 143.335 59.7964 144.729C59.8081 146.123 59.8196 147.5 59.831 148.86C57.142 148.508 55.155 148.763 53.8702 149.624C52.5851 150.451 51.9504 151.799 51.966 153.669C51.9851 155.947 52.0045 158.259 52.0241 160.605C52.0438 162.951 52.0633 165.279 52.0827 167.591C50.7227 167.603 49.3288 167.614 47.9008 167.626C46.4729 167.638 45.0619 167.65 43.668 167.662ZM68.0301 138.081C67.0441 138.089 66.1412 137.859 65.3212 137.389C64.5352 136.92 63.901 136.296 63.4185 135.518C62.9359 134.74 62.6907 133.875 62.6827 132.923C62.6747 131.971 62.9056 131.119 63.3753 130.367C63.8447 129.582 64.4684 128.947 65.2464 128.465C66.0584 127.982 66.9574 127.736 67.9434 127.728C68.8953 127.72 69.7643 127.951 70.5502 128.42C71.3702 128.889 72.0214 129.513 72.504 130.291C72.9862 131.035 73.2313 131.883 73.2393 132.835C73.2473 133.787 73.0166 134.656 72.5471 135.442C72.0777 136.228 71.437 136.862 70.625 137.345C69.847 137.828 68.9821 138.073 68.0301 138.081ZM64.0434 167.491C64.0069 163.139 63.9701 158.753 63.9331 154.334C63.8958 149.88 63.8589 145.477 63.8224 141.125C65.2164 141.113 66.6274 141.102 68.0553 141.09C69.4833 141.078 70.8772 141.066 72.2372 141.055C72.2736 145.406 72.3105 149.809 72.3478 154.263C72.3849 158.683 72.4216 163.069 72.4581 167.421C71.0981 167.432 69.7042 167.444 68.2762 167.456C66.8483 167.468 65.4373 167.479 64.0434 167.491ZM78.3308 167.371C78.2944 163.02 78.2576 158.634 78.2206 154.214C78.1833 149.76 78.1464 145.357 78.1099 141.005C79.5039 140.994 80.9148 140.982 82.3428 140.97C83.7707 140.958 85.1647 140.946 86.5246 140.935C86.5266 141.173 86.5285 141.394 86.5302 141.598C86.5319 141.802 86.5337 142.023 86.5357 142.261C87.4143 141.607 88.3961 141.106 89.4812 140.757C90.5661 140.374 91.6865 140.178 92.8424 140.168C94.1004 140.157 95.2582 140.369 96.3159 140.802C97.3732 141.201 98.2793 141.805 99.0341 142.615C100.116 141.824 101.334 141.202 102.691 140.748C104.081 140.295 105.507 140.062 106.969 140.05C109.043 140.032 110.831 140.442 112.334 141.28C113.871 142.117 115.055 143.314 115.884 144.871C116.747 146.428 117.188 148.311 117.206 150.521C117.229 153.241 117.252 155.995 117.275 158.783C117.299 161.571 117.322 164.325 117.344 167.045C115.985 167.056 114.591 167.068 113.163 167.08C111.735 167.092 110.324 167.103 108.93 167.115C108.908 164.565 108.887 161.981 108.865 159.363C108.843 156.745 108.821 154.162 108.8 151.612C108.79 150.456 108.51 149.523 107.96 148.814C107.444 148.07 106.608 147.703 105.452 147.713C104.33 147.722 103.449 148.086 102.809 148.806C102.203 149.491 101.905 150.445 101.915 151.669C101.936 154.219 101.958 156.803 101.98 159.421C102.002 162.039 102.024 164.623 102.045 167.173C100.685 167.184 99.2911 167.196 97.8631 167.208C96.4352 167.22 95.0242 167.232 93.6303 167.243C93.6089 164.693 93.5873 162.109 93.5653 159.492C93.5434 156.874 93.5218 154.29 93.5004 151.74C93.4907 150.584 93.2109 149.651 92.6609 148.942C92.1447 148.198 91.3086 147.831 90.1526 147.841C89.0306 147.85 88.1497 148.215 87.5097 148.934C86.9034 149.619 86.6054 150.574 86.6156 151.798C86.637 154.347 86.6586 156.931 86.6806 159.549C86.7025 162.167 86.7242 164.751 86.7455 167.301C85.3856 167.312 83.9916 167.324 82.5637 167.336C81.1357 167.348 79.7248 167.36 78.3308 167.371ZM145.24 165.587C142.902 166.592 140.578 167.224 138.268 167.481C135.958 167.739 133.764 167.621 131.686 167.128C129.642 166.67 127.816 165.852 126.208 164.675C124.601 163.499 123.33 161.996 122.397 160.168C121.497 158.339 121.037 156.218 121.017 153.804C121 151.798 121.308 149.96 121.94 148.288C122.606 146.583 123.545 145.096 124.759 143.828C125.972 142.525 127.409 141.527 129.069 140.833C130.729 140.106 132.545 139.733 134.517 139.717C136.285 139.702 137.885 139.978 139.318 140.544C140.751 141.11 141.998 141.915 143.061 142.96C144.124 143.971 144.984 145.188 145.642 146.611C146.3 148.033 146.721 149.594 146.905 151.292C147.089 152.991 147.002 154.794 146.644 156.701C143.856 156.724 141.052 156.748 138.23 156.771C135.408 156.795 132.603 156.818 129.815 156.842C130.472 158.128 131.55 159.037 133.051 159.569C134.585 160.1 136.389 160.255 138.461 160.033C140.567 159.812 142.807 159.249 145.179 158.345C145.189 159.535 145.199 160.742 145.209 161.966C145.22 163.19 145.23 164.397 145.24 165.587ZM134.376 147.266C133.39 147.274 132.474 147.554 131.629 148.105C130.817 148.656 130.195 149.494 129.763 150.62C131.293 150.607 132.823 150.594 134.353 150.582C135.917 150.568 137.464 150.555 138.994 150.543C138.576 149.39 137.957 148.562 137.137 148.059C136.35 147.522 135.43 147.257 134.376 147.266ZM155.733 137.346C154.747 137.354 153.844 137.124 153.024 136.655C152.238 136.185 151.604 135.561 151.121 134.783C150.639 134.005 150.394 133.141 150.386 132.189C150.378 131.237 150.609 130.385 151.078 129.633C151.548 128.847 152.171 128.212 152.949 127.73C153.761 127.247 154.66 127.002 155.646 126.993C156.598 126.985 157.467 127.216 158.253 127.685C159.073 128.155 159.724 128.778 160.207 129.556C160.689 130.3 160.934 131.148 160.942 132.1C160.95 133.052 160.72 133.921 160.25 134.707C159.781 135.493 159.14 136.127 158.328 136.61C157.55 137.093 156.685 137.338 155.733 137.346ZM151.746 166.756C151.71 162.405 151.673 158.019 151.636 153.599C151.599 149.145 151.562 144.742 151.525 140.39C152.919 140.379 154.33 140.367 155.758 140.355C157.186 140.343 158.58 140.331 159.94 140.32C159.977 144.672 160.013 149.074 160.051 153.528C160.088 157.948 160.125 162.334 160.161 166.686C158.801 166.697 157.407 166.709 155.979 166.721C154.551 166.733 153.14 166.745 151.746 166.756ZM166.034 166.637C165.997 162.285 165.961 157.899 165.924 153.479C165.886 149.025 165.849 144.622 165.813 140.271C167.207 140.259 168.618 140.247 170.046 140.235C171.474 140.223 172.868 140.211 174.228 140.2C174.23 140.438 174.232 140.676 174.234 140.914C174.236 141.152 174.238 141.39 174.24 141.628C175.287 140.871 176.473 140.3 177.795 139.915C179.118 139.53 180.562 139.416 182.128 139.573C182.139 140.933 182.151 142.31 182.162 143.704C182.174 145.098 182.185 146.475 182.197 147.835C179.508 147.483 177.521 147.738 176.236 148.599C174.951 149.425 174.316 150.774 174.332 152.644C174.351 154.922 174.37 157.233 174.39 159.579C174.41 161.925 174.429 164.254 174.449 166.566C173.089 166.578 171.695 166.589 170.267 166.601C168.839 166.613 167.428 166.625 166.034 166.637ZM203.5 166.323C203.497 166.051 203.495 165.796 203.493 165.558C203.491 165.286 203.489 165.031 203.487 164.793C202.643 165.514 201.678 166.066 200.594 166.449C199.543 166.866 198.406 167.079 197.182 167.09C195.448 167.104 193.813 166.795 192.278 166.162C190.742 165.495 189.374 164.554 188.174 163.34C187.008 162.092 186.077 160.621 185.383 158.926C184.723 157.232 184.384 155.348 184.367 153.274C184.349 151.166 184.656 149.259 185.288 147.554C185.953 145.848 186.859 144.395 188.005 143.196C189.185 141.962 190.537 141.015 192.062 140.357C193.586 139.664 195.198 139.31 196.898 139.296C198.122 139.286 199.28 139.48 200.371 139.879C201.462 140.244 202.435 140.763 203.291 141.436C203.289 141.164 203.287 140.909 203.285 140.671C203.283 140.433 203.281 140.195 203.279 139.957C204.673 139.945 206.084 139.933 207.512 139.921C208.939 139.909 210.333 139.898 211.693 139.886C211.73 144.238 211.767 148.641 211.804 153.095C211.841 157.515 211.878 161.9 211.914 166.252C210.554 166.264 209.16 166.275 207.732 166.287C206.304 166.299 204.894 166.311 203.5 166.323ZM198.241 159.635C199.873 159.621 201.177 159.015 202.153 157.817C203.129 156.619 203.609 155.05 203.593 153.112C203.577 151.175 203.071 149.632 202.075 148.484C201.079 147.302 199.765 146.718 198.133 146.732C196.467 146.746 195.146 147.335 194.17 148.499C193.228 149.663 192.765 151.231 192.781 153.203C192.798 155.175 193.287 156.752 194.249 157.934C195.245 159.082 196.575 159.649 198.241 159.635ZM237.606 157.877C237.624 159.985 237.043 161.724 235.865 163.093C234.72 164.429 233.164 165.411 231.197 166.04C229.23 166.668 227.023 166.942 224.574 166.86C222.159 166.812 219.691 166.442 217.169 165.749C217.158 164.457 217.147 163.131 217.136 161.771C217.124 160.411 217.113 159.085 217.103 157.793C218.536 158.427 219.968 158.926 221.399 159.288C222.83 159.616 224.124 159.809 225.28 159.867C226.437 159.925 227.371 159.833 228.083 159.589C228.795 159.311 229.148 158.866 229.143 158.254C229.139 157.778 228.83 157.406 228.215 157.139C227.635 156.872 226.868 156.641 225.915 156.445C224.961 156.215 223.938 155.951 222.848 155.654C221.791 155.323 220.784 154.873 219.827 154.303C218.87 153.699 218.082 152.906 217.461 151.925C216.875 150.91 216.575 149.604 216.562 148.006C216.546 146.102 217.076 144.482 218.153 143.147C219.263 141.778 220.751 140.745 222.615 140.05C224.479 139.32 226.567 138.946 228.879 138.926C231.191 138.907 233.557 139.278 235.977 140.04C235.988 141.332 235.999 142.658 236.011 144.018C236.022 145.378 236.033 146.703 236.044 147.995C234.133 147.093 232.342 146.496 230.674 146.204C229.005 145.912 227.662 145.89 226.644 146.136C225.626 146.349 225.12 146.812 225.126 147.526C225.13 148.002 225.422 148.373 226.002 148.641C226.616 148.873 227.383 149.088 228.303 149.284C229.256 149.48 230.262 149.744 231.318 150.075C232.409 150.406 233.416 150.874 234.339 151.478C235.296 152.048 236.068 152.857 236.655 153.907C237.275 154.921 237.592 156.245 237.606 157.877Z" fill="#FFDE59"/>
<path d="M54.5193 216.349C52.1817 217.354 49.8579 217.986 47.5479 218.243C45.238 218.501 43.044 218.383 40.9658 217.89C38.9218 217.431 37.0959 216.614 35.488 215.437C33.8801 214.261 32.6095 212.758 31.6761 210.93C30.7768 209.101 30.317 206.98 30.2967 204.566C30.2799 202.56 30.5875 200.722 31.2196 199.05C31.8853 197.345 32.8249 195.858 34.0383 194.59C35.2514 193.287 36.6881 192.289 38.3484 191.595C40.0083 190.867 41.8243 190.495 43.7962 190.479C45.5641 190.464 47.1645 190.739 48.5973 191.305C50.0301 191.871 51.2779 192.677 52.3407 193.722C53.4032 194.733 54.2634 195.95 54.9213 197.373C55.5793 198.795 56.0004 200.356 56.1846 202.054C56.3688 203.753 56.2819 205.556 55.9239 207.463C53.136 207.486 50.3311 207.509 47.5092 207.533C44.6873 207.557 41.8824 207.58 39.0945 207.604C39.7513 208.89 40.83 209.799 42.3305 210.331C43.865 210.862 45.6683 211.017 47.7405 210.795C49.8468 210.574 52.0861 210.011 54.4586 209.107C54.4686 210.297 54.4787 211.504 54.489 212.728C54.4992 213.952 54.5093 215.159 54.5193 216.349ZM43.6554 198.028C42.6695 198.036 41.7538 198.316 40.9084 198.867C40.097 199.418 39.475 200.256 39.0424 201.382C40.5723 201.369 42.1023 201.356 43.6322 201.343C45.1962 201.33 46.7431 201.317 48.2731 201.304C47.8554 200.152 47.2364 199.324 46.4162 198.821C45.6296 198.284 44.7094 198.019 43.6554 198.028ZM80.8468 209.192C80.8645 211.3 80.284 213.039 79.1054 214.409C77.9606 215.744 76.4048 216.726 74.438 217.355C72.4712 217.983 70.2634 218.257 67.8146 218.175C65.4001 218.128 62.9319 217.757 60.41 217.064C60.3992 215.772 60.3881 214.446 60.3767 213.086C60.3653 211.727 60.3542 210.401 60.3434 209.109C61.7767 209.743 63.209 210.241 64.6401 210.603C66.0708 210.931 67.3645 211.124 68.521 211.182C69.6776 211.241 70.6118 211.148 71.3238 210.904C72.0355 210.626 72.3888 210.181 72.3837 209.569C72.3797 209.093 72.0705 208.721 71.4563 208.455C70.876 208.187 70.1091 207.956 69.1554 207.76C68.2014 207.53 67.1792 207.266 66.0887 206.969C65.0319 206.638 64.025 206.188 63.0682 205.618C62.1111 205.014 61.3225 204.221 60.7022 203.24C60.1157 202.225 59.8157 200.919 59.8024 199.321C59.7864 197.417 60.3169 195.797 61.3937 194.462C62.5043 193.093 63.9917 192.06 65.8559 191.365C67.7199 190.635 69.8078 190.261 72.1197 190.241C74.4316 190.222 76.7978 190.593 79.2183 191.355C79.2291 192.647 79.2402 193.973 79.2516 195.333C79.263 196.693 79.2741 198.019 79.285 199.311C77.3733 198.409 75.5833 197.812 73.9148 197.52C72.2463 197.227 70.903 197.205 69.8851 197.451C68.8668 197.664 68.3607 198.127 68.3666 198.841C68.3706 199.317 68.6628 199.689 69.243 199.956C69.857 200.189 70.6238 200.403 71.5435 200.599C72.4972 200.796 73.5024 201.059 74.5592 201.39C75.65 201.721 76.657 202.189 77.5801 202.793C78.5369 203.363 79.3087 204.173 79.8955 205.222C80.516 206.237 80.8331 207.56 80.8468 209.192ZM87.729 217.294C87.7028 214.167 87.6764 211.022 87.65 207.86C87.6235 204.698 87.5973 201.57 87.5713 198.476C86.8914 198.482 86.1944 198.488 85.4804 198.494C84.8004 198.499 84.1205 198.505 83.4405 198.511C83.4299 197.253 83.4194 195.995 83.4089 194.737C83.3983 193.479 83.3878 192.221 83.3772 190.963C84.0572 190.957 84.7372 190.952 85.4172 190.946C86.1311 190.94 86.8281 190.934 87.5081 190.928C87.4981 189.738 87.4883 188.565 87.4786 187.41C87.4686 186.22 87.4588 185.047 87.4491 183.891C88.8431 183.879 90.254 183.867 91.682 183.855C93.1099 183.843 94.5039 183.832 95.8638 183.82C95.8735 184.976 95.8833 186.149 95.8933 187.339C95.903 188.495 95.9128 189.668 95.9228 190.858C96.7048 190.851 97.5037 190.845 98.3197 190.838C99.1357 190.831 99.9347 190.824 100.717 190.818C100.727 192.076 100.738 193.334 100.748 194.592C100.759 195.85 100.769 197.108 100.78 198.365C99.9979 198.372 99.1989 198.379 98.383 198.386C97.567 198.392 96.768 198.399 95.986 198.406C96.012 201.5 96.0382 204.627 96.0647 207.789C96.0912 210.951 96.1175 214.096 96.1437 217.224C94.7838 217.235 93.3898 217.247 91.9619 217.259C90.5339 217.271 89.123 217.283 87.729 217.294ZM104.996 217.15C104.959 212.798 104.923 208.412 104.886 203.992C104.848 199.538 104.811 195.136 104.775 190.784C106.169 190.772 107.58 190.76 109.008 190.748C110.436 190.736 111.83 190.725 113.19 190.713C113.192 190.951 113.194 191.189 113.196 191.427C113.198 191.665 113.2 191.903 113.202 192.141C114.249 191.384 115.435 190.813 116.757 190.428C118.08 190.043 119.524 189.929 121.09 190.086C121.101 191.446 121.113 192.823 121.124 194.217C121.136 195.611 121.148 196.988 121.159 198.348C118.47 197.996 116.483 198.251 115.198 199.112C113.913 199.938 113.278 201.287 113.294 203.157C113.313 205.435 113.332 207.747 113.352 210.093C113.372 212.438 113.391 214.767 113.411 217.079C112.051 217.091 110.657 217.102 109.229 217.114C107.801 217.126 106.39 217.138 104.996 217.15ZM147.551 215.569C145.214 216.575 142.89 217.206 140.58 217.464C138.27 217.721 136.076 217.603 133.998 217.111C131.954 216.652 130.128 215.834 128.52 214.658C126.912 213.481 125.641 211.979 124.708 210.15C123.809 208.322 123.349 206.201 123.329 203.787C123.312 201.781 123.619 199.942 124.251 198.271C124.917 196.565 125.857 195.078 127.07 193.81C128.283 192.508 129.72 191.51 131.38 190.816C133.04 190.088 134.856 189.716 136.828 189.699C138.596 189.684 140.196 189.96 141.629 190.526C143.062 191.092 144.31 191.898 145.373 192.943C146.435 193.954 147.295 195.171 147.953 196.593C148.611 198.016 149.032 199.576 149.217 201.275C149.401 202.973 149.314 204.776 148.956 206.683C146.168 206.706 143.363 206.73 140.541 206.754C137.719 206.777 134.914 206.801 132.126 206.824C132.783 208.111 133.862 209.02 135.362 209.551C136.897 210.082 138.7 210.237 140.772 210.016C142.879 209.794 145.118 209.231 147.491 208.327C147.5 209.517 147.511 210.724 147.521 211.948C147.531 213.172 147.541 214.379 147.551 215.569ZM136.687 197.249C135.701 197.257 134.786 197.537 133.94 198.088C133.129 198.638 132.507 199.477 132.074 200.602C133.604 200.59 135.134 200.577 136.664 200.564C138.228 200.551 139.775 200.538 141.305 200.525C140.887 199.372 140.268 198.545 139.448 198.041C138.662 197.504 137.741 197.24 136.687 197.249ZM154.058 216.739C154.006 210.585 153.954 204.38 153.902 198.124C153.849 191.869 153.797 185.664 153.746 179.51C155.14 179.498 156.551 179.487 157.979 179.475C159.407 179.463 160.801 179.451 162.161 179.44C162.212 185.593 162.264 191.798 162.317 198.054C162.369 204.31 162.421 210.514 162.472 216.668C161.113 216.68 159.719 216.691 158.291 216.703C156.863 216.715 155.452 216.727 154.058 216.739ZM185.94 216.472C185.937 216.2 185.935 215.945 185.933 215.707C185.931 215.435 185.929 215.18 185.927 214.942C185.083 215.663 184.118 216.215 183.034 216.598C181.983 217.015 180.846 217.228 179.622 217.239C177.888 217.253 176.253 216.944 174.718 216.311C173.182 215.643 171.814 214.703 170.614 213.489C169.448 212.241 168.517 210.769 167.823 209.075C167.163 207.381 166.824 205.496 166.807 203.422C166.789 201.315 167.096 199.408 167.728 197.703C168.393 195.997 169.299 194.544 170.445 193.345C171.625 192.111 172.977 191.164 174.502 190.506C176.026 189.813 177.638 189.459 179.338 189.445C180.562 189.435 181.72 189.629 182.811 190.028C183.902 190.393 184.875 190.912 185.731 191.584C185.729 191.313 185.727 191.058 185.725 190.82C185.723 190.582 185.721 190.344 185.719 190.106C187.113 190.094 188.524 190.082 189.952 190.07C191.38 190.058 192.773 190.046 194.133 190.035C194.17 194.387 194.207 198.79 194.244 203.244C194.281 207.663 194.318 212.049 194.354 216.401C192.994 216.413 191.6 216.424 190.172 216.436C188.745 216.448 187.334 216.46 185.94 216.472ZM180.681 209.783C182.313 209.77 183.617 209.164 184.593 207.966C185.569 206.767 186.049 205.199 186.033 203.261C186.017 201.323 185.511 199.781 184.515 198.633C183.519 197.451 182.205 196.867 180.573 196.881C178.907 196.895 177.586 197.484 176.61 198.648C175.668 199.812 175.205 201.38 175.221 203.352C175.238 205.324 175.727 206.901 176.689 208.083C177.685 209.231 179.015 209.797 180.681 209.783ZM220.046 208.026C220.064 210.134 219.483 211.872 218.305 213.242C217.16 214.578 215.604 215.56 213.637 216.189C211.67 216.817 209.463 217.091 207.014 217.009C204.599 216.961 202.131 216.591 199.609 215.898C199.598 214.606 199.587 213.28 199.576 211.92C199.565 210.56 199.553 209.234 199.543 207.942C200.976 208.576 202.408 209.074 203.839 209.436C205.27 209.764 206.564 209.958 207.72 210.016C208.877 210.074 209.811 209.981 210.523 209.737C211.235 209.459 211.588 209.014 211.583 208.402C211.579 207.927 211.27 207.555 210.656 207.288C210.075 207.021 209.308 206.789 208.355 206.593C207.401 206.363 206.378 206.1 205.288 205.803C204.231 205.472 203.224 205.021 202.267 204.451C201.31 203.847 200.522 203.055 199.901 202.074C199.315 201.059 199.015 199.752 199.002 198.155C198.986 196.251 199.516 194.631 200.593 193.296C201.703 191.927 203.191 190.894 205.055 190.199C206.919 189.469 209.007 189.094 211.319 189.075C213.631 189.056 215.997 189.427 218.418 190.189C218.428 191.481 218.439 192.807 218.451 194.166C218.462 195.526 218.473 196.852 218.484 198.144C216.573 197.242 214.782 196.645 213.114 196.353C211.445 196.061 210.102 196.038 209.084 196.285C208.066 196.498 207.56 196.961 207.566 197.675C207.57 198.151 207.862 198.522 208.442 198.789C209.056 199.022 209.823 199.237 210.743 199.433C211.696 199.629 212.702 199.893 213.758 200.224C214.849 200.555 215.856 201.022 216.779 201.627C217.736 202.197 218.508 203.006 219.095 204.055C219.715 205.07 220.032 206.394 220.046 208.026Z" fill="#FFFCF2"/>
</svg>
