<svg width="249" height="348" viewBox="0 0 249 348" fill="none" xmlns="http://www.w3.org/2000/svg">
<rect x="2.5" y="2.5" width="244" height="343" rx="21.5" fill="black"/>
<rect x="2.5" y="2.5" width="244" height="343" rx="21.5" stroke="white" stroke-width="5"/>
<path d="M32.0945 128.164C32.1124 130.291 31.5669 132.032 30.4582 133.385C29.3773 134.711 27.9013 135.675 26.0303 136.279C24.1873 136.882 22.1175 137.151 19.8209 137.087C17.5245 137.05 15.1836 136.72 12.7983 136.095C12.7882 134.892 12.7781 133.688 12.7681 132.484C12.758 131.28 12.7479 130.076 12.7378 128.872C14.9283 129.637 16.9203 130.111 18.7139 130.292C20.5075 130.473 21.9348 130.391 22.996 130.046C24.0569 129.673 24.5838 129.066 24.5768 128.227C24.5719 127.639 24.2739 127.165 23.6829 126.806C23.0916 126.419 22.3187 126.075 21.3641 125.775C20.4376 125.475 19.4547 125.133 18.4155 124.75C17.376 124.339 16.3777 123.829 15.4205 123.221C14.4912 122.585 13.7283 121.765 13.1319 120.762C12.5352 119.731 12.2304 118.446 12.2175 116.906C12.2016 115.002 12.6921 113.388 13.689 112.063C14.6859 110.739 16.0356 109.733 17.7379 109.047C19.4682 108.361 21.4253 108.008 23.6092 107.99C25.8211 107.971 28.1059 108.288 30.4634 108.941C30.4735 110.144 30.4836 111.348 30.4937 112.552C30.5038 113.756 30.5139 114.96 30.5239 116.164C28.557 115.341 26.7468 114.852 25.0935 114.698C23.4679 114.515 22.1666 114.61 21.1897 114.982C20.2126 115.327 19.7273 115.891 19.7338 116.675C19.7385 117.235 20.0364 117.694 20.6274 118.053C21.2185 118.412 21.9772 118.742 22.9038 119.042C23.8581 119.314 24.855 119.656 25.8945 120.067C26.9337 120.45 27.9182 120.974 28.8478 121.638C29.8051 122.274 30.5822 123.122 31.1791 124.181C31.7758 125.212 32.0809 126.54 32.0945 128.164ZM55.6755 114.861C55.7056 118.445 55.7359 122.071 55.7667 125.739C55.7972 129.379 55.8274 132.991 55.8575 136.575C54.7375 136.584 53.5895 136.594 52.4136 136.604C51.2376 136.613 50.0757 136.623 48.9277 136.633C48.9261 136.437 48.9245 136.255 48.9231 136.087C48.9217 135.919 48.9202 135.737 48.9185 135.541C48.167 136.079 47.3165 136.492 46.3668 136.78C45.4455 137.096 44.4388 137.258 43.3468 137.268C41.7509 137.281 40.3339 136.929 39.0958 136.211C37.8858 135.493 36.925 134.451 36.2135 133.085C35.5301 131.719 35.1805 130.098 35.1647 128.222C35.1464 126.038 35.128 123.84 35.1095 121.628C35.091 119.416 35.0725 117.218 35.0542 115.034C36.2022 115.025 37.3642 115.015 38.5401 115.005C39.7161 114.995 40.864 114.986 41.984 114.976C42.0009 116.992 42.018 119.036 42.0354 121.108C42.0527 123.18 42.0699 125.224 42.0868 127.24C42.0961 128.36 42.3558 129.268 42.8656 129.963C43.4032 130.631 44.232 130.96 45.352 130.951C46.4719 130.941 47.3372 130.612 47.9478 129.963C48.5584 129.314 48.8586 128.387 48.8485 127.183C48.8316 125.167 48.8145 123.123 48.7971 121.051C48.7798 118.979 48.7627 116.935 48.7458 114.92C49.8937 114.91 51.0557 114.9 52.2316 114.89C53.4076 114.88 54.5556 114.871 55.6755 114.861ZM60.4678 136.536C60.4377 132.952 60.4075 129.34 60.377 125.7C60.3463 122.033 60.3159 118.407 60.2858 114.823C61.4338 114.813 62.5958 114.804 63.7717 114.794C64.9477 114.784 66.0956 114.774 67.2156 114.765C67.2172 114.961 67.2189 115.157 67.2205 115.353C67.2222 115.549 67.2238 115.745 67.2255 115.941C68.0883 115.318 69.0644 114.847 70.1537 114.53C71.2431 114.213 72.4324 114.119 73.7215 114.248C73.7309 115.368 73.7404 116.502 73.75 117.65C73.7596 118.798 73.7691 119.932 73.7785 121.052C71.564 120.763 69.9277 120.972 68.8696 121.681C67.8113 122.362 67.2886 123.472 67.3015 125.012C67.3172 126.888 67.3331 128.792 67.3493 130.724C67.3655 132.656 67.3816 134.574 67.3975 136.478C66.2776 136.487 65.1296 136.497 63.9536 136.507C62.7777 136.517 61.6157 136.526 60.4678 136.536ZM97.2142 132.7C97.2341 135.08 96.7328 137.072 95.7102 138.677C94.7156 140.281 93.3396 141.483 91.5822 142.282C89.8251 143.108 87.8127 143.545 85.545 143.592C83.3053 143.639 80.9366 143.323 78.4388 142.644C78.4297 141.552 78.4204 140.446 78.411 139.326C78.4019 138.234 78.3927 137.142 78.3836 136.05C80.6028 136.899 82.6083 137.317 84.4003 137.302C86.1924 137.315 87.6036 136.967 88.6337 136.258C89.6915 135.521 90.2152 134.523 90.2046 133.263C90.2035 133.123 90.2024 132.997 90.2015 132.885C90.2003 132.745 90.1992 132.619 90.1983 132.507C89.5028 133.045 88.6943 133.472 87.7729 133.787C86.8515 134.103 85.8589 134.265 84.7949 134.274C83.031 134.289 81.4456 133.896 80.0389 133.096C78.6599 132.268 77.5723 131.129 76.7761 129.679C75.9797 128.202 75.5733 126.483 75.5569 124.523C75.5442 123.011 75.7846 121.623 76.278 120.359C76.7715 119.095 77.4623 117.997 78.3505 117.066C79.2387 116.134 80.2548 115.426 81.3988 114.94C82.5425 114.426 83.7444 114.164 85.0043 114.154C86.0123 114.145 86.9514 114.277 87.8218 114.55C88.6921 114.823 89.4652 115.194 90.1412 115.665C90.1395 115.469 90.138 115.287 90.1366 115.119C90.1352 114.951 90.1337 114.769 90.132 114.573C91.28 114.563 92.442 114.553 93.6179 114.544C94.7939 114.534 95.9418 114.524 97.0618 114.515C97.0869 117.511 97.1123 120.549 97.1381 123.628C97.1637 126.68 97.1891 129.704 97.2142 132.7ZM86.4665 128.254C87.6425 128.244 88.5774 127.872 89.2713 127.138C89.9929 126.376 90.3488 125.407 90.339 124.231C90.3289 123.027 89.9567 122.051 89.2224 121.301C88.5161 120.551 87.5749 120.18 86.399 120.19C85.167 120.201 84.1902 120.587 83.4686 121.349C82.7467 122.083 82.3909 123.066 82.4012 124.298C82.4113 125.502 82.7834 126.465 83.5175 127.187C84.2516 127.909 85.2346 128.264 86.4665 128.254ZM105.344 111.967C104.532 111.974 103.789 111.784 103.113 111.398C102.466 111.011 101.944 110.498 101.546 109.857C101.149 109.216 100.947 108.504 100.941 107.72C100.934 106.936 101.124 106.234 101.511 105.615C101.898 104.968 102.411 104.446 103.052 104.048C103.721 103.651 104.461 103.448 105.273 103.442C106.057 103.435 106.772 103.625 107.42 104.012C108.095 104.398 108.631 104.911 109.029 105.552C109.426 106.165 109.628 106.863 109.634 107.647C109.641 108.431 109.451 109.147 109.064 109.794C108.678 110.441 108.15 110.964 107.481 111.361C106.841 111.759 106.128 111.961 105.344 111.967ZM102.061 136.188C102.031 132.604 102.001 128.992 101.97 125.352C101.94 121.684 101.909 118.058 101.879 114.474C103.027 114.465 104.189 114.455 105.365 114.445C106.541 114.435 107.689 114.426 108.809 114.416C108.839 118 108.869 121.626 108.9 125.294C108.931 128.934 108.961 132.546 108.991 136.13C107.871 136.139 106.723 136.149 105.547 136.158C104.371 136.168 103.209 136.178 102.061 136.188ZM113.827 136.089C113.797 132.505 113.767 128.893 113.736 125.253C113.706 121.586 113.675 117.96 113.645 114.376C114.793 114.366 115.955 114.356 117.131 114.347C118.307 114.337 119.455 114.327 120.575 114.318C120.577 114.514 120.578 114.696 120.58 114.864C120.581 115.032 120.583 115.214 120.584 115.41C121.308 114.872 122.116 114.459 123.01 114.171C123.903 113.856 124.826 113.694 125.778 113.686C126.814 113.677 127.767 113.851 128.638 114.208C129.509 114.537 130.255 115.035 130.877 115.701C131.768 115.05 132.771 114.538 133.888 114.164C135.033 113.791 136.208 113.599 137.412 113.589C139.119 113.574 140.592 113.912 141.83 114.602C143.096 115.291 144.07 116.277 144.753 117.559C145.464 118.841 145.827 120.392 145.842 122.212C145.861 124.452 145.88 126.72 145.899 129.016C145.918 131.312 145.937 133.58 145.956 135.82C144.836 135.829 143.688 135.839 142.512 135.849C141.336 135.859 140.174 135.868 139.026 135.878C139.009 133.778 138.991 131.65 138.973 129.494C138.955 127.338 138.937 125.21 138.919 123.11C138.911 122.158 138.681 121.39 138.228 120.806C137.803 120.194 137.114 119.891 136.162 119.899C135.238 119.907 134.513 120.207 133.986 120.8C133.487 121.364 133.241 122.15 133.25 123.158C133.267 125.258 133.285 127.386 133.303 129.542C133.321 131.698 133.339 133.825 133.357 135.925C132.237 135.935 131.089 135.944 129.913 135.954C128.737 135.964 127.575 135.974 126.427 135.983C126.409 133.884 126.391 131.756 126.373 129.6C126.355 127.444 126.337 125.316 126.32 123.216C126.312 122.264 126.081 121.496 125.628 120.912C125.203 120.299 124.515 119.997 123.563 120.005C122.639 120.013 121.913 120.313 121.386 120.905C120.887 121.469 120.642 122.255 120.65 123.263C120.668 125.363 120.685 127.491 120.703 129.647C120.722 131.803 120.739 133.931 120.757 136.031C119.637 136.04 118.489 136.05 117.313 136.06C116.137 136.07 114.975 136.079 113.827 136.089ZM168.929 134.619C167.004 135.447 165.09 135.968 163.188 136.179C161.285 136.391 159.478 136.295 157.767 135.889C156.084 135.511 154.58 134.838 153.256 133.869C151.932 132.9 150.885 131.662 150.117 130.157C149.376 128.651 148.997 126.904 148.981 124.916C148.967 123.264 149.22 121.75 149.741 120.374C150.289 118.969 151.063 117.744 152.062 116.7C153.061 115.628 154.244 114.806 155.611 114.234C156.978 113.635 158.474 113.328 160.098 113.315C161.554 113.302 162.872 113.529 164.052 113.995C165.232 114.462 166.259 115.125 167.135 115.986C168.01 116.818 168.718 117.82 169.26 118.992C169.802 120.164 170.148 121.449 170.3 122.847C170.452 124.246 170.38 125.731 170.085 127.301C167.79 127.321 165.48 127.34 163.156 127.359C160.832 127.379 158.522 127.398 156.226 127.417C156.767 128.477 157.655 129.226 158.891 129.663C160.155 130.101 161.64 130.228 163.346 130.046C165.081 129.863 166.925 129.4 168.879 128.656C168.887 129.635 168.895 130.629 168.904 131.637C168.912 132.645 168.921 133.639 168.929 134.619ZM159.982 119.532C159.17 119.539 158.416 119.769 157.72 120.223C157.051 120.676 156.539 121.367 156.183 122.294C157.443 122.283 158.703 122.273 159.963 122.262C161.251 122.251 162.525 122.241 163.785 122.23C163.441 121.281 162.931 120.599 162.256 120.185C161.608 119.742 160.85 119.524 159.982 119.532ZM174.077 135.584C174.047 132 174.017 128.388 173.986 124.749C173.956 121.081 173.925 117.455 173.895 113.871C175.043 113.861 176.205 113.852 177.381 113.842C178.557 113.832 179.705 113.822 180.825 113.813C180.827 114.009 180.828 114.191 180.829 114.359C180.831 114.527 180.832 114.709 180.834 114.905C181.586 114.367 182.422 113.954 183.344 113.666C184.293 113.35 185.314 113.187 186.406 113.178C188.002 113.165 189.405 113.517 190.615 114.235C191.853 114.953 192.814 115.995 193.497 117.361C194.208 118.699 194.572 120.32 194.588 122.224C194.606 124.408 194.625 126.606 194.643 128.818C194.662 131.03 194.68 133.228 194.698 135.411C193.578 135.421 192.43 135.43 191.254 135.44C190.078 135.45 188.917 135.46 187.769 135.47C187.752 133.454 187.735 131.41 187.717 129.338C187.7 127.266 187.683 125.222 187.666 123.206C187.656 122.086 187.383 121.192 186.845 120.525C186.335 119.829 185.521 119.486 184.401 119.495C183.281 119.505 182.415 119.834 181.805 120.483C181.194 121.132 180.894 122.059 180.904 123.263C180.921 125.279 180.938 127.322 180.955 129.394C180.973 131.466 180.99 133.51 181.007 135.526C179.887 135.536 178.739 135.545 177.563 135.555C176.387 135.565 175.225 135.575 174.077 135.584ZM201.241 135.357C201.219 132.781 201.197 130.191 201.175 127.587C201.154 124.983 201.132 122.407 201.111 119.859C200.551 119.864 199.977 119.869 199.389 119.874C198.829 119.878 198.269 119.883 197.709 119.888C197.7 118.852 197.692 117.816 197.683 116.78C197.674 115.744 197.665 114.708 197.657 113.672C198.217 113.667 198.777 113.663 199.337 113.658C199.925 113.653 200.499 113.648 201.059 113.643C201.05 112.663 201.042 111.697 201.034 110.745C201.026 109.766 201.018 108.8 201.01 107.848C202.158 107.838 203.32 107.828 204.496 107.818C205.672 107.809 206.82 107.799 207.94 107.79C207.948 108.742 207.956 109.707 207.964 110.687C207.972 111.639 207.98 112.605 207.988 113.585C208.632 113.58 209.29 113.574 209.962 113.569C210.634 113.563 211.292 113.558 211.936 113.552C211.945 114.588 211.954 115.624 211.962 116.66C211.971 117.696 211.98 118.732 211.988 119.768C211.344 119.773 210.686 119.779 210.014 119.785C209.342 119.79 208.684 119.796 208.04 119.801C208.062 122.349 208.083 124.925 208.105 127.529C208.127 130.133 208.149 132.723 208.17 135.299C207.05 135.308 205.902 135.318 204.726 135.327C203.551 135.337 202.389 135.347 201.241 135.357ZM225.551 135.825C223.927 135.839 222.412 135.571 221.008 135.023C219.603 134.447 218.378 133.645 217.333 132.618C216.289 131.562 215.466 130.337 214.867 128.942C214.295 127.547 214.002 126.023 213.988 124.371C213.974 122.72 214.242 121.191 214.79 119.787C215.366 118.382 216.168 117.157 217.195 116.112C218.222 115.068 219.434 114.259 220.829 113.688C222.224 113.088 223.733 112.781 225.357 112.768C227.009 112.754 228.524 113.035 229.901 113.612C231.305 114.16 232.53 114.948 233.575 115.975C234.619 117.002 235.427 118.214 235.999 119.609C236.599 121.004 236.906 122.527 236.919 124.179C236.933 125.831 236.652 127.36 236.076 128.765C235.528 130.169 234.74 131.408 233.713 132.48C232.686 133.525 231.474 134.347 230.079 134.947C228.712 135.518 227.203 135.811 225.551 135.825ZM225.498 129.567C226.87 129.556 227.958 129.057 228.762 128.07C229.593 127.055 230.003 125.777 229.99 124.237C229.977 122.669 229.546 121.413 228.698 120.468C227.878 119.495 226.782 119.014 225.41 119.026C224.038 119.037 222.936 119.536 222.104 120.523C221.3 121.482 220.905 122.745 220.918 124.313C220.931 125.853 221.348 127.124 222.168 128.125C223.016 129.098 224.126 129.579 225.498 129.567Z" fill="#FFDE59"/>
<path d="M32.9721 189.768C32.9703 189.544 32.9685 189.334 32.9669 189.138C32.965 188.914 32.9632 188.704 32.9616 188.508C32.2665 189.102 31.4723 189.557 30.5789 189.872C29.7138 190.216 28.7772 190.391 27.7692 190.4C26.3413 190.412 24.995 190.143 23.7303 189.594C22.4657 189.044 21.3392 188.27 20.3508 187.27C19.3901 186.242 18.6239 185.03 18.0522 183.635C17.5085 182.24 17.2296 180.702 17.2155 179.022C17.2012 177.314 17.4542 175.758 17.9745 174.353C18.5227 172.949 19.2686 171.739 20.2121 170.723C21.1836 169.706 22.2971 168.927 23.5526 168.384C24.8079 167.814 26.1355 167.523 27.5355 167.511C28.5434 167.503 29.4968 167.663 30.3956 167.991C31.2941 168.292 32.0957 168.719 32.8004 169.273C32.7863 167.593 32.7721 165.899 32.7578 164.191C32.7435 162.483 32.7293 160.789 32.7153 159.109C33.8632 159.1 35.0252 159.09 36.2011 159.08C37.3771 159.07 38.5251 159.061 39.645 159.051C39.6875 164.119 39.7303 169.229 39.7735 174.381C39.8166 179.533 39.8594 184.642 39.9019 189.71C38.7819 189.72 37.634 189.729 36.458 189.739C35.2821 189.749 34.1201 189.759 32.9721 189.768ZM28.6418 184.26C29.9858 184.249 31.0596 183.75 31.8634 182.763C32.6672 181.777 33.0624 180.485 33.049 178.889C33.0356 177.293 32.619 176.023 31.799 175.078C30.9788 174.104 29.8968 173.624 28.5528 173.635C27.1809 173.646 26.0929 174.131 25.2889 175.09C24.5129 176.049 24.1317 177.34 24.1453 178.964C24.1589 180.588 24.5618 181.887 25.354 182.86C26.1739 183.805 27.2699 184.272 28.6418 184.26ZM55.027 190.256C53.403 190.269 51.8888 190.002 50.4841 189.454C49.0792 188.877 47.8545 188.076 46.8098 187.048C45.765 185.993 44.9427 184.768 44.3429 183.373C43.7712 181.978 43.4785 180.454 43.4646 178.802C43.4508 177.15 43.718 175.622 44.2662 174.217C44.8425 172.812 45.6443 171.588 46.6715 170.543C47.6988 169.498 48.9101 168.69 50.3054 168.118C51.7004 167.519 53.2099 167.212 54.8338 167.198C56.4857 167.185 58.0002 167.466 59.377 168.042C60.7817 168.591 62.0063 169.378 63.051 170.406C64.0956 171.433 64.9038 172.644 65.4755 174.039C66.0752 175.434 66.382 176.958 66.3958 178.61C66.4097 180.262 66.1285 181.79 65.5522 183.195C65.004 184.6 64.2163 185.838 63.1893 186.911C62.162 187.956 60.9508 188.778 59.5558 189.378C58.1885 189.949 56.6789 190.242 55.027 190.256ZM54.9746 183.998C56.3465 183.986 57.4344 183.487 58.2381 182.5C59.0697 181.485 59.479 180.208 59.4661 178.668C59.4529 177.1 59.0224 175.844 58.1744 174.899C57.3543 173.925 56.2582 173.445 54.8862 173.456C53.5143 173.468 52.4124 173.967 51.5807 174.954C50.7767 175.913 50.3812 177.176 50.3944 178.744C50.4073 180.284 50.8239 181.554 51.6444 182.556C52.4925 183.529 53.6026 184.009 54.9746 183.998ZM97.8537 180.614C97.8715 182.742 97.3261 184.483 96.2174 185.836C95.1364 187.161 93.6605 188.126 91.7894 188.73C89.9464 189.333 87.8766 189.602 85.58 189.538C83.2836 189.501 80.9428 189.17 78.5574 188.546C78.5474 187.342 78.5373 186.138 78.5272 184.934C78.5171 183.731 78.507 182.527 78.4969 181.323C80.6874 182.088 82.6794 182.562 84.473 182.743C86.2666 182.924 87.694 182.842 88.7551 182.497C89.816 182.124 90.343 181.517 90.3359 180.677C90.331 180.089 90.033 179.616 89.442 179.257C88.8507 178.87 88.0778 178.526 87.1233 178.226C86.1967 177.926 85.2138 177.584 84.1746 177.201C83.1351 176.79 82.1368 176.28 81.1797 175.672C80.2503 175.036 79.4874 174.216 78.891 173.213C78.2943 172.182 77.9896 170.897 77.9767 169.357C77.9607 167.453 78.4512 165.838 79.4481 164.514C80.4451 163.19 81.7947 162.184 83.497 161.498C85.2273 160.812 87.1844 160.459 89.3684 160.441C91.5803 160.422 93.865 160.739 96.2226 161.391C96.2326 162.595 96.2427 163.799 96.2528 165.003C96.2629 166.207 96.273 167.411 96.2831 168.615C94.3161 167.792 92.506 167.303 90.8526 167.149C89.227 166.966 87.9258 167.061 86.9489 167.433C85.9717 167.778 85.4864 168.342 85.493 169.126C85.4977 169.686 85.7955 170.145 86.3866 170.504C86.9776 170.863 87.7364 171.193 88.6629 171.493C89.6172 171.765 90.6141 172.107 91.6536 172.518C92.6929 172.901 93.6773 173.425 94.6069 174.089C95.5642 174.725 96.3414 175.573 96.9383 176.632C97.5349 177.663 97.8401 178.99 97.8537 180.614ZM104.824 164.973C104.013 164.98 103.269 164.79 102.594 164.404C101.946 164.018 101.424 163.504 101.027 162.863C100.629 162.223 100.427 161.51 100.421 160.726C100.414 159.942 100.604 159.241 100.991 158.621C101.378 157.974 101.891 157.452 102.532 157.054C103.201 156.657 103.941 156.455 104.753 156.448C105.537 156.441 106.253 156.631 106.9 157.018C107.575 157.404 108.111 157.918 108.509 158.558C108.906 159.171 109.108 159.869 109.114 160.653C109.121 161.437 108.931 162.153 108.544 162.8C108.158 163.447 107.63 163.97 106.961 164.368C106.321 164.765 105.608 164.967 104.824 164.973ZM101.541 189.194C101.511 185.61 101.481 181.998 101.451 178.358C101.42 174.69 101.389 171.064 101.359 167.481C102.507 167.471 103.669 167.461 104.845 167.451C106.021 167.442 107.169 167.432 108.289 167.423C108.319 171.006 108.35 174.632 108.38 178.3C108.411 181.94 108.441 185.552 108.471 189.136C107.351 189.145 106.203 189.155 105.027 189.165C103.851 189.174 102.689 189.184 101.541 189.194ZM129.841 182.236C129.855 183.972 129.377 185.404 128.406 186.533C127.464 187.633 126.182 188.441 124.563 188.959C122.943 189.477 121.125 189.702 119.108 189.635C117.12 189.595 115.087 189.29 113.01 188.72C113.001 187.656 112.992 186.564 112.983 185.444C112.973 184.324 112.964 183.232 112.955 182.168C114.136 182.69 115.315 183.1 116.494 183.398C117.672 183.668 118.737 183.828 119.69 183.876C120.642 183.924 121.412 183.847 121.998 183.646C122.584 183.417 122.875 183.051 122.871 182.547C122.868 182.155 122.613 181.849 122.107 181.629C121.629 181.409 120.998 181.219 120.212 181.057C119.427 180.868 118.585 180.651 117.687 180.406C116.816 180.134 115.987 179.762 115.199 179.293C114.411 178.796 113.762 178.143 113.251 177.335C112.768 176.499 112.521 175.423 112.51 174.107C112.497 172.539 112.934 171.206 113.82 170.106C114.735 168.979 115.96 168.128 117.495 167.555C119.03 166.955 120.75 166.646 122.654 166.63C124.557 166.614 126.506 166.92 128.499 167.547C128.508 168.611 128.518 169.703 128.527 170.823C128.536 171.943 128.545 173.035 128.554 174.099C126.98 173.356 125.506 172.864 124.132 172.624C122.758 172.383 121.652 172.365 120.813 172.568C119.975 172.743 119.558 173.124 119.563 173.712C119.566 174.104 119.807 174.41 120.284 174.63C120.79 174.822 121.422 174.999 122.179 175.16C122.964 175.322 123.792 175.539 124.663 175.812C125.561 176.084 126.39 176.469 127.15 176.967C127.938 177.436 128.574 178.103 129.057 178.967C129.568 179.803 129.829 180.893 129.841 182.236ZM135.508 188.909C135.487 186.333 135.465 183.743 135.443 181.14C135.421 178.536 135.4 175.96 135.378 173.412C134.818 173.416 134.244 173.421 133.656 173.426C133.096 173.431 132.537 173.436 131.977 173.44C131.968 172.404 131.959 171.368 131.95 170.332C131.942 169.296 131.933 168.26 131.924 167.224C132.484 167.22 133.044 167.215 133.604 167.21C134.192 167.205 134.766 167.201 135.326 167.196C135.318 166.216 135.31 165.25 135.302 164.298C135.294 163.318 135.286 162.352 135.278 161.4C136.426 161.391 137.588 161.381 138.764 161.371C139.94 161.361 141.088 161.352 142.208 161.342C142.216 162.294 142.224 163.26 142.232 164.24C142.24 165.192 142.248 166.158 142.256 167.138C142.9 167.133 143.558 167.127 144.23 167.121C144.902 167.116 145.56 167.11 146.204 167.105C146.213 168.141 146.221 169.177 146.23 170.213C146.239 171.249 146.247 172.285 146.256 173.321C145.612 173.326 144.954 173.332 144.282 173.337C143.61 173.343 142.952 173.348 142.308 173.354C142.33 175.902 142.351 178.478 142.373 181.081C142.395 183.685 142.416 186.275 142.438 188.851C141.318 188.861 140.17 188.87 138.994 188.88C137.818 188.89 136.656 188.9 135.508 188.909ZM168.204 187.627C166.279 188.455 164.365 188.975 162.463 189.187C160.56 189.399 158.754 189.302 157.042 188.897C155.359 188.519 153.855 187.845 152.531 186.877C151.207 185.908 150.16 184.67 149.392 183.165C148.651 181.659 148.273 179.912 148.256 177.924C148.242 176.272 148.495 174.758 149.016 173.382C149.564 171.977 150.338 170.752 151.337 169.708C152.336 168.636 153.519 167.814 154.887 167.242C156.254 166.643 157.749 166.336 159.373 166.322C160.829 166.31 162.147 166.537 163.327 167.003C164.507 167.47 165.534 168.133 166.41 168.994C167.285 169.826 167.993 170.828 168.535 172C169.077 173.171 169.424 174.457 169.575 175.855C169.727 177.254 169.655 178.739 169.361 180.309C167.065 180.329 164.755 180.348 162.431 180.367C160.107 180.387 157.797 180.406 155.501 180.425C156.042 181.485 156.93 182.234 158.166 182.671C159.43 183.109 160.915 183.236 162.621 183.054C164.356 182.871 166.2 182.408 168.154 181.663C168.162 182.643 168.17 183.637 168.179 184.645C168.187 185.653 168.196 186.647 168.204 187.627ZM159.257 172.54C158.445 172.546 157.691 172.777 156.995 173.231C156.327 173.684 155.814 174.375 155.458 175.302C156.718 175.291 157.978 175.28 159.238 175.27C160.526 175.259 161.8 175.248 163.06 175.238C162.716 174.289 162.206 173.607 161.531 173.193C160.883 172.75 160.125 172.532 159.257 172.54ZM173.352 188.592C173.322 185.008 173.292 181.396 173.261 177.757C173.231 174.089 173.2 170.463 173.17 166.879C174.318 166.869 175.48 166.86 176.656 166.85C177.832 166.84 178.98 166.83 180.1 166.821C180.102 167.017 180.103 167.199 180.105 167.367C180.106 167.535 180.108 167.717 180.109 167.913C180.833 167.375 181.641 166.962 182.535 166.674C183.428 166.359 184.351 166.197 185.303 166.189C186.339 166.181 187.292 166.355 188.163 166.711C189.034 167.04 189.78 167.538 190.402 168.205C191.293 167.553 192.296 167.041 193.413 166.667C194.558 166.294 195.733 166.102 196.937 166.092C198.644 166.077 200.117 166.415 201.355 167.105C202.621 167.794 203.595 168.78 204.278 170.062C204.989 171.344 205.352 172.896 205.367 174.715C205.386 176.955 205.405 179.223 205.424 181.519C205.443 183.815 205.462 186.083 205.481 188.323C204.361 188.332 203.213 188.342 202.037 188.352C200.861 188.362 199.699 188.371 198.551 188.381C198.534 186.281 198.516 184.153 198.498 181.997C198.48 179.841 198.462 177.713 198.444 175.613C198.436 174.662 198.206 173.893 197.753 173.309C197.328 172.697 196.639 172.394 195.687 172.402C194.763 172.41 194.038 172.71 193.511 173.303C193.012 173.867 192.766 174.653 192.775 175.661C192.792 177.761 192.81 179.889 192.828 182.045C192.846 184.201 192.864 186.329 192.882 188.429C191.762 188.438 190.614 188.448 189.438 188.457C188.262 188.467 187.1 188.477 185.952 188.487C185.934 186.387 185.916 184.259 185.898 182.103C185.88 179.947 185.862 177.819 185.845 175.719C185.837 174.767 185.606 173.999 185.153 173.415C184.728 172.802 184.04 172.5 183.088 172.508C182.164 172.516 181.438 172.816 180.911 173.408C180.412 173.972 180.167 174.759 180.175 175.767C180.193 177.866 180.21 179.994 180.228 182.15C180.247 184.306 180.264 186.434 180.282 188.534C179.162 188.543 178.014 188.553 176.838 188.563C175.662 188.573 174.5 188.583 173.352 188.592ZM224.262 188.166C224.26 187.942 224.259 187.732 224.257 187.536C224.255 187.312 224.253 187.102 224.252 186.906C223.557 187.499 222.762 187.954 221.869 188.27C221.004 188.613 220.067 188.789 219.059 188.797C217.631 188.809 216.285 188.554 215.021 188.033C213.756 187.484 212.63 186.709 211.641 185.709C210.681 184.681 209.914 183.47 209.343 182.074C208.799 180.679 208.52 179.127 208.506 177.419C208.491 175.683 208.744 174.113 209.264 172.709C209.813 171.304 210.559 170.108 211.502 169.12C212.474 168.104 213.587 167.324 214.843 166.782C216.098 166.211 217.426 165.92 218.826 165.908C219.834 165.9 220.787 166.06 221.686 166.388C222.584 166.689 223.386 167.116 224.091 167.67C224.089 167.446 224.087 167.236 224.085 167.04C224.084 166.844 224.082 166.648 224.08 166.452C225.228 166.443 226.39 166.433 227.566 166.423C228.742 166.413 229.89 166.404 231.01 166.394C231.04 169.978 231.071 173.604 231.101 177.272C231.132 180.912 231.162 184.524 231.192 188.108C230.072 188.117 228.924 188.127 227.748 188.136C226.572 188.146 225.41 188.156 224.262 188.166ZM219.932 182.658C221.276 182.646 222.35 182.147 223.154 181.161C223.957 180.174 224.353 178.883 224.339 177.287C224.326 175.691 223.909 174.42 223.089 173.475C222.269 172.502 221.187 172.021 219.843 172.032C218.471 172.044 217.383 172.529 216.579 173.487C215.803 174.446 215.422 175.737 215.435 177.361C215.449 178.985 215.852 180.284 216.644 181.257C217.464 182.202 218.56 182.669 219.932 182.658ZM95.5293 233.636C95.5471 235.764 95.0016 237.504 93.8929 238.858C92.812 240.183 91.336 241.147 89.465 241.751C87.622 242.354 85.5522 242.624 83.2556 242.559C80.9592 242.522 78.6183 242.192 76.233 241.568C76.2229 240.364 76.2129 239.16 76.2028 237.956C76.1927 236.752 76.1826 235.548 76.1725 234.344C78.363 235.11 80.355 235.583 82.1486 235.764C83.9422 235.945 85.3696 235.863 86.4307 235.518C87.4916 235.145 88.0186 234.539 88.0115 233.699C88.0066 233.111 87.7086 232.637 87.1176 232.278C86.5263 231.891 85.7534 231.548 84.7989 231.248C83.8723 230.947 82.8894 230.606 81.8502 230.222C80.8107 229.811 79.8124 229.301 78.8553 228.693C77.9259 228.057 77.163 227.237 76.5666 226.234C75.9699 225.203 75.6651 223.918 75.6522 222.378C75.6363 220.474 76.1268 218.86 77.1237 217.535C78.1207 216.211 79.4703 215.206 81.1726 214.519C82.9029 213.833 84.86 213.48 87.0439 213.462C89.2559 213.444 91.5406 213.76 93.8981 214.413C93.9082 215.617 93.9183 216.821 93.9284 218.025C93.9385 219.229 93.9486 220.433 93.9587 221.636C91.9917 220.813 90.1815 220.324 88.5282 220.17C86.9026 219.988 85.6014 220.082 84.6244 220.455C83.6473 220.799 83.162 221.363 83.1686 222.147C83.1733 222.707 83.4711 223.166 84.0621 223.525C84.6532 223.885 85.412 224.214 86.3385 224.514C87.2928 224.786 88.2897 225.128 89.3292 225.539C90.3685 225.923 91.3529 226.446 92.2825 227.111C93.2398 227.747 94.017 228.594 94.6139 229.653C95.2105 230.684 95.5156 232.012 95.5293 233.636ZM109.302 242.803C107.678 242.816 106.164 242.549 104.759 242.001C103.354 241.424 102.13 240.623 101.085 239.595C100.04 238.54 99.2178 237.315 98.6181 235.92C98.0464 234.525 97.7536 233.001 97.7398 231.349C97.7259 229.697 97.9931 228.169 98.5414 226.764C99.1176 225.359 99.9194 224.135 100.947 223.09C101.974 222.045 103.185 221.237 104.581 220.665C105.976 220.066 107.485 219.759 109.109 219.745C110.761 219.732 112.275 220.013 113.652 220.589C115.057 221.138 116.281 221.925 117.326 222.953C118.371 223.98 119.179 225.191 119.751 226.587C120.35 227.982 120.657 229.505 120.671 231.157C120.685 232.809 120.404 234.337 119.827 235.742C119.279 237.147 118.491 238.386 117.464 239.458C116.437 240.503 115.226 241.325 113.831 241.925C112.464 242.496 110.954 242.789 109.302 242.803ZM109.25 236.545C110.622 236.533 111.71 236.034 112.513 235.048C113.345 234.033 113.754 232.755 113.741 231.215C113.728 229.647 113.298 228.391 112.45 227.446C111.629 226.473 110.533 225.992 109.161 226.003C107.789 226.015 106.688 226.514 105.856 227.501C105.052 228.46 104.656 229.723 104.67 231.291C104.682 232.831 105.099 234.102 105.92 235.103C106.768 236.076 107.878 236.556 109.25 236.545ZM124.4 242.004C124.357 236.936 124.314 231.827 124.271 226.675C124.228 221.523 124.185 216.413 124.143 211.345C125.291 211.336 126.453 211.326 127.629 211.316C128.805 211.306 129.953 211.297 131.072 211.287C131.115 216.355 131.158 221.465 131.201 226.617C131.244 231.768 131.287 236.878 131.329 241.946C130.209 241.955 129.061 241.965 127.885 241.975C126.71 241.985 125.548 241.995 124.4 242.004ZM150.655 241.784C150.653 241.56 150.652 241.35 150.65 241.154C150.648 240.93 150.646 240.72 150.645 240.524C149.95 241.118 149.155 241.573 148.262 241.888C147.397 242.231 146.46 242.407 145.452 242.416C144.024 242.428 142.678 242.173 141.414 241.652C140.149 241.102 139.023 240.328 138.034 239.328C137.074 238.3 136.307 237.088 135.736 235.693C135.192 234.297 134.913 232.746 134.899 231.038C134.884 229.302 135.137 227.732 135.657 226.327C136.205 224.923 136.951 223.726 137.895 222.738C138.867 221.722 139.98 220.943 141.236 220.4C142.491 219.83 143.819 219.539 145.219 219.527C146.227 219.519 147.18 219.679 148.079 220.007C148.977 220.307 149.779 220.735 150.483 221.289C150.482 221.065 150.48 220.855 150.478 220.659C150.477 220.463 150.475 220.267 150.473 220.071C151.621 220.061 152.783 220.052 153.959 220.042C155.135 220.032 156.283 220.022 157.403 220.013C157.433 223.597 157.463 227.223 157.494 230.891C157.525 234.53 157.555 238.142 157.585 241.726C156.465 241.736 155.317 241.745 154.141 241.755C152.965 241.765 151.803 241.775 150.655 241.784ZM146.325 236.276C147.669 236.265 148.743 235.766 149.546 234.779C150.35 233.792 150.745 232.501 150.732 230.905C150.719 229.309 150.302 228.039 149.482 227.093C148.662 226.12 147.58 225.639 146.236 225.651C144.864 225.662 143.776 226.147 142.972 227.106C142.196 228.065 141.815 229.356 141.828 230.98C141.842 232.604 142.245 233.902 143.037 234.876C143.857 235.821 144.953 236.288 146.325 236.276ZM162.21 241.687C162.18 238.103 162.149 234.492 162.119 230.852C162.088 227.184 162.058 223.558 162.028 219.974C163.176 219.965 164.338 219.955 165.514 219.945C166.69 219.935 167.838 219.925 168.958 219.916C168.959 220.112 168.961 220.308 168.962 220.504C168.964 220.7 168.966 220.896 168.967 221.092C169.83 220.469 170.806 219.999 171.896 219.681C172.985 219.364 174.174 219.27 175.463 219.4C175.473 220.52 175.482 221.653 175.492 222.801C175.502 223.949 175.511 225.083 175.52 226.203C173.306 225.914 171.67 226.124 170.612 226.832C169.553 227.513 169.031 228.624 169.043 230.164C169.059 232.04 169.075 233.944 169.091 235.876C169.107 237.807 169.124 239.725 169.139 241.629C168.02 241.639 166.872 241.648 165.696 241.658C164.52 241.668 163.358 241.678 162.21 241.687Z" fill="#FAFAFF"/>
</svg>
