<svg width="2245" height="1614" viewBox="0 0 2245 1614" fill="none" xmlns="http://www.w3.org/2000/svg">
<path d="M1163.77 288.782H2245V1613.78L1126 1604.78L1428.61 1447.78L1657.68 1253.28L1749.1 945.282L1673.58 694.782L1435.57 481.782L1163.77 288.782Z" fill="#FDEBDD"/>
<path d="M1146 1605.82L4.06999 1605.82L0.000553154 280.825L999.501 280.825L723.076 444.605L520.933 639.727L440.959 947.974L508.575 1198.27L719.886 1410.62L1146 1605.82Z" fill="#FDEBDD"/>
<path d="M1076.5 322.782C1428.29 322.782 1716 598.548 1716 941.782C1716 1285.02 1428.29 1560.78 1076.5 1560.78C724.71 1560.78 437.002 1285.02 437.002 941.782C437.002 598.548 724.71 322.782 1076.5 322.782Z" stroke="#0D0A0B" stroke-width="84"/>
<path d="M1076.5 327.282C1425.96 327.282 1711.5 601.18 1711.5 941.782C1711.5 1282.38 1425.96 1556.28 1076.5 1556.28C727.046 1556.28 441.502 1282.38 441.502 941.782C441.502 601.18 727.046 327.282 1076.5 327.282Z" stroke="#B32426" stroke-width="75"/>
<path d="M1068.5 379.282C1398.56 379.282 1667 632.215 1667 945.282C1667 1258.35 1398.56 1511.28 1068.5 1511.28C738.447 1511.28 470.002 1258.35 470.002 945.282C470.002 632.215 738.447 379.282 1068.5 379.282Z" stroke="white" stroke-width="18"/>
<path d="M1657.51 964.782L1751.17 972.83L1753.47 985.934L1657 977.282L1657.51 964.782Z" fill="black"/>
<path d="M396.002 952.335L479.002 959.282L480.002 974.782L398.598 965.58L396.002 952.335Z" fill="black"/>
<path d="M1440.49 1377.28L1523.14 1427.93L1519.55 1440.95L1428 1386.78L1440.49 1377.28Z" fill="black"/>
<path d="M742.502 1409.28L676.499 1475.63L665.004 1469.47L730.502 1401.78L742.502 1409.28Z" fill="black"/>
<path d="M1505 570.782L1583.26 506.23L1594.3 513.995L1514 580.282L1505 570.782Z" fill="black"/>
<path d="M643.502 559.282L572.003 504.461L577.045 491.941L652.502 550.782L643.502 559.282Z" fill="black"/>
</svg>
