<svg width="1975" height="1938" viewBox="0 0 1975 1938" fill="none" xmlns="http://www.w3.org/2000/svg">
<path d="M987.504 45C1508.85 45.0003 1930.01 459.4 1930.01 968.783C1930.01 1478.17 1508.85 1892.57 987.504 1892.57C466.158 1892.57 45.0001 1478.17 45 968.783C45 459.4 466.158 45 987.504 45Z" stroke="white" stroke-width="90"/>
<path d="M992.184 110.662C1472.31 110.662 1861.22 495.373 1861.22 969.563C1861.22 1443.75 1472.31 1828.46 992.184 1828.46C512.057 1828.46 123.143 1443.75 123.143 969.563C123.143 495.373 512.057 110.662 992.184 110.662Z" stroke="#7F7F7F" stroke-width="31"/>
<rect width="108.077" height="19.7833" transform="matrix(0.935249 0.353991 -0.366232 0.930523 1806.03 1298.86)" fill="black"/>
<rect width="108.175" height="19.7648" transform="matrix(0.959349 -0.282224 0.292521 0.956259 1822.7 685.316)" fill="black"/>
<rect width="107.126" height="19.961" transform="matrix(0.651483 -0.758663 0.77106 0.636762 1513.56 263.909)" fill="black"/>
<rect width="107.134" height="19.9595" transform="matrix(-0.654418 -0.756133 0.768603 -0.639726 433.71 300.31)" fill="black"/>
<path d="M150.544 701.237L49.9211 657.738L57.8814 639.615L157.389 681.649L150.544 701.237Z" fill="black"/>
<rect width="107.765" height="19.8419" transform="matrix(-0.853478 0.521129 -0.536006 -0.844214 173.811 1316.05)" fill="black"/>
</svg>
